CooperHewittInterpol2-BookItalic.ufo
<glyph name="quotedbl" format="1">
  <advance width="338"/>
  <unicode hex="0022"/>
  <outline>
    <contour>
      <point x="243" y="780" type="line" smooth="yes"/>
      <point x="222" y="511" type="line" smooth="yes"/>
      <point x="272" y="511" type="line" smooth="yes"/>
      <point x="322" y="780" type="line" smooth="yes"/>
    </contour>
    <contour>
      <point x="122" y="780" type="line" smooth="yes"/>
      <point x="101" y="511" type="line" smooth="yes"/>
      <point x="151" y="511" type="line" smooth="yes"/>
      <point x="201" y="780" type="line" smooth="yes"/>
    </contour>
  </outline>
</glyph>
<glyph name="dollar" format="1">
  <advance width="596"/>
  <unicode hex="0024"/>
  <outline>
    <contour>
      <point x="166" y="553" type="line" smooth="yes"/>
      <point x="195" y="614" type="line" smooth="yes"/>
      <point x="256" y="652" type="line" smooth="yes"/>
      <point x="336" y="665" type="line" smooth="yes"/>
      <point x="340" y="665" type="line" smooth="yes"/>
      <point x="351" y="665" type="line" smooth="yes"/>
      <point x="361" y="664" type="line" smooth="yes"/>
      <point x="369" y="663" type="line" smooth="yes"/>
      <point x="283" y="431" type="line" smooth="yes"/>
      <point x="209" y="454" type="line" smooth="yes"/>
      <point x="171" y="492" type="line" smooth="yes"/>
      <point x="165" y="545" type="line" smooth="yes"/>
    </contour>
    <contour>
      <point x="271" y="115" type="line" smooth="yes"/>
      <point x="256" y="115" type="line" smooth="yes"/>
      <point x="243" y="117" type="line" smooth="yes"/>
      <point x="229" y="119" type="line" smooth="yes"/>
      <point x="319" y="362" type="line" smooth="yes"/>
      <point x="393" y="339" type="line" smooth="yes"/>
      <point x="437" y="302" type="line" smooth="yes"/>
      <point x="447" y="242" type="line" smooth="yes"/>
      <point x="446" y="234" type="line" smooth="yes"/>
      <point x="418" y="169" type="line" smooth="yes"/>
      <point x="359" y="129" type="line" smooth="yes"/>
      <point x="277" y="115" type="line" smooth="yes"/>
    </contour>
    <contour>
      <point x="496" y="840" type="line" smooth="yes"/>
      <point x="434" y="840" type="line" smooth="yes"/>
      <point x="391" y="724" type="line" smooth="yes"/>
      <point x="377" y="726" type="line" smooth="yes"/>
      <point x="362" y="727" type="line" smooth="yes"/>
      <point x="346" y="727" type="line" smooth="yes"/>
      <point x="224" y="708" type="line" smooth="yes"/>
      <point x="137" y="650" type="line" smooth="yes"/>
      <point x="95" y="553" type="line" smooth="yes"/>
      <point x="94" y="545" type="line" smooth="yes"/>
      <point x="102" y="466" type="line" smooth="yes"/>
      <point x="155" y="407" type="line" smooth="yes"/>
      <point x="261" y="372" type="line" smooth="yes"/>
      <point x="174" y="136" type="line" smooth="yes"/>
      <point x="134" y="168" type="line" smooth="yes"/>
      <point x="117" y="212" type="line" smooth="yes"/>
      <point x="119" y="274" type="line" smooth="yes"/>
      <point x="50" y="274" type="line" smooth="yes"/>
      <point x="48" y="261" type="line" smooth="yes"/>
      <point x="51" y="183" type="line" smooth="yes"/>
      <point x="86" y="119" type="line" smooth="yes"/>
      <point x="151" y="73" type="line" smooth="yes"/>
      <point x="102" y="-60" type="line" smooth="yes"/>
      <point x="163" y="-60" type="line" smooth="yes"/>
      <point x="206" y="57" type="line" smooth="yes"/>
      <point x="225" y="55" type="line" smooth="yes"/>
      <point x="247" y="53" type="line" smooth="yes"/>
      <point x="274" y="53" type="line" smooth="yes"/>
      <point x="394" y="74" type="line" smooth="yes"/>
      <point x="478" y="135" type="line" smooth="yes"/>
      <point x="518" y="233" type="line" smooth="yes"/>
      <point x="519" y="241" type="line" smooth="yes"/>
      <point x="507" y="329" type="line" smooth="yes"/>
      <point x="447" y="388" type="line" smooth="yes"/>
      <point x="341" y="422" type="line" smooth="yes"/>
      <point x="426" y="650" type="line" smooth="yes"/>
      <point x="461" y="617" type="line" smooth="yes"/>
      <point x="478" y="566" type="line" smooth="yes"/>
      <point x="476" y="496" type="line" smooth="yes"/>
      <point x="546" y="496" type="line" smooth="yes"/>
      <point x="548" y="509" type="line" smooth="yes"/>
      <point x="547" y="596" type="line" smooth="yes"/>
      <point x="513" y="666" type="line" smooth="yes"/>
      <point x="448" y="711" type="line" smooth="yes"/>
    </contour>
  </outline>
</glyph>
<glyph name="ampersand" format="1">
  <advance width="661"/>
  <unicode hex="0026"/>
  <outline>
    <contour>
      <point x="174" y="631" type="line" smooth="yes"/>
      <point x="190" y="679" type="line" smooth="yes"/>
      <point x="228" y="714" type="line" smooth="yes"/>
      <point x="292" y="727" type="line" smooth="yes"/>
      <point x="300" y="727" type="line" smooth="yes"/>
      <point x="360" y="714" type="line" smooth="yes"/>
      <point x="394" y="680" type="line" smooth="yes"/>
      <point x="401" y="630" type="line" smooth="yes"/>
      <point x="399" y="615" type="line" smooth="yes"/>
      <point x="370" y="555" type="line" smooth="yes"/>
      <point x="312" y="507" type="line" smooth="yes"/>
      <point x="238" y="462" type="line" smooth="yes"/>
      <point x="200" y="513" type="line" smooth="yes"/>
      <point x="176" y="564" type="line" smooth="yes"/>
      <point x="172" y="616" type="line" smooth="yes"/>
    </contour>
    <contour>
      <point x="227" y="54" type="line" smooth="yes"/>
      <point x="142" y="72" type="line" smooth="yes"/>
      <point x="98" y="123" type="line" smooth="yes"/>
      <point x="92" y="201" type="line" smooth="yes"/>
      <point x="94" y="216" type="line" smooth="yes"/>
      <point x="117" y="283" type="line" smooth="yes"/>
      <point x="161" y="333" type="line" smooth="yes"/>
      <point x="217" y="372" type="line" smooth="yes"/>
      <point x="408" y="129" type="line" smooth="yes"/>
      <point x="353" y="85" type="line" smooth="yes"/>
      <point x="294" y="61" type="line" smooth="yes"/>
      <point x="235" y="54" type="line" smooth="yes"/>
    </contour>
    <contour>
      <point x="231" y="-11" type="line" smooth="yes"/>
      <point x="310" y="-2" type="line" smooth="yes"/>
      <point x="383" y="25" type="line" smooth="yes"/>
      <point x="449" y="75" type="line" smooth="yes"/>
      <point x="510" y="0" type="line" smooth="yes"/>
      <point x="601" y="0" type="line" smooth="yes"/>
      <point x="499" y="129" type="line" smooth="yes"/>
      <point x="545" y="202" type="line" smooth="yes"/>
      <point x="580" y="290" type="line" smooth="yes"/>
      <point x="601" y="395" type="line" smooth="yes"/>
      <point x="527" y="395" type="line" smooth="yes"/>
      <point x="526" y="386" type="line" smooth="yes"/>
      <point x="511" y="305" type="line" smooth="yes"/>
      <point x="486" y="240" type="line" smooth="yes"/>
      <point x="456" y="186" type="line" smooth="yes"/>
      <point x="278" y="410" type="line" smooth="yes"/>
      <point x="366" y="465" type="line" smooth="yes"/>
      <point x="436" y="529" type="line" smooth="yes"/>
      <point x="472" y="613" type="line" smooth="yes"/>
      <point x="474" y="628" type="line" smooth="yes"/>
      <point x="461" y="711" type="line" smooth="yes"/>
      <point x="401" y="769" type="line" smooth="yes"/>
      <point x="296" y="791" type="line" smooth="yes"/>
      <point x="193" y="770" type="line" smooth="yes"/>
      <point x="129" y="714" type="line" smooth="yes"/>
      <point x="101" y="633" type="line" smooth="yes"/>
      <point x="99" y="618" type="line" smooth="yes"/>
      <point x="103" y="554" type="line" smooth="yes"/>
      <point x="131" y="490" type="line" smooth="yes"/>
      <point x="177" y="424" type="line" smooth="yes"/>
      <point x="105" y="373" type="line" smooth="yes"/>
      <point x="50" y="307" type="line" smooth="yes"/>
      <point x="21" y="218" type="line" smooth="yes"/>
      <point x="19" y="203" type="line" smooth="yes"/>
      <point x="35" y="88" type="line" smooth="yes"/>
      <point x="109" y="14" type="line" smooth="yes"/>
    </contour>
  </outline>
</glyph>
<glyph name="parenleft" format="1">
  <advance width="317"/>
  <unicode hex="0028"/>
  <outline>
    <contour>
      <point x="47" y="348" type="line" smooth="yes"/>
      <point x="48" y="164" type="line" smooth="yes"/>
      <point x="86" y="10" type="line" smooth="yes"/>
      <point x="145" y="-120" type="line" smooth="yes"/>
      <point x="220" y="-120" type="line" smooth="yes"/>
      <point x="158" y="17" type="line" smooth="yes"/>
      <point x="119" y="171" type="line" smooth="yes"/>
      <point x="119" y="348" type="line" smooth="yes"/>
      <point x="122" y="372" type="line" smooth="yes"/>
      <point x="167" y="565" type="line" smooth="yes"/>
      <point x="245" y="717" type="line" smooth="yes"/>
      <point x="346" y="840" type="line" smooth="yes"/>
      <point x="271" y="840" type="line" smooth="yes"/>
      <point x="174" y="723" type="line" smooth="yes"/>
      <point x="97" y="573" type="line" smooth="yes"/>
      <point x="50" y="372" type="line" smooth="yes"/>
    </contour>
  </outline>
</glyph>
<glyph name="parenright" format="1">
  <advance width="311"/>
  <unicode hex="0029"/>
  <outline>
    <contour>
      <point x="266" y="372" type="line" smooth="yes"/>
      <point x="265" y="556" type="line" smooth="yes"/>
      <point x="227" y="710" type="line" smooth="yes"/>
      <point x="168" y="840" type="line" smooth="yes"/>
      <point x="93" y="840" type="line" smooth="yes"/>
      <point x="155" y="703" type="line" smooth="yes"/>
      <point x="194" y="549" type="line" smooth="yes"/>
      <point x="194" y="372" type="line" smooth="yes"/>
      <point x="191" y="348" type="line" smooth="yes"/>
      <point x="146" y="155" type="line" smooth="yes"/>
      <point x="68" y="3" type="line" smooth="yes"/>
      <point x="-33" y="-120" type="line" smooth="yes"/>
      <point x="42" y="-120" type="line" smooth="yes"/>
      <point x="139" y="-3" type="line" smooth="yes"/>
      <point x="216" y="147" type="line" smooth="yes"/>
      <point x="263" y="348" type="line" smooth="yes"/>
    </contour>
  </outline>
</glyph>
<glyph name="asterisk" format="1">
  <advance width="389"/>
  <unicode hex="002A"/>
  <outline>
    <contour>
      <point x="338" y="482" type="line" smooth="yes"/>
      <point x="263" y="596" type="line" smooth="yes"/>
      <point x="226" y="572" type="line" smooth="yes"/>
      <point x="292" y="451" type="line" smooth="yes"/>
    </contour>
    <contour>
      <point x="404" y="698" type="line" smooth="yes"/>
      <point x="260" y="648" type="line" smooth="yes"/>
      <point x="268" y="608" type="line" smooth="yes"/>
      <point x="414" y="648" type="line" smooth="yes"/>
    </contour>
    <contour>
      <point x="117" y="451" type="line" smooth="yes"/>
      <point x="214" y="572" type="line" smooth="yes"/>
      <point x="183" y="596" type="line" smooth="yes"/>
      <point x="79" y="482" type="line" smooth="yes"/>
    </contour>
    <contour>
      <point x="46" y="648" type="line" smooth="yes"/>
      <point x="182" y="608" type="line" smooth="yes"/>
      <point x="200" y="648" type="line" smooth="yes"/>
      <point x="69" y="698" type="line" smooth="yes"/>
    </contour>
    <contour>
      <point x="224" y="800" type="line" smooth="yes"/>
      <point x="210" y="654" type="line" smooth="yes"/>
      <point x="252" y="654" type="line" smooth="yes"/>
      <point x="277" y="800" type="line" smooth="yes"/>
    </contour>
  </outline>
</glyph>
<glyph name="zero" format="1">
  <advance width="596"/>
  <unicode hex="0030"/>
  <outline>
    <contour>
      <point x="260" y="53" type="line" smooth="yes"/>
      <point x="165" y="72" type="line" smooth="yes"/>
      <point x="118" y="131" type="line" smooth="yes"/>
      <point x="114" y="231" type="line" smooth="yes"/>
      <point x="155" y="543" type="line" smooth="yes"/>
      <point x="183" y="644" type="line" smooth="yes"/>
      <point x="240" y="706" type="line" smooth="yes"/>
      <point x="338" y="727" type="line" smooth="yes"/>
      <point x="344" y="727" type="line" smooth="yes"/>
      <point x="439" y="708" type="line" smooth="yes"/>
      <point x="486" y="649" type="line" smooth="yes"/>
      <point x="490" y="549" type="line" smooth="yes"/>
      <point x="449" y="237" type="line" smooth="yes"/>
      <point x="421" y="136" type="line" smooth="yes"/>
      <point x="364" y="74" type="line" smooth="yes"/>
      <point x="266" y="53" type="line" smooth="yes"/>
    </contour>
    <contour>
      <point x="343" y="791" type="line" smooth="yes"/>
      <point x="207" y="764" type="line" smooth="yes"/>
      <point x="125" y="685" type="line" smooth="yes"/>
      <point x="86" y="558" type="line" smooth="yes"/>
      <point x="42" y="222" type="line" smooth="yes"/>
      <point x="53" y="97" type="line" smooth="yes"/>
      <point x="125" y="17" type="line" smooth="yes"/>
      <point x="261" y="-11" type="line" smooth="yes"/>
      <point x="397" y="16" type="line" smooth="yes"/>
      <point x="479" y="95" type="line" smooth="yes"/>
      <point x="518" y="222" type="line" smooth="yes"/>
      <point x="562" y="558" type="line" smooth="yes"/>
      <point x="551" y="683" type="line" smooth="yes"/>
      <point x="479" y="763" type="line" smooth="yes"/>
    </contour>
  </outline>
</glyph>
<glyph name="two" format="1">
  <advance width="598"/>
  <unicode hex="0032"/>
  <outline>
    <contour>
      <point x="201" y="66" type="line" smooth="yes"/>
      <point x="125" y="65" type="line" smooth="yes"/>
      <point x="455" y="369" type="line" smooth="yes"/>
      <point x="517" y="433" type="line" smooth="yes"/>
      <point x="552" y="493" type="line" smooth="yes"/>
      <point x="570" y="569" type="line" smooth="yes"/>
      <point x="571" y="577" type="line" smooth="yes"/>
      <point x="553" y="687" type="line" smooth="yes"/>
      <point x="475" y="763" type="line" smooth="yes"/>
      <point x="342" y="791" type="line" smooth="yes"/>
      <point x="204" y="761" type="line" smooth="yes"/>
      <point x="118" y="675" type="line" smooth="yes"/>
      <point x="78" y="542" type="line" smooth="yes"/>
      <point x="75" y="520" type="line" smooth="yes"/>
      <point x="146" y="520" type="line" smooth="yes"/>
      <point x="179" y="638" type="line" smooth="yes"/>
      <point x="241" y="705" type="line" smooth="yes"/>
      <point x="336" y="727" type="line" smooth="yes"/>
      <point x="343" y="727" type="line" smooth="yes"/>
      <point x="431" y="708" type="line" smooth="yes"/>
      <point x="486" y="653" type="line" smooth="yes"/>
      <point x="498" y="570" type="line" smooth="yes"/>
      <point x="497" y="562" type="line" smooth="yes"/>
      <point x="481" y="506" type="line" smooth="yes"/>
      <point x="448" y="456" type="line" smooth="yes"/>
      <point x="396" y="403" type="line" smooth="yes"/>
      <point x="13" y="49" type="line" smooth="yes"/>
      <point x="7" y="0" type="line" smooth="yes"/>
      <point x="495" y="0" type="line" smooth="yes"/>
      <point x="504" y="66" type="line" smooth="yes"/>
    </contour>
  </outline>
</glyph>
<glyph name="three" format="1">
  <advance width="598"/>
  <unicode hex="0033"/>
  <outline>
    <contour>
      <point x="105" y="250" type="line" smooth="yes"/>
      <point x="34" y="250" type="line" smooth="yes"/>
      <point x="32" y="236" type="line" smooth="yes"/>
      <point x="44" y="107" type="line" smooth="yes"/>
      <point x="122" y="21" type="line" smooth="yes"/>
      <point x="266" y="-11" type="line" smooth="yes"/>
      <point x="392" y="17" type="line" smooth="yes"/>
      <point x="483" y="92" type="line" smooth="yes"/>
      <point x="526" y="202" type="line" smooth="yes"/>
      <point x="527" y="210" type="line" smooth="yes"/>
      <point x="521" y="297" type="line" smooth="yes"/>
      <point x="483" y="361" type="line" smooth="yes"/>
      <point x="418" y="397" type="line" smooth="yes"/>
      <point x="489" y="430" type="line" smooth="yes"/>
      <point x="543" y="489" type="line" smooth="yes"/>
      <point x="570" y="571" type="line" smooth="yes"/>
      <point x="571" y="579" type="line" smooth="yes"/>
      <point x="554" y="688" type="line" smooth="yes"/>
      <point x="476" y="763" type="line" smooth="yes"/>
      <point x="342" y="791" type="line" smooth="yes"/>
      <point x="204" y="761" type="line" smooth="yes"/>
      <point x="119" y="675" type="line" smooth="yes"/>
      <point x="78" y="542" type="line" smooth="yes"/>
      <point x="75" y="520" type="line" smooth="yes"/>
      <point x="146" y="520" type="line" smooth="yes"/>
      <point x="178" y="638" type="line" smooth="yes"/>
      <point x="240" y="705" type="line" smooth="yes"/>
      <point x="336" y="727" type="line" smooth="yes"/>
      <point x="343" y="727" type="line" smooth="yes"/>
      <point x="430" y="709" type="line" smooth="yes"/>
      <point x="485" y="657" type="line" smooth="yes"/>
      <point x="498" y="577" type="line" smooth="yes"/>
      <point x="497" y="569" type="line" smooth="yes"/>
      <point x="466" y="489" type="line" smooth="yes"/>
      <point x="402" y="444" type="line" smooth="yes"/>
      <point x="316" y="430" type="line" smooth="yes"/>
      <point x="207" y="430" type="line" smooth="yes"/>
      <point x="198" y="366" type="line" smooth="yes"/>
      <point x="312" y="366" type="line" smooth="yes"/>
      <point x="394" y="349" type="line" smooth="yes"/>
      <point x="444" y="298" type="line" smooth="yes"/>
      <point x="454" y="214" type="line" smooth="yes"/>
      <point x="453" y="206" type="line" smooth="yes"/>
      <point x="419" y="121" type="line" smooth="yes"/>
      <point x="353" y="70" type="line" smooth="yes"/>
      <point x="268" y="53" type="line" smooth="yes"/>
      <point x="262" y="53" type="line" smooth="yes"/>
      <point x="166" y="74" type="line" smooth="yes"/>
      <point x="110" y="138" type="line" smooth="yes"/>
    </contour>
  </outline>
</glyph>
<glyph name="five" format="1">
  <advance width="600"/>
  <unicode hex="0035"/>
  <outline>
    <contour>
      <point x="34" y="250" type="line" smooth="yes"/>
      <point x="32" y="236" type="line" smooth="yes"/>
      <point x="44" y="107" type="line" smooth="yes"/>
      <point x="122" y="21" type="line" smooth="yes"/>
      <point x="266" y="-11" type="line" smooth="yes"/>
      <point x="392" y="17" type="line" smooth="yes"/>
      <point x="485" y="99" type="line" smooth="yes"/>
      <point x="531" y="234" type="line" smooth="yes"/>
      <point x="532" y="242" type="line" smooth="yes"/>
      <point x="515" y="378" type="line" smooth="yes"/>
      <point x="436" y="464" type="line" smooth="yes"/>
      <point x="311" y="494" type="line" smooth="yes"/>
      <point x="238" y="486" type="line" smooth="yes"/>
      <point x="176" y="462" type="line" smooth="yes"/>
      <point x="133" y="428" type="line" smooth="yes"/>
      <point x="183" y="714" type="line" smooth="yes"/>
      <point x="584" y="714" type="line" smooth="yes"/>
      <point x="592" y="780" type="line" smooth="yes"/>
      <point x="129" y="780" type="line" smooth="yes"/>
      <point x="53" y="347" type="line" smooth="yes"/>
      <point x="111" y="328" type="line" smooth="yes"/>
      <point x="159" y="386" type="line" smooth="yes"/>
      <point x="223" y="420" type="line" smooth="yes"/>
      <point x="295" y="430" type="line" smooth="yes"/>
      <point x="304" y="430" type="line" smooth="yes"/>
      <point x="391" y="409" type="line" smooth="yes"/>
      <point x="448" y="347" type="line" smooth="yes"/>
      <point x="460" y="242" type="line" smooth="yes"/>
      <point x="459" y="234" type="line" smooth="yes"/>
      <point x="423" y="131" type="line" smooth="yes"/>
      <point x="356" y="72" type="line" smooth="yes"/>
      <point x="268" y="53" type="line" smooth="yes"/>
      <point x="262" y="53" type="line" smooth="yes"/>
      <point x="166" y="74" type="line" smooth="yes"/>
      <point x="110" y="138" type="line" smooth="yes"/>
      <point x="105" y="250" type="line" smooth="yes"/>
    </contour>
  </outline>
</glyph>
<glyph name="six" format="1">
  <advance width="600"/>
  <unicode hex="0036"/>
  <outline>
    <contour>
      <point x="312" y="425" type="line" smooth="yes"/>
      <point x="400" y="403" type="line" smooth="yes"/>
      <point x="453" y="340" type="line" smooth="yes"/>
      <point x="463" y="241" type="line" smooth="yes"/>
      <point x="462" y="233" type="line" smooth="yes"/>
      <point x="430" y="136" type="line" smooth="yes"/>
      <point x="366" y="76" type="line" smooth="yes"/>
      <point x="273" y="55" type="line" smooth="yes"/>
      <point x="267" y="55" type="line" smooth="yes"/>
      <point x="179" y="77" type="line" smooth="yes"/>
      <point x="122" y="145" type="line" smooth="yes"/>
      <point x="112" y="266" type="line" smooth="yes"/>
      <point x="116" y="294" type="line" smooth="yes"/>
      <point x="120" y="312" type="line" smooth="yes"/>
      <point x="121" y="319" type="line" smooth="yes"/>
      <point x="170" y="374" type="line" smooth="yes"/>
      <point x="232" y="412" type="line" smooth="yes"/>
      <point x="307" y="425" type="line" smooth="yes"/>
    </contour>
    <contour>
      <point x="572" y="791" type="line" smooth="yes"/>
      <point x="445" y="774" type="line" smooth="yes"/>
      <point x="321" y="729" type="line" smooth="yes"/>
      <point x="202" y="640" type="line" smooth="yes"/>
      <point x="120" y="530" type="line" smooth="yes"/>
      <point x="69" y="409" type="line" smooth="yes"/>
      <point x="43" y="289" type="line" smooth="yes"/>
      <point x="41" y="275" type="line" smooth="yes"/>
      <point x="54" y="122" type="line" smooth="yes"/>
      <point x="135" y="24" type="line" smooth="yes"/>
      <point x="269" y="-11" type="line" smooth="yes"/>
      <point x="397" y="16" type="line" smooth="yes"/>
      <point x="489" y="98" type="line" smooth="yes"/>
      <point x="535" y="235" type="line" smooth="yes"/>
      <point x="536" y="243" type="line" smooth="yes"/>
      <point x="521" y="380" type="line" smooth="yes"/>
      <point x="444" y="462" type="line" smooth="yes"/>
      <point x="320" y="490" type="line" smooth="yes"/>
      <point x="251" y="479" type="line" smooth="yes"/>
      <point x="187" y="450" type="line" smooth="yes"/>
      <point x="139" y="408" type="line" smooth="yes"/>
      <point x="163" y="472" type="line" smooth="yes"/>
      <point x="202" y="537" type="line" smooth="yes"/>
      <point x="254" y="597" type="line" smooth="yes"/>
      <point x="355" y="670" type="line" smooth="yes"/>
      <point x="459" y="708" type="line" smooth="yes"/>
      <point x="563" y="725" type="line" smooth="yes"/>
    </contour>
  </outline>
</glyph>
<glyph name="eight" format="1">
  <advance width="598"/>
  <unicode hex="0038"/>
  <outline>
    <contour>
      <point x="343" y="727" type="line" smooth="yes"/>
      <point x="430" y="709" type="line" smooth="yes"/>
      <point x="485" y="657" type="line" smooth="yes"/>
      <point x="498" y="577" type="line" smooth="yes"/>
      <point x="497" y="569" type="line" smooth="yes"/>
      <point x="466" y="489" type="line" smooth="yes"/>
      <point x="402" y="444" type="line" smooth="yes"/>
      <point x="316" y="430" type="line" smooth="yes"/>
      <point x="296" y="430" type="line" smooth="yes"/>
      <point x="217" y="446" type="line" smooth="yes"/>
      <point x="166" y="495" type="line" smooth="yes"/>
      <point x="154" y="573" type="line" smooth="yes"/>
      <point x="155" y="581" type="line" smooth="yes"/>
      <point x="185" y="661" type="line" smooth="yes"/>
      <point x="246" y="710" type="line" smooth="yes"/>
      <point x="336" y="727" type="line" smooth="yes"/>
    </contour>
    <contour>
      <point x="311" y="366" type="line" smooth="yes"/>
      <point x="393" y="349" type="line" smooth="yes"/>
      <point x="444" y="298" type="line" smooth="yes"/>
      <point x="454" y="214" type="line" smooth="yes"/>
      <point x="453" y="206" type="line" smooth="yes"/>
      <point x="422" y="121" type="line" smooth="yes"/>
      <point x="359" y="70" type="line" smooth="yes"/>
      <point x="268" y="53" type="line" smooth="yes"/>
      <point x="262" y="53" type="line" smooth="yes"/>
      <point x="175" y="70" type="line" smooth="yes"/>
      <point x="117" y="121" type="line" smooth="yes"/>
      <point x="103" y="207" type="line" smooth="yes"/>
      <point x="104" y="215" type="line" smooth="yes"/>
      <point x="136" y="299" type="line" smooth="yes"/>
      <point x="200" y="349" type="line" smooth="yes"/>
      <point x="289" y="366" type="line" smooth="yes"/>
    </contour>
    <contour>
      <point x="262" y="-11" type="line" smooth="yes"/>
      <point x="391" y="17" type="line" smooth="yes"/>
      <point x="483" y="92" type="line" smooth="yes"/>
      <point x="526" y="202" type="line" smooth="yes"/>
      <point x="527" y="210" type="line" smooth="yes"/>
      <point x="521" y="297" type="line" smooth="yes"/>
      <point x="483" y="361" type="line" smooth="yes"/>
      <point x="418" y="397" type="line" smooth="yes"/>
      <point x="489" y="430" type="line" smooth="yes"/>
      <point x="543" y="489" type="line" smooth="yes"/>
      <point x="570" y="571" type="line" smooth="yes"/>
      <point x="571" y="579" type="line" smooth="yes"/>
      <point x="553" y="688" type="line" smooth="yes"/>
      <point x="474" y="763" type="line" smooth="yes"/>
      <point x="340" y="791" type="line" smooth="yes"/>
      <point x="206" y="765" type="line" smooth="yes"/>
      <point x="121" y="693" type="line" smooth="yes"/>
      <point x="83" y="585" type="line" smooth="yes"/>
      <point x="82" y="577" type="line" smooth="yes"/>
      <point x="91" y="494" type="line" smooth="yes"/>
      <point x="130" y="432" type="line" smooth="yes"/>
      <point x="188" y="399" type="line" smooth="yes"/>
      <point x="117" y="365" type="line" smooth="yes"/>
      <point x="61" y="306" type="line" smooth="yes"/>
      <point x="31" y="212" type="line" smooth="yes"/>
      <point x="30" y="204" type="line" smooth="yes"/>
      <point x="49" y="91" type="line" smooth="yes"/>
      <point x="131" y="16" type="line" smooth="yes"/>
    </contour>
  </outline>
</glyph>
<glyph name="nine" format="1">
  <advance width="596"/>
  <unicode hex="0039"/>
  <outline>
    <contour>
      <point x="292" y="355" type="line" smooth="yes"/>
      <point x="204" y="377" type="line" smooth="yes"/>
      <point x="151" y="440" type="line" smooth="yes"/>
      <point x="141" y="539" type="line" smooth="yes"/>
      <point x="142" y="547" type="line" smooth="yes"/>
      <point x="174" y="644" type="line" smooth="yes"/>
      <point x="238" y="704" type="line" smooth="yes"/>
      <point x="331" y="725" type="line" smooth="yes"/>
      <point x="337" y="725" type="line" smooth="yes"/>
      <point x="425" y="703" type="line" smooth="yes"/>
      <point x="482" y="635" type="line" smooth="yes"/>
      <point x="492" y="514" type="line" smooth="yes"/>
      <point x="488" y="486" type="line" smooth="yes"/>
      <point x="484" y="468" type="line" smooth="yes"/>
      <point x="483" y="461" type="line" smooth="yes"/>
      <point x="434" y="406" type="line" smooth="yes"/>
      <point x="372" y="368" type="line" smooth="yes"/>
      <point x="297" y="355" type="line" smooth="yes"/>
    </contour>
    <contour>
      <point x="32" y="-11" type="line" smooth="yes"/>
      <point x="159" y="6" type="line" smooth="yes"/>
      <point x="283" y="51" type="line" smooth="yes"/>
      <point x="402" y="140" type="line" smooth="yes"/>
      <point x="484" y="250" type="line" smooth="yes"/>
      <point x="535" y="371" type="line" smooth="yes"/>
      <point x="561" y="491" type="line" smooth="yes"/>
      <point x="563" y="505" type="line" smooth="yes"/>
      <point x="550" y="658" type="line" smooth="yes"/>
      <point x="469" y="756" type="line" smooth="yes"/>
      <point x="335" y="791" type="line" smooth="yes"/>
      <point x="207" y="764" type="line" smooth="yes"/>
      <point x="115" y="682" type="line" smooth="yes"/>
      <point x="69" y="545" type="line" smooth="yes"/>
      <point x="68" y="537" type="line" smooth="yes"/>
      <point x="83" y="400" type="line" smooth="yes"/>
      <point x="160" y="318" type="line" smooth="yes"/>
      <point x="284" y="290" type="line" smooth="yes"/>
      <point x="353" y="301" type="line" smooth="yes"/>
      <point x="417" y="330" type="line" smooth="yes"/>
      <point x="465" y="372" type="line" smooth="yes"/>
      <point x="441" y="308" type="line" smooth="yes"/>
      <point x="402" y="243" type="line" smooth="yes"/>
      <point x="350" y="183" type="line" smooth="yes"/>
      <point x="249" y="110" type="line" smooth="yes"/>
      <point x="145" y="72" type="line" smooth="yes"/>
      <point x="41" y="55" type="line" smooth="yes"/>
    </contour>
  </outline>
</glyph>
<glyph name="colon" format="1">
  <advance width="217"/>
  <unicode hex="003A"/>
  <outline>
    <contour>
      <point x="161" y="435" type="line" smooth="yes"/>
      <point x="71" y="435" type="line" smooth="yes"/>
      <point x="59" y="345" type="line" smooth="yes"/>
      <point x="149" y="345" type="line" smooth="yes"/>
    </contour>
    <contour>
      <point x="116" y="90" type="line" smooth="yes"/>
      <point x="26" y="90" type="line" smooth="yes"/>
      <point x="14" y="0" type="line" smooth="yes"/>
      <point x="104" y="0" type="line" smooth="yes"/>
    </contour>
  </outline>
</glyph>
<glyph name="equal" format="1">
  <advance width="600"/>
  <unicode hex="003D"/>
  <outline>
    <contour>
      <point x="29" y="255" type="line" smooth="yes"/>
      <point x="534" y="255" type="line" smooth="yes"/>
      <point x="543" y="321" type="line" smooth="yes"/>
      <point x="38" y="321" type="line" smooth="yes"/>
    </contour>
    <contour>
      <point x="59" y="459" type="line" smooth="yes"/>
      <point x="564" y="459" type="line" smooth="yes"/>
      <point x="573" y="525" type="line" smooth="yes"/>
      <point x="68" y="525" type="line" smooth="yes"/>
    </contour>
  </outline>
</glyph>
<glyph name="question" format="1">
  <advance width="455"/>
  <unicode hex="003F"/>
  <outline>
    <contour>
      <point x="234" y="90" type="line" smooth="yes"/>
      <point x="144" y="90" type="line" smooth="yes"/>
      <point x="132" y="0" type="line" smooth="yes"/>
      <point x="222" y="0" type="line" smooth="yes"/>
    </contour>
    <contour>
      <point x="273" y="726" type="line" smooth="yes"/>
      <point x="337" y="713" type="line" smooth="yes"/>
      <point x="372" y="675" type="line" smooth="yes"/>
      <point x="383" y="613" type="line" smooth="yes"/>
      <point x="334" y="470" type="line" smooth="yes"/>
      <point x="239" y="354" type="line" smooth="yes"/>
      <point x="179" y="189" type="line" smooth="yes"/>
      <point x="226" y="189" type="line" smooth="yes"/>
      <point x="301" y="344" type="line" smooth="yes"/>
      <point x="405" y="454" type="line" smooth="yes"/>
      <point x="457" y="618" type="line" smooth="yes"/>
      <point x="439" y="710" type="line" smooth="yes"/>
      <point x="380" y="770" type="line" smooth="yes"/>
      <point x="275" y="791" type="line" smooth="yes"/>
      <point x="152" y="758" type="line" smooth="yes"/>
      <point x="81" y="664" type="line" smooth="yes"/>
      <point x="45" y="518" type="line" smooth="yes"/>
      <point x="43" y="504" type="line" smooth="yes"/>
      <point x="114" y="504" type="line" smooth="yes"/>
      <point x="139" y="622" type="line" smooth="yes"/>
      <point x="189" y="699" type="line" smooth="yes"/>
    </contour>
  </outline>
</glyph>
<glyph name="at" format="1">
  <advance width="956"/>
  <unicode hex="0040"/>
  <outline>
    <contour>
      <point x="601" y="401" type="line" smooth="yes"/>
      <point x="573" y="189" type="line" smooth="yes"/>
      <point x="538" y="153" type="line" smooth="yes"/>
      <point x="487" y="122" type="line" smooth="yes"/>
      <point x="421" y="109" type="line" smooth="yes"/>
      <point x="348" y="132" type="line" smooth="yes"/>
      <point x="313" y="196" type="line" smooth="yes"/>
      <point x="311" y="287" type="line" smooth="yes"/>
      <point x="314" y="309" type="line" smooth="yes"/>
      <point x="341" y="398" type="line" smooth="yes"/>
      <point x="394" y="458" type="line" smooth="yes"/>
      <point x="473" y="481" type="line" smooth="yes"/>
      <point x="535" y="468" type="line" smooth="yes"/>
      <point x="576" y="437" type="line" smooth="yes"/>
    </contour>
    <contour>
      <point x="435" y="-156" type="line" smooth="yes"/>
      <point x="227" y="-107" type="line" smooth="yes"/>
      <point x="100" y="36" type="line" smooth="yes"/>
      <point x="76" y="270" type="line" smooth="yes"/>
      <point x="81" y="310" type="line" smooth="yes"/>
      <point x="161" y="540" type="line" smooth="yes"/>
      <point x="322" y="685" type="line" smooth="yes"/>
      <point x="540" y="736" type="line" smooth="yes"/>
      <point x="550" y="736" type="line" smooth="yes"/>
      <point x="724" y="703" type="line" smooth="yes"/>
      <point x="844" y="594" type="line" smooth="yes"/>
      <point x="872" y="394" type="line" smooth="yes"/>
      <point x="867" y="354" type="line" smooth="yes"/>
      <point x="821" y="201" type="line" smooth="yes"/>
      <point x="740" y="132" type="line" smooth="yes"/>
      <point x="629" y="114" type="line" smooth="yes"/>
      <point x="664" y="380" type="line" smooth="yes"/>
      <point x="689" y="530" type="line" smooth="yes"/>
      <point x="635" y="530" type="line" smooth="yes"/>
      <point x="617" y="457" type="line" smooth="yes"/>
      <point x="588" y="499" type="line" smooth="yes"/>
      <point x="540" y="529" type="line" smooth="yes"/>
      <point x="475" y="541" type="line" smooth="yes"/>
      <point x="356" y="507" type="line" smooth="yes"/>
      <point x="280" y="422" type="line" smooth="yes"/>
      <point x="245" y="307" type="line" smooth="yes"/>
      <point x="242" y="285" type="line" smooth="yes"/>
      <point x="246" y="170" type="line" smooth="yes"/>
      <point x="300" y="83" type="line" smooth="yes"/>
      <point x="412" y="49" type="line" smooth="yes"/>
      <point x="479" y="61" type="line" smooth="yes"/>
      <point x="532" y="90" type="line" smooth="yes"/>
      <point x="572" y="132" type="line" smooth="yes"/>
      <point x="573" y="60" type="line" smooth="yes"/>
      <point x="619" y="60" type="line" smooth="yes"/>
      <point x="760" y="83" type="line" smooth="yes"/>
      <point x="866" y="171" type="line" smooth="yes"/>
      <point x="924" y="354" type="line" smooth="yes"/>
      <point x="929" y="394" type="line" smooth="yes"/>
      <point x="897" y="619" type="line" smooth="yes"/>
      <point x="757" y="749" type="line" smooth="yes"/>
      <point x="545" y="791" type="line" smooth="yes"/>
      <point x="297" y="734" type="line" smooth="yes"/>
      <point x="115" y="569" type="line" smooth="yes"/>
      <point x="24" y="310" type="line" smooth="yes"/>
      <point x="19" y="270" type="line" smooth="yes"/>
      <point x="47" y="11" type="line" smooth="yes"/>
      <point x="194" y="-154" type="line" smooth="yes"/>
      <point x="440" y="-211" type="line" smooth="yes"/>
      <point x="564" y="-200" type="line" smooth="yes"/>
      <point x="694" y="-162" type="line" smooth="yes"/>
      <point x="810" y="-93" type="line" smooth="yes"/>
      <point x="779" y="-50" type="line" smooth="yes"/>
      <point x="682" y="-106" type="line" smooth="yes"/>
      <point x="567" y="-143" type="line" smooth="yes"/>
      <point x="445" y="-156" type="line" smooth="yes"/>
    </contour>
  </outline>
</glyph>
<glyph name="B" format="1">
  <advance width="583"/>
  <unicode hex="0042"/>
  <outline>
    <contour>
      <point x="326" y="715" type="line" smooth="yes"/>
      <point x="403" y="702" type="line" smooth="yes"/>
      <point x="451" y="660" type="line" smooth="yes"/>
      <point x="462" y="582" type="line" smooth="yes"/>
      <point x="460" y="566" type="line" smooth="yes"/>
      <point x="430" y="488" type="line" smooth="yes"/>
      <point x="370" y="446" type="line" smooth="yes"/>
      <point x="288" y="433" type="line" smooth="yes"/>
      <point x="154" y="433" type="line" smooth="yes"/>
      <point x="191" y="715" type="line" smooth="yes"/>
    </contour>
    <contour>
      <point x="300" y="368" type="line" smooth="yes"/>
      <point x="375" y="352" type="line" smooth="yes"/>
      <point x="424" y="304" type="line" smooth="yes"/>
      <point x="435" y="220" type="line" smooth="yes"/>
      <point x="433" y="204" type="line" smooth="yes"/>
      <point x="402" y="123" type="line" smooth="yes"/>
      <point x="339" y="78" type="line" smooth="yes"/>
      <point x="252" y="65" type="line" smooth="yes"/>
      <point x="105" y="65" type="line" smooth="yes"/>
      <point x="145" y="368" type="line" smooth="yes"/>
    </contour>
    <contour>
      <point x="127" y="780" type="line" smooth="yes"/>
      <point x="25" y="0" type="line" smooth="yes"/>
      <point x="244" y="0" type="line" smooth="yes"/>
      <point x="371" y="19" type="line" smooth="yes"/>
      <point x="462" y="84" type="line" smooth="yes"/>
      <point x="507" y="202" type="line" smooth="yes"/>
      <point x="509" y="218" type="line" smooth="yes"/>
      <point x="501" y="307" type="line" smooth="yes"/>
      <point x="459" y="370" type="line" smooth="yes"/>
      <point x="395" y="401" type="line" smooth="yes"/>
      <point x="460" y="431" type="line" smooth="yes"/>
      <point x="509" y="486" type="line" smooth="yes"/>
      <point x="534" y="564" type="line" smooth="yes"/>
      <point x="536" y="580" type="line" smooth="yes"/>
      <point x="520" y="695" type="line" smooth="yes"/>
      <point x="446" y="760" type="line" smooth="yes"/>
      <point x="331" y="780" type="line" smooth="yes"/>
    </contour>
  </outline>
</glyph>
<glyph name="D" format="1">
  <advance width="632"/>
  <unicode hex="0044"/>
  <outline>
    <contour>
      <point x="105" y="65" type="line" smooth="yes"/>
      <point x="191" y="715" type="line" smooth="yes"/>
      <point x="317" y="715" type="line" smooth="yes"/>
      <point x="439" y="685" type="line" smooth="yes"/>
      <point x="506" y="588" type="line" smooth="yes"/>
      <point x="512" y="410" type="line" smooth="yes"/>
      <point x="507" y="370" type="line" smooth="yes"/>
      <point x="457" y="196" type="line" smooth="yes"/>
      <point x="363" y="97" type="line" smooth="yes"/>
      <point x="231" y="65" type="line" smooth="yes"/>
    </contour>
    <contour>
      <point x="586" y="410" type="line" smooth="yes"/>
      <point x="575" y="626" type="line" smooth="yes"/>
      <point x="484" y="744" type="line" smooth="yes"/>
      <point x="324" y="780" type="line" smooth="yes"/>
      <point x="127" y="780" type="line" smooth="yes"/>
      <point x="25" y="0" type="line" smooth="yes"/>
      <point x="229" y="0" type="line" smooth="yes"/>
      <point x="397" y="37" type="line" smooth="yes"/>
      <point x="517" y="157" type="line" smooth="yes"/>
      <point x="581" y="370" type="line" smooth="yes"/>
    </contour>
  </outline>
</glyph>
<glyph name="Q" format="1">
  <advance width="641"/>
  <unicode hex="0051"/>
  <outline>
    <contour>
      <point x="278" y="54" type="line" smooth="yes"/>
      <point x="175" y="87" type="line" smooth="yes"/>
      <point x="127" y="189" type="line" smooth="yes"/>
      <point x="130" y="370" type="line" smooth="yes"/>
      <point x="135" y="410" type="line" smooth="yes"/>
      <point x="178" y="591" type="line" smooth="yes"/>
      <point x="255" y="693" type="line" smooth="yes"/>
      <point x="367" y="726" type="line" smooth="yes"/>
      <point x="374" y="726" type="line" smooth="yes"/>
      <point x="477" y="693" type="line" smooth="yes"/>
      <point x="525" y="591" type="line" smooth="yes"/>
      <point x="522" y="410" type="line" smooth="yes"/>
      <point x="517" y="370" type="line" smooth="yes"/>
      <point x="487" y="227" type="line" smooth="yes"/>
      <point x="439" y="128" type="line" smooth="yes"/>
      <point x="372" y="72" type="line" smooth="yes"/>
      <point x="333" y="226" type="line" smooth="yes"/>
      <point x="271" y="226" type="line" smooth="yes"/>
      <point x="312" y="55" type="line" smooth="yes"/>
      <point x="303" y="54" type="line" smooth="yes"/>
      <point x="294" y="54" type="line" smooth="yes"/>
      <point x="285" y="54" type="line" smooth="yes"/>
    </contour>
    <contour>
      <point x="372" y="791" type="line" smooth="yes"/>
      <point x="220" y="752" type="line" smooth="yes"/>
      <point x="117" y="629" type="line" smooth="yes"/>
      <point x="61" y="410" type="line" smooth="yes"/>
      <point x="56" y="370" type="line" smooth="yes"/>
      <point x="59" y="151" type="line" smooth="yes"/>
      <point x="135" y="28" type="line" smooth="yes"/>
      <point x="280" y="-11" type="line" smooth="yes"/>
      <point x="296" y="-11" type="line" smooth="yes"/>
      <point x="312" y="-10" type="line" smooth="yes"/>
      <point x="328" y="-8" type="line" smooth="yes"/>
      <point x="350" y="-100" type="line" smooth="yes"/>
      <point x="416" y="-100" type="line" smooth="yes"/>
      <point x="388" y="6" type="line" smooth="yes"/>
      <point x="484" y="72" type="line" smooth="yes"/>
      <point x="551" y="191" type="line" smooth="yes"/>
      <point x="591" y="370" type="line" smooth="yes"/>
      <point x="596" y="410" type="line" smooth="yes"/>
      <point x="593" y="629" type="line" smooth="yes"/>
      <point x="517" y="752" type="line" smooth="yes"/>
    </contour>
  </outline>
</glyph>
<glyph name="R" format="1">
  <advance width="580"/>
  <unicode hex="0052"/>
  <outline>
    <contour>
      <point x="147" y="382" type="line" smooth="yes"/>
      <point x="190" y="715" type="line" smooth="yes"/>
      <point x="335" y="715" type="line" smooth="yes"/>
      <point x="406" y="703" type="line" smooth="yes"/>
      <point x="465" y="655" type="line" smooth="yes"/>
      <point x="479" y="553" type="line" smooth="yes"/>
      <point x="477" y="538" type="line" smooth="yes"/>
      <point x="437" y="438" type="line" smooth="yes"/>
      <point x="369" y="393" type="line" smooth="yes"/>
      <point x="296" y="382" type="line" smooth="yes"/>
    </contour>
    <contour>
      <point x="138" y="317" type="line" smooth="yes"/>
      <point x="285" y="317" type="line" smooth="yes"/>
      <point x="296" y="317" type="line" smooth="yes"/>
      <point x="307" y="317" type="line" smooth="yes"/>
      <point x="318" y="318" type="line" smooth="yes"/>
      <point x="401" y="0" type="line" smooth="yes"/>
      <point x="480" y="0" type="line" smooth="yes"/>
      <point x="388" y="331" type="line" smooth="yes"/>
      <point x="460" y="367" type="line" smooth="yes"/>
      <point x="516" y="432" type="line" smooth="yes"/>
      <point x="550" y="534" type="line" smooth="yes"/>
      <point x="553" y="554" type="line" smooth="yes"/>
      <point x="535" y="693" type="line" smooth="yes"/>
      <point x="451" y="761" type="line" smooth="yes"/>
      <point x="341" y="780" type="line" smooth="yes"/>
      <point x="127" y="780" type="line" smooth="yes"/>
      <point x="25" y="0" type="line" smooth="yes"/>
      <point x="97" y="0" type="line" smooth="yes"/>
    </contour>
  </outline>
</glyph>
<glyph name="T" format="1">
  <advance width="515"/>
  <unicode hex="0054"/>
  <outline>
    <contour>
      <point x="338" y="715" type="line" smooth="yes"/>
      <point x="537" y="715" type="line" smooth="yes"/>
      <point x="545" y="780" type="line" smooth="yes"/>
      <point x="76" y="780" type="line" smooth="yes"/>
      <point x="68" y="715" type="line" smooth="yes"/>
      <point x="266" y="715" type="line" smooth="yes"/>
      <point x="172" y="0" type="line" smooth="yes"/>
      <point x="244" y="0" type="line" smooth="yes"/>
    </contour>
  </outline>
</glyph>
<glyph name="Z" format="1">
  <advance width="563"/>
  <unicode hex="005A"/>
  <outline>
    <contour>
      <point x="-4" y="50" type="line" smooth="yes"/>
      <point x="-10" y="0" type="line" smooth="yes"/>
      <point x="473" y="0" type="line" smooth="yes"/>
      <point x="481" y="65" type="line" smooth="yes"/>
      <point x="210" y="65" type="line" smooth="yes"/>
      <point x="84" y="62" type="line" smooth="yes"/>
      <point x="559" y="730" type="line" smooth="yes"/>
      <point x="565" y="780" type="line" smooth="yes"/>
      <point x="102" y="780" type="line" smooth="yes"/>
      <point x="94" y="715" type="line" smooth="yes"/>
      <point x="345" y="715" type="line" smooth="yes"/>
      <point x="471" y="718" type="line" smooth="yes"/>
    </contour>
  </outline>
</glyph>
<glyph name="backslash" format="1">
  <advance width="329"/>
  <unicode hex="005C"/>
  <outline>
    <contour>
      <point x="181" y="-120" type="line" smooth="yes"/>
      <point x="249" y="-120" type="line" smooth="yes"/>
      <point x="145" y="840" type="line" smooth="yes"/>
      <point x="77" y="840" type="line" smooth="yes"/>
    </contour>
  </outline>
</glyph>
<glyph name="bracketright" format="1">
  <advance width="317"/>
  <unicode hex="005D"/>
  <outline>
    <contour>
      <point x="185" y="-120" type="line" smooth="yes"/>
      <point x="311" y="840" type="line" smooth="yes"/>
      <point x="103" y="840" type="line" smooth="yes"/>
      <point x="95" y="775" type="line" smooth="yes"/>
      <point x="232" y="775" type="line" smooth="yes"/>
      <point x="123" y="-55" type="line" smooth="yes"/>
      <point x="-15" y="-55" type="line" smooth="yes"/>
      <point x="-23" y="-120" type="line" smooth="yes"/>
    </contour>
  </outline>
</glyph>
<glyph name="grave" format="1">
  <advance width="500"/>
  <unicode hex="0060"/>
  <outline>
    <contour>
      <point x="173" y="780" type="line" smooth="yes"/>
      <point x="245" y="614" type="line" smooth="yes"/>
      <point x="317" y="614" type="line" smooth="yes"/>
      <point x="249" y="780" type="line" smooth="yes"/>
    </contour>
  </outline>
</glyph>
<glyph name="m" format="1">
  <advance width="803"/>
  <unicode hex="006D"/>
  <outline>
    <contour>
      <point x="696" y="0" type="line" smooth="yes"/>
      <point x="746" y="384" type="line" smooth="yes"/>
      <point x="737" y="470" type="line" smooth="yes"/>
      <point x="688" y="523" type="line" smooth="yes"/>
      <point x="607" y="541" type="line" smooth="yes"/>
      <point x="539" y="529" type="line" smooth="yes"/>
      <point x="482" y="497" type="line" smooth="yes"/>
      <point x="438" y="453" type="line" smooth="yes"/>
      <point x="415" y="499" type="line" smooth="yes"/>
      <point x="369" y="530" type="line" smooth="yes"/>
      <point x="302" y="541" type="line" smooth="yes"/>
      <point x="235" y="530" type="line" smooth="yes"/>
      <point x="180" y="500" type="line" smooth="yes"/>
      <point x="140" y="459" type="line" smooth="yes"/>
      <point x="140" y="530" type="line" smooth="yes"/>
      <point x="80" y="530" type="line" smooth="yes"/>
      <point x="67" y="386" type="line" smooth="yes"/>
      <point x="16" y="0" type="line" smooth="yes"/>
      <point x="86" y="0" type="line" smooth="yes"/>
      <point x="138" y="398" type="line" smooth="yes"/>
      <point x="171" y="434" type="line" smooth="yes"/>
      <point x="218" y="465" type="line" smooth="yes"/>
      <point x="278" y="478" type="line" smooth="yes"/>
      <point x="333" y="468" type="line" smooth="yes"/>
      <point x="365" y="435" type="line" smooth="yes"/>
      <point x="370" y="374" type="line" smooth="yes"/>
      <point x="321" y="0" type="line" smooth="yes"/>
      <point x="391" y="0" type="line" smooth="yes"/>
      <point x="443" y="398" type="line" smooth="yes"/>
      <point x="476" y="434" type="line" smooth="yes"/>
      <point x="523" y="465" type="line" smooth="yes"/>
      <point x="583" y="478" type="line" smooth="yes"/>
      <point x="638" y="468" type="line" smooth="yes"/>
      <point x="670" y="435" type="line" smooth="yes"/>
      <point x="675" y="374" type="line" smooth="yes"/>
      <point x="626" y="0" type="line" smooth="yes"/>
    </contour>
  </outline>
</glyph>
<glyph name="q" format="1">
  <advance width="539"/>
  <unicode hex="0071"/>
  <outline>
    <contour>
      <point x="370" y="129" type="line" smooth="yes"/>
      <point x="335" y="91" type="line" smooth="yes"/>
      <point x="288" y="63" type="line" smooth="yes"/>
      <point x="228" y="52" type="line" smooth="yes"/>
      <point x="148" y="77" type="line" smooth="yes"/>
      <point x="106" y="147" type="line" smooth="yes"/>
      <point x="104" y="257" type="line" smooth="yes"/>
      <point x="107" y="279" type="line" smooth="yes"/>
      <point x="137" y="385" type="line" smooth="yes"/>
      <point x="194" y="454" type="line" smooth="yes"/>
      <point x="279" y="478" type="line" smooth="yes"/>
      <point x="339" y="464" type="line" smooth="yes"/>
      <point x="380" y="431" type="line" smooth="yes"/>
      <point x="405" y="392" type="line" smooth="yes"/>
    </contour>
    <contour>
      <point x="327" y="-200" type="line" smooth="yes"/>
      <point x="397" y="-200" type="line" smooth="yes"/>
      <point x="473" y="380" type="line" smooth="yes"/>
      <point x="498" y="530" type="line" smooth="yes"/>
      <point x="440" y="530" type="line" smooth="yes"/>
      <point x="421" y="453" type="line" smooth="yes"/>
      <point x="392" y="493" type="line" smooth="yes"/>
      <point x="341" y="527" type="line" smooth="yes"/>
      <point x="270" y="541" type="line" smooth="yes"/>
      <point x="150" y="507" type="line" smooth="yes"/>
      <point x="74" y="414" type="line" smooth="yes"/>
      <point x="36" y="277" type="line" smooth="yes"/>
      <point x="33" y="255" type="line" smooth="yes"/>
      <point x="38" y="119" type="line" smooth="yes"/>
      <point x="96" y="24" type="line" smooth="yes"/>
      <point x="211" y="-11" type="line" smooth="yes"/>
      <point x="272" y="-2" type="line" smooth="yes"/>
      <point x="323" y="22" type="line" smooth="yes"/>
      <point x="361" y="56" type="line" smooth="yes"/>
    </contour>
  </outline>
</glyph>
<glyph name="u" format="1">
  <advance width="528"/>
  <unicode hex="0075"/>
  <outline>
    <contour>
      <point x="82" y="530" type="line" smooth="yes"/>
      <point x="33" y="159" type="line" smooth="yes"/>
      <point x="41" y="70" type="line" smooth="yes"/>
      <point x="91" y="11" type="line" smooth="yes"/>
      <point x="184" y="-11" type="line" smooth="yes"/>
      <point x="255" y="-0" type="line" smooth="yes"/>
      <point x="314" y="29" type="line" smooth="yes"/>
      <point x="358" y="74" type="line" smooth="yes"/>
      <point x="358" y="0" type="line" smooth="yes"/>
      <point x="418" y="0" type="line" smooth="yes"/>
      <point x="431" y="144" type="line" smooth="yes"/>
      <point x="482" y="530" type="line" smooth="yes"/>
      <point x="412" y="530" type="line" smooth="yes"/>
      <point x="360" y="135" type="line" smooth="yes"/>
      <point x="327" y="98" type="line" smooth="yes"/>
      <point x="277" y="66" type="line" smooth="yes"/>
      <point x="208" y="52" type="line" smooth="yes"/>
      <point x="145" y="65" type="line" smooth="yes"/>
      <point x="109" y="103" type="line" smooth="yes"/>
      <point x="104" y="169" type="line" smooth="yes"/>
      <point x="152" y="530" type="line" smooth="yes"/>
    </contour>
  </outline>
</glyph>
<glyph name="v" format="1">
  <advance width="512"/>
  <unicode hex="0076"/>
  <outline>
    <contour>
      <point x="161" y="0" type="line" smooth="yes"/>
      <point x="253" y="0" type="line" smooth="yes"/>
      <point x="508" y="530" type="line" smooth="yes"/>
      <point x="431" y="530" type="line" smooth="yes"/>
      <point x="213" y="66" type="line" smooth="yes"/>
      <point x="118" y="530" type="line" smooth="yes"/>
      <point x="45" y="530" type="line" smooth="yes"/>
    </contour>
  </outline>
</glyph>
<glyph name="braceleft" format="1">
  <advance width="317"/>
  <unicode hex="007B"/>
  <outline>
    <contour>
      <point x="336" y="840" type="line" smooth="yes"/>
      <point x="318" y="840" type="line" smooth="yes"/>
      <point x="246" y="829" type="line" smooth="yes"/>
      <point x="186" y="787" type="line" smooth="yes"/>
      <point x="153" y="702" type="line" smooth="yes"/>
      <point x="124" y="481" type="line" smooth="yes"/>
      <point x="107" y="426" type="line" smooth="yes"/>
      <point x="75" y="400" type="line" smooth="yes"/>
      <point x="26" y="393" type="line" smooth="yes"/>
      <point x="18" y="327" type="line" smooth="yes"/>
      <point x="65" y="320" type="line" smooth="yes"/>
      <point x="90" y="294" type="line" smooth="yes"/>
      <point x="92" y="239" type="line" smooth="yes"/>
      <point x="64" y="24" type="line" smooth="yes"/>
      <point x="74" y="-62" type="line" smooth="yes"/>
      <point x="122" y="-107" type="line" smooth="yes"/>
      <point x="192" y="-120" type="line" smooth="yes"/>
      <point x="210" y="-120" type="line" smooth="yes"/>
      <point x="218" y="-55" type="line" smooth="yes"/>
      <point x="164" y="-47" type="line" smooth="yes"/>
      <point x="138" y="-16" type="line" smooth="yes"/>
      <point x="138" y="50" type="line" smooth="yes"/>
      <point x="165" y="257" type="line" smooth="yes"/>
      <point x="164" y="305" type="line" smooth="yes"/>
      <point x="148" y="338" type="line" smooth="yes"/>
      <point x="116" y="360" type="line" smooth="yes"/>
      <point x="153" y="381" type="line" smooth="yes"/>
      <point x="178" y="414" type="line" smooth="yes"/>
      <point x="192" y="462" type="line" smooth="yes"/>
      <point x="219" y="669" type="line" smooth="yes"/>
      <point x="237" y="734" type="line" smooth="yes"/>
      <point x="273" y="766" type="line" smooth="yes"/>
      <point x="328" y="775" type="line" smooth="yes"/>
    </contour>
  </outline>
</glyph>
<glyph name="braceright" format="1">
  <advance width="317"/>
  <unicode hex="007D"/>
  <outline>
    <contour>
      <point x="-23" y="-120" type="line" smooth="yes"/>
      <point x="-5" y="-120" type="line" smooth="yes"/>
      <point x="67" y="-109" type="line" smooth="yes"/>
      <point x="127" y="-67" type="line" smooth="yes"/>
      <point x="160" y="18" type="line" smooth="yes"/>
      <point x="189" y="239" type="line" smooth="yes"/>
      <point x="206" y="294" type="line" smooth="yes"/>
      <point x="238" y="320" type="line" smooth="yes"/>
      <point x="287" y="327" type="line" smooth="yes"/>
      <point x="295" y="393" type="line" smooth="yes"/>
      <point x="248" y="400" type="line" smooth="yes"/>
      <point x="223" y="426" type="line" smooth="yes"/>
      <point x="221" y="481" type="line" smooth="yes"/>
      <point x="249" y="696" type="line" smooth="yes"/>
      <point x="239" y="782" type="line" smooth="yes"/>
      <point x="191" y="827" type="line" smooth="yes"/>
      <point x="121" y="840" type="line" smooth="yes"/>
      <point x="103" y="840" type="line" smooth="yes"/>
      <point x="95" y="775" type="line" smooth="yes"/>
      <point x="149" y="767" type="line" smooth="yes"/>
      <point x="175" y="736" type="line" smooth="yes"/>
      <point x="175" y="670" type="line" smooth="yes"/>
      <point x="148" y="463" type="line" smooth="yes"/>
      <point x="149" y="415" type="line" smooth="yes"/>
      <point x="165" y="382" type="line" smooth="yes"/>
      <point x="197" y="360" type="line" smooth="yes"/>
      <point x="160" y="339" type="line" smooth="yes"/>
      <point x="135" y="306" type="line" smooth="yes"/>
      <point x="121" y="258" type="line" smooth="yes"/>
      <point x="94" y="51" type="line" smooth="yes"/>
      <point x="76" y="-14" type="line" smooth="yes"/>
      <point x="40" y="-46" type="line" smooth="yes"/>
      <point x="-15" y="-55" type="line" smooth="yes"/>
    </contour>
  </outline>
</glyph>
<glyph name="asciitilde" format="1">
  <advance width="600"/>
  <unicode hex="007E"/>
  <outline>
    <contour>
      <point x="180" y="451" type="line" smooth="yes"/>
      <point x="117" y="440" type="line" smooth="yes"/>
      <point x="69" y="411" type="line" smooth="yes"/>
      <point x="36" y="375" type="line" smooth="yes"/>
      <point x="74" y="335" type="line" smooth="yes"/>
      <point x="100" y="362" type="line" smooth="yes"/>
      <point x="134" y="383" type="line" smooth="yes"/>
      <point x="180" y="391" type="line" smooth="yes"/>
      <point x="259" y="373" type="line" smooth="yes"/>
      <point x="331" y="338" type="line" smooth="yes"/>
      <point x="422" y="320" type="line" smooth="yes"/>
      <point x="485" y="331" type="line" smooth="yes"/>
      <point x="533" y="360" type="line" smooth="yes"/>
      <point x="566" y="396" type="line" smooth="yes"/>
      <point x="528" y="436" type="line" smooth="yes"/>
      <point x="502" y="409" type="line" smooth="yes"/>
      <point x="468" y="388" type="line" smooth="yes"/>
      <point x="422" y="380" type="line" smooth="yes"/>
      <point x="343" y="398" type="line" smooth="yes"/>
      <point x="271" y="433" type="line" smooth="yes"/>
    </contour>
  </outline>
</glyph>
<glyph name="cent" format="1">
  <advance width="595"/>
  <unicode hex="00A2"/>
  <outline>
    <contour>
      <point x="140" y="410" type="line" smooth="yes"/>
      <point x="178" y="551" type="line" smooth="yes"/>
      <point x="249" y="634" type="line" smooth="yes"/>
      <point x="351" y="661" type="line" smooth="yes"/>
      <point x="354" y="661" type="line" smooth="yes"/>
      <point x="359" y="661" type="line" smooth="yes"/>
      <point x="365" y="660" type="line" smooth="yes"/>
      <point x="368" y="660" type="line" smooth="yes"/>
      <point x="180" y="152" type="line" smooth="yes"/>
      <point x="146" y="202" type="line" smooth="yes"/>
      <point x="131" y="274" type="line" smooth="yes"/>
      <point x="135" y="370" type="line" smooth="yes"/>
    </contour>
    <contour>
      <point x="496" y="840" type="line" smooth="yes"/>
      <point x="434" y="840" type="line" smooth="yes"/>
      <point x="391" y="725" type="line" smooth="yes"/>
      <point x="382" y="726" type="line" smooth="yes"/>
      <point x="369" y="727" type="line" smooth="yes"/>
      <point x="352" y="727" type="line" smooth="yes"/>
      <point x="213" y="691" type="line" smooth="yes"/>
      <point x="116" y="585" type="line" smooth="yes"/>
      <point x="66" y="410" type="line" smooth="yes"/>
      <point x="61" y="370" type="line" smooth="yes"/>
      <point x="59" y="239" type="line" smooth="yes"/>
      <point x="91" y="144" type="line" smooth="yes"/>
      <point x="154" y="82" type="line" smooth="yes"/>
      <point x="102" y="-60" type="line" smooth="yes"/>
      <point x="163" y="-60" type="line" smooth="yes"/>
      <point x="208" y="62" type="line" smooth="yes"/>
      <point x="228" y="58" type="line" smooth="yes"/>
      <point x="251" y="56" type="line" smooth="yes"/>
      <point x="280" y="55" type="line" smooth="yes"/>
      <point x="404" y="81" type="line" smooth="yes"/>
      <point x="485" y="154" type="line" smooth="yes"/>
      <point x="524" y="268" type="line" smooth="yes"/>
      <point x="526" y="282" type="line" smooth="yes"/>
      <point x="455" y="282" type="line" smooth="yes"/>
      <point x="429" y="195" type="line" smooth="yes"/>
      <point x="372" y="140" type="line" smooth="yes"/>
      <point x="282" y="120" type="line" smooth="yes"/>
      <point x="279" y="120" type="line" smooth="yes"/>
      <point x="262" y="120" type="line" smooth="yes"/>
      <point x="246" y="122" type="line" smooth="yes"/>
      <point x="231" y="125" type="line" smooth="yes"/>
      <point x="425" y="648" type="line" smooth="yes"/>
      <point x="466" y="613" type="line" smooth="yes"/>
      <point x="484" y="556" type="line" smooth="yes"/>
      <point x="481" y="477" type="line" smooth="yes"/>
      <point x="551" y="477" type="line" smooth="yes"/>
      <point x="553" y="490" type="line" smooth="yes"/>
      <point x="553" y="587" type="line" smooth="yes"/>
      <point x="519" y="665" type="line" smooth="yes"/>
      <point x="449" y="714" type="line" smooth="yes"/>
    </contour>
  </outline>
</glyph>
<glyph name="sterling" format="1">
  <advance width="595"/>
  <unicode hex="00A3"/>
  <outline>
    <contour>
      <point x="366" y="726" type="line" smooth="yes"/>
      <point x="457" y="696" type="line" smooth="yes"/>
      <point x="497" y="616" type="line" smooth="yes"/>
      <point x="494" y="500" type="line" smooth="yes"/>
      <point x="564" y="500" type="line" smooth="yes"/>
      <point x="568" y="529" type="line" smooth="yes"/>
      <point x="563" y="666" type="line" smooth="yes"/>
      <point x="499" y="758" type="line" smooth="yes"/>
      <point x="366" y="791" type="line" smooth="yes"/>
      <point x="232" y="755" type="line" smooth="yes"/>
      <point x="159" y="658" type="line" smooth="yes"/>
      <point x="137" y="517" type="line" smooth="yes"/>
      <point x="138" y="474" type="line" smooth="yes"/>
      <point x="139" y="442" type="line" smooth="yes"/>
      <point x="141" y="416" type="line" smooth="yes"/>
      <point x="61" y="416" type="line" smooth="yes"/>
      <point x="52" y="351" type="line" smooth="yes"/>
      <point x="152" y="351" type="line" smooth="yes"/>
      <point x="166" y="259" type="line" smooth="yes"/>
      <point x="178" y="165" type="line" smooth="yes"/>
      <point x="180" y="66" type="line" smooth="yes"/>
      <point x="15" y="66" type="line" smooth="yes"/>
      <point x="7" y="0" type="line" smooth="yes"/>
      <point x="495" y="0" type="line" smooth="yes"/>
      <point x="504" y="66" type="line" smooth="yes"/>
      <point x="244" y="66" type="line" smooth="yes"/>
      <point x="245" y="163" type="line" smooth="yes"/>
      <point x="237" y="258" type="line" smooth="yes"/>
      <point x="226" y="351" type="line" smooth="yes"/>
      <point x="409" y="351" type="line" smooth="yes"/>
      <point x="418" y="416" type="line" smooth="yes"/>
      <point x="218" y="416" type="line" smooth="yes"/>
      <point x="214" y="449" type="line" smooth="yes"/>
      <point x="212" y="481" type="line" smooth="yes"/>
      <point x="211" y="509" type="line" smooth="yes"/>
      <point x="226" y="623" type="line" smooth="yes"/>
      <point x="275" y="699" type="line" smooth="yes"/>
    </contour>
  </outline>
</glyph>
<glyph name="yen" format="1">
  <advance width="600"/>
  <unicode hex="00A5"/>
  <outline>
    <contour>
      <point x="49" y="414" type="line" smooth="yes"/>
      <point x="192" y="414" type="line" smooth="yes"/>
      <point x="239" y="280" type="line" smooth="yes"/>
      <point x="31" y="280" type="line" smooth="yes"/>
      <point x="23" y="214" type="line" smooth="yes"/>
      <point x="243" y="214" type="line" smooth="yes"/>
      <point x="215" y="0" type="line" smooth="yes"/>
      <point x="287" y="0" type="line" smooth="yes"/>
      <point x="315" y="214" type="line" smooth="yes"/>
      <point x="535" y="214" type="line" smooth="yes"/>
      <point x="543" y="280" type="line" smooth="yes"/>
      <point x="334" y="280" type="line" smooth="yes"/>
      <point x="417" y="414" type="line" smooth="yes"/>
      <point x="561" y="414" type="line" smooth="yes"/>
      <point x="570" y="480" type="line" smooth="yes"/>
      <point x="455" y="480" type="line" smooth="yes"/>
      <point x="636" y="780" type="line" smooth="yes"/>
      <point x="553" y="780" type="line" smooth="yes"/>
      <point x="292" y="338" type="line" smooth="yes"/>
      <point x="146" y="780" type="line" smooth="yes"/>
      <point x="70" y="780" type="line" smooth="yes"/>
      <point x="172" y="480" type="line" smooth="yes"/>
      <point x="58" y="480" type="line" smooth="yes"/>
    </contour>
  </outline>
</glyph>
<glyph name="section" format="1">
  <advance width="510"/>
  <unicode hex="00A7"/>
  <outline>
    <contour>
      <point x="345" y="259" type="line" smooth="yes"/>
      <point x="413" y="287" type="line" smooth="yes"/>
      <point x="454" y="328" type="line" smooth="yes"/>
      <point x="472" y="383" type="line" smooth="yes"/>
      <point x="473" y="391" type="line" smooth="yes"/>
      <point x="462" y="471" type="line" smooth="yes"/>
      <point x="406" y="522" type="line" smooth="yes"/>
      <point x="307" y="549" type="line" smooth="yes"/>
      <point x="229" y="564" type="line" smooth="yes"/>
      <point x="188" y="589" type="line" smooth="yes"/>
      <point x="176" y="628" type="line" smooth="yes"/>
      <point x="192" y="685" type="line" smooth="yes"/>
      <point x="238" y="718" type="line" smooth="yes"/>
      <point x="311" y="728" type="line" smooth="yes"/>
      <point x="388" y="714" type="line" smooth="yes"/>
      <point x="425" y="674" type="line" smooth="yes"/>
      <point x="429" y="609" type="line" smooth="yes"/>
      <point x="497" y="609" type="line" smooth="yes"/>
      <point x="499" y="622" type="line" smooth="yes"/>
      <point x="490" y="709" type="line" smooth="yes"/>
      <point x="430" y="769" type="line" smooth="yes"/>
      <point x="311" y="791" type="line" smooth="yes"/>
      <point x="205" y="774" type="line" smooth="yes"/>
      <point x="137" y="727" type="line" smooth="yes"/>
      <point x="107" y="651" type="line" smooth="yes"/>
      <point x="106" y="643" type="line" smooth="yes"/>
      <point x="110" y="585" type="line" smooth="yes"/>
      <point x="134" y="545" type="line" smooth="yes"/>
      <point x="172" y="521" type="line" smooth="yes"/>
      <point x="104" y="493" type="line" smooth="yes"/>
      <point x="63" y="452" type="line" smooth="yes"/>
      <point x="45" y="397" type="line" smooth="yes"/>
      <point x="44" y="389" type="line" smooth="yes"/>
      <point x="55" y="309" type="line" smooth="yes"/>
      <point x="111" y="258" type="line" smooth="yes"/>
      <point x="210" y="231" type="line" smooth="yes"/>
      <point x="288" y="216" type="line" smooth="yes"/>
      <point x="329" y="191" type="line" smooth="yes"/>
      <point x="341" y="152" type="line" smooth="yes"/>
      <point x="325" y="95" type="line" smooth="yes"/>
      <point x="279" y="62" type="line" smooth="yes"/>
      <point x="206" y="52" type="line" smooth="yes"/>
      <point x="129" y="66" type="line" smooth="yes"/>
      <point x="92" y="106" type="line" smooth="yes"/>
      <point x="88" y="171" type="line" smooth="yes"/>
      <point x="20" y="171" type="line" smooth="yes"/>
      <point x="18" y="158" type="line" smooth="yes"/>
      <point x="27" y="71" type="line" smooth="yes"/>
      <point x="87" y="11" type="line" smooth="yes"/>
      <point x="206" y="-11" type="line" smooth="yes"/>
      <point x="312" y="6" type="line" smooth="yes"/>
      <point x="380" y="53" type="line" smooth="yes"/>
      <point x="410" y="129" type="line" smooth="yes"/>
      <point x="411" y="137" type="line" smooth="yes"/>
      <point x="407" y="195" type="line" smooth="yes"/>
      <point x="383" y="235" type="line" smooth="yes"/>
    </contour>
    <contour>
      <point x="243" y="289" type="line" smooth="yes"/>
      <point x="177" y="297" type="line" smooth="yes"/>
      <point x="130" y="324" type="line" smooth="yes"/>
      <point x="113" y="372" type="line" smooth="yes"/>
      <point x="131" y="434" type="line" smooth="yes"/>
      <point x="181" y="475" type="line" smooth="yes"/>
      <point x="263" y="491" type="line" smooth="yes"/>
      <point x="274" y="491" type="line" smooth="yes"/>
      <point x="340" y="483" type="line" smooth="yes"/>
      <point x="387" y="456" type="line" smooth="yes"/>
      <point x="404" y="408" type="line" smooth="yes"/>
      <point x="386" y="346" type="line" smooth="yes"/>
      <point x="335" y="305" type="line" smooth="yes"/>
      <point x="254" y="289" type="line" smooth="yes"/>
    </contour>
  </outline>
</glyph>
<glyph name="ordfeminine" format="1">
  <advance width="387"/>
  <unicode hex="00AA"/>
  <outline>
    <contour>
      <point x="330" y="212" type="line" smooth="yes"/>
      <point x="338" y="269" type="line" smooth="yes"/>
      <point x="33" y="269" type="line" smooth="yes"/>
      <point x="25" y="212" type="line" smooth="yes"/>
    </contour>
    <contour>
      <point x="180" y="433" type="line" smooth="yes"/>
      <point x="140" y="440" type="line" smooth="yes"/>
      <point x="119" y="460" type="line" smooth="yes"/>
      <point x="116" y="491" type="line" smooth="yes"/>
      <point x="118" y="504" type="line" smooth="yes"/>
      <point x="132" y="539" type="line" smooth="yes"/>
      <point x="161" y="562" type="line" smooth="yes"/>
      <point x="204" y="575" type="line" smooth="yes"/>
      <point x="312" y="592" type="line" smooth="yes"/>
      <point x="299" y="488" type="line" smooth="yes"/>
      <point x="272" y="464" type="line" smooth="yes"/>
      <point x="231" y="443" type="line" smooth="yes"/>
    </contour>
    <contour>
      <point x="300" y="388" type="line" smooth="yes"/>
      <point x="353" y="388" type="line" smooth="yes"/>
      <point x="363" y="499" type="line" smooth="yes"/>
      <point x="382" y="640" type="line" smooth="yes"/>
      <point x="379" y="718" type="line" smooth="yes"/>
      <point x="337" y="771" type="line" smooth="yes"/>
      <point x="244" y="791" type="line" smooth="yes"/>
      <point x="158" y="772" type="line" smooth="yes"/>
      <point x="110" y="725" type="line" smooth="yes"/>
      <point x="91" y="665" type="line" smooth="yes"/>
      <point x="89" y="652" type="line" smooth="yes"/>
      <point x="150" y="652" type="line" smooth="yes"/>
      <point x="162" y="695" type="line" smooth="yes"/>
      <point x="191" y="727" type="line" smooth="yes"/>
      <point x="244" y="739" type="line" smooth="yes"/>
      <point x="295" y="728" type="line" smooth="yes"/>
      <point x="319" y="697" type="line" smooth="yes"/>
      <point x="320" y="648" type="line" smooth="yes"/>
      <point x="318" y="635" type="line" smooth="yes"/>
      <point x="202" y="618" type="line" smooth="yes"/>
      <point x="131" y="601" type="line" smooth="yes"/>
      <point x="81" y="567" type="line" smooth="yes"/>
      <point x="56" y="506" type="line" smooth="yes"/>
      <point x="54" y="493" type="line" smooth="yes"/>
      <point x="59" y="435" type="line" smooth="yes"/>
      <point x="95" y="394" type="line" smooth="yes"/>
      <point x="163" y="379" type="line" smooth="yes"/>
      <point x="219" y="388" type="line" smooth="yes"/>
      <point x="267" y="410" type="line" smooth="yes"/>
      <point x="300" y="441" type="line" smooth="yes"/>
    </contour>
  </outline>
</glyph>
<glyph name="registered" format="1">
  <advance width="330"/>
  <unicode hex="00AE"/>
  <outline>
    <contour>
      <point x="194" y="698" type="line" smooth="yes"/>
      <point x="194" y="695" type="line" smooth="yes"/>
      <point x="191" y="681" type="line" smooth="yes"/>
      <point x="181" y="673" type="line" smooth="yes"/>
      <point x="166" y="671" type="line" smooth="yes"/>
      <point x="136" y="671" type="line" smooth="yes"/>
      <point x="136" y="721" type="line" smooth="yes"/>
      <point x="166" y="721" type="line" smooth="yes"/>
      <point x="181" y="719" type="line" smooth="yes"/>
      <point x="191" y="711" type="line" smooth="yes"/>
    </contour>
    <contour>
      <point x="229" y="693" type="line" smooth="yes"/>
      <point x="229" y="700" type="line" smooth="yes"/>
      <point x="222" y="728" type="line" smooth="yes"/>
      <point x="202" y="745" type="line" smooth="yes"/>
      <point x="173" y="751" type="line" smooth="yes"/>
      <point x="101" y="751" type="line" smooth="yes"/>
      <point x="101" y="579" type="line" smooth="yes"/>
      <point x="136" y="579" type="line" smooth="yes"/>
      <point x="136" y="642" type="line" smooth="yes"/>
      <point x="166" y="642" type="line" smooth="yes"/>
      <point x="193" y="579" type="line" smooth="yes"/>
      <point x="229" y="579" type="line" smooth="yes"/>
      <point x="199" y="646" type="line" smooth="yes"/>
      <point x="215" y="656" type="line" smooth="yes"/>
      <point x="225" y="671" type="line" smooth="yes"/>
    </contour>
    <contour>
      <point x="43" y="665" type="line" smooth="yes"/>
      <point x="60" y="726" type="line" smooth="yes"/>
      <point x="104" y="770" type="line" smooth="yes"/>
      <point x="165" y="787" type="line" smooth="yes"/>
      <point x="226" y="770" type="line" smooth="yes"/>
      <point x="270" y="726" type="line" smooth="yes"/>
      <point x="287" y="665" type="line" smooth="yes"/>
      <point x="270" y="604" type="line" smooth="yes"/>
      <point x="226" y="560" type="line" smooth="yes"/>
      <point x="165" y="543" type="line" smooth="yes"/>
      <point x="104" y="560" type="line" smooth="yes"/>
      <point x="60" y="604" type="line" smooth="yes"/>
    </contour>
    <contour>
      <point x="19" y="665" type="line" smooth="yes"/>
      <point x="39" y="592" type="line" smooth="yes"/>
      <point x="92" y="539" type="line" smooth="yes"/>
      <point x="165" y="519" type="line" smooth="yes"/>
      <point x="238" y="539" type="line" smooth="yes"/>
      <point x="291" y="592" type="line" smooth="yes"/>
      <point x="311" y="665" type="line" smooth="yes"/>
      <point x="291" y="738" type="line" smooth="yes"/>
      <point x="238" y="791" type="line" smooth="yes"/>
      <point x="165" y="811" type="line" smooth="yes"/>
      <point x="92" y="791" type="line" smooth="yes"/>
      <point x="39" y="738" type="line" smooth="yes"/>
    </contour>
  </outline>
</glyph>
<glyph name="degree" format="1">
  <advance width="398"/>
  <unicode hex="00B0"/>
  <outline>
    <contour>
      <point x="244" y="791" type="line" smooth="yes"/>
      <point x="165" y="774" type="line" smooth="yes"/>
      <point x="108" y="724" type="line" smooth="yes"/>
      <point x="81" y="643" type="line" smooth="yes"/>
      <point x="80" y="634" type="line" smooth="yes"/>
      <point x="92" y="553" type="line" smooth="yes"/>
      <point x="142" y="502" type="line" smooth="yes"/>
      <point x="224" y="484" type="line" smooth="yes"/>
      <point x="303" y="501" type="line" smooth="yes"/>
      <point x="360" y="551" type="line" smooth="yes"/>
      <point x="387" y="632" type="line" smooth="yes"/>
      <point x="388" y="641" type="line" smooth="yes"/>
      <point x="376" y="722" type="line" smooth="yes"/>
      <point x="326" y="773" type="line" smooth="yes"/>
    </contour>
    <contour>
      <point x="220" y="538" type="line" smooth="yes"/>
      <point x="170" y="550" type="line" smooth="yes"/>
      <point x="140" y="584" type="line" smooth="yes"/>
      <point x="134" y="634" type="line" smooth="yes"/>
      <point x="135" y="643" type="line" smooth="yes"/>
      <point x="153" y="697" type="line" smooth="yes"/>
      <point x="189" y="728" type="line" smooth="yes"/>
      <point x="240" y="737" type="line" smooth="yes"/>
      <point x="248" y="737" type="line" smooth="yes"/>
      <point x="298" y="725" type="line" smooth="yes"/>
      <point x="328" y="691" type="line" smooth="yes"/>
      <point x="334" y="641" type="line" smooth="yes"/>
      <point x="333" y="632" type="line" smooth="yes"/>
      <point x="315" y="578" type="line" smooth="yes"/>
      <point x="279" y="547" type="line" smooth="yes"/>
      <point x="228" y="538" type="line" smooth="yes"/>
    </contour>
  </outline>
</glyph>
<glyph name="twosuperior" format="1">
  <advance width="300"/>
  <unicode hex="00B2"/>
  <outline>
    <contour>
      <point x="284" y="439" type="line" smooth="yes"/>
      <point x="111" y="439" type="line" smooth="yes"/>
      <point x="255" y="572" type="line" smooth="yes"/>
      <point x="283" y="600" type="line" smooth="yes"/>
      <point x="303" y="630" type="line" smooth="yes"/>
      <point x="313" y="668" type="line" smooth="yes"/>
      <point x="314" y="676" type="line" smooth="yes"/>
      <point x="307" y="730" type="line" smooth="yes"/>
      <point x="269" y="770" type="line" smooth="yes"/>
      <point x="197" y="786" type="line" smooth="yes"/>
      <point x="127" y="772" type="line" smooth="yes"/>
      <point x="84" y="733" type="line" smooth="yes"/>
      <point x="64" y="672" type="line" smooth="yes"/>
      <point x="61" y="650" type="line" smooth="yes"/>
      <point x="117" y="650" type="line" smooth="yes"/>
      <point x="131" y="700" type="line" smooth="yes"/>
      <point x="158" y="728" type="line" smooth="yes"/>
      <point x="194" y="736" type="line" smooth="yes"/>
      <point x="200" y="736" type="line" smooth="yes"/>
      <point x="233" y="729" type="line" smooth="yes"/>
      <point x="253" y="709" type="line" smooth="yes"/>
      <point x="257" y="672" type="line" smooth="yes"/>
      <point x="256" y="664" type="line" smooth="yes"/>
      <point x="250" y="642" type="line" smooth="yes"/>
      <point x="236" y="621" type="line" smooth="yes"/>
      <point x="214" y="598" type="line" smooth="yes"/>
      <point x="32" y="430" type="line" smooth="yes"/>
      <point x="27" y="390" type="line" smooth="yes"/>
      <point x="277" y="390" type="line" smooth="yes"/>
    </contour>
  </outline>
</glyph>
<glyph name="threesuperior" format="1">
  <advance width="300"/>
  <unicode hex="00B3"/>
  <outline>
    <contour>
      <point x="97" y="515" type="line" smooth="yes"/>
      <point x="40" y="515" type="line" smooth="yes"/>
      <point x="39" y="507" type="line" smooth="yes"/>
      <point x="44" y="440" type="line" smooth="yes"/>
      <point x="82" y="398" type="line" smooth="yes"/>
      <point x="157" y="383" type="line" smooth="yes"/>
      <point x="225" y="397" type="line" smooth="yes"/>
      <point x="270" y="436" type="line" smooth="yes"/>
      <point x="291" y="491" type="line" smooth="yes"/>
      <point x="292" y="499" type="line" smooth="yes"/>
      <point x="290" y="540" type="line" smooth="yes"/>
      <point x="274" y="571" type="line" smooth="yes"/>
      <point x="245" y="589" type="line" smooth="yes"/>
      <point x="277" y="603" type="line" smooth="yes"/>
      <point x="302" y="632" type="line" smooth="yes"/>
      <point x="314" y="672" type="line" smooth="yes"/>
      <point x="315" y="680" type="line" smooth="yes"/>
      <point x="307" y="733" type="line" smooth="yes"/>
      <point x="268" y="771" type="line" smooth="yes"/>
      <point x="197" y="786" type="line" smooth="yes"/>
      <point x="127" y="772" type="line" smooth="yes"/>
      <point x="84" y="733" type="line" smooth="yes"/>
      <point x="64" y="672" type="line" smooth="yes"/>
      <point x="61" y="650" type="line" smooth="yes"/>
      <point x="117" y="650" type="line" smooth="yes"/>
      <point x="131" y="700" type="line" smooth="yes"/>
      <point x="158" y="728" type="line" smooth="yes"/>
      <point x="194" y="736" type="line" smooth="yes"/>
      <point x="200" y="736" type="line" smooth="yes"/>
      <point x="233" y="730" type="line" smooth="yes"/>
      <point x="253" y="710" type="line" smooth="yes"/>
      <point x="258" y="676" type="line" smooth="yes"/>
      <point x="257" y="668" type="line" smooth="yes"/>
      <point x="245" y="637" type="line" smooth="yes"/>
      <point x="221" y="620" type="line" smooth="yes"/>
      <point x="185" y="614" type="line" smooth="yes"/>
      <point x="131" y="614" type="line" smooth="yes"/>
      <point x="125" y="564" type="line" smooth="yes"/>
      <point x="180" y="564" type="line" smooth="yes"/>
      <point x="213" y="557" type="line" smooth="yes"/>
      <point x="232" y="535" type="line" smooth="yes"/>
      <point x="236" y="500" type="line" smooth="yes"/>
      <point x="235" y="492" type="line" smooth="yes"/>
      <point x="221" y="457" type="line" smooth="yes"/>
      <point x="194" y="438" type="line" smooth="yes"/>
      <point x="161" y="433" type="line" smooth="yes"/>
      <point x="154" y="433" type="line" smooth="yes"/>
      <point x="118" y="441" type="line" smooth="yes"/>
      <point x="98" y="467" type="line" smooth="yes"/>
    </contour>
  </outline>
</glyph>
<glyph name="paragraph" format="1">
  <advance width="513"/>
  <unicode hex="00B6"/>
  <outline>
    <contour>
      <point x="133" y="559" type="line" smooth="yes"/>
      <point x="171" y="657" type="line" smooth="yes"/>
      <point x="236" y="703" type="line" smooth="yes"/>
      <point x="306" y="715" type="line" smooth="yes"/>
      <point x="263" y="382" type="line" smooth="yes"/>
      <point x="193" y="396" type="line" smooth="yes"/>
      <point x="142" y="446" type="line" smooth="yes"/>
      <point x="131" y="544" type="line" smooth="yes"/>
    </contour>
    <contour>
      <point x="57" y="543" type="line" smooth="yes"/>
      <point x="75" y="408" type="line" smooth="yes"/>
      <point x="153" y="337" type="line" smooth="yes"/>
      <point x="254" y="317" type="line" smooth="yes"/>
      <point x="213" y="0" type="line" smooth="yes"/>
      <point x="285" y="0" type="line" smooth="yes"/>
      <point x="378" y="715" type="line" smooth="yes"/>
      <point x="419" y="715" type="line" smooth="yes"/>
      <point x="325" y="0" type="line" smooth="yes"/>
      <point x="397" y="0" type="line" smooth="yes"/>
      <point x="499" y="780" type="line" smooth="yes"/>
      <point x="325" y="780" type="line" smooth="yes"/>
      <point x="211" y="763" type="line" smooth="yes"/>
      <point x="115" y="698" type="line" smooth="yes"/>
      <point x="60" y="563" type="line" smooth="yes"/>
    </contour>
  </outline>
</glyph>
<glyph name="cedilla" format="1">
  <advance width="602"/>
  <unicode hex="00B8"/>
  <outline>
    <contour>
      <point x="85" y="-184" type="line" smooth="yes"/>
      <point x="108" y="-197" type="line" smooth="yes"/>
      <point x="140" y="-207" type="line" smooth="yes"/>
      <point x="177" y="-211" type="line" smooth="yes"/>
      <point x="233" y="-202" type="line" smooth="yes"/>
      <point x="271" y="-175" type="line" smooth="yes"/>
      <point x="285" y="-127" type="line" smooth="yes"/>
      <point x="272" y="-86" type="line" smooth="yes"/>
      <point x="240" y="-65" type="line" smooth="yes"/>
      <point x="199" y="-58" type="line" smooth="yes"/>
      <point x="195" y="-58" type="line" smooth="yes"/>
      <point x="226" y="0" type="line" smooth="yes"/>
      <point x="180" y="0" type="line" smooth="yes"/>
      <point x="139" y="-80" type="line" smooth="yes"/>
      <point x="152" y="-99" type="line" smooth="yes"/>
      <point x="156" y="-98" type="line" smooth="yes"/>
      <point x="168" y="-97" type="line" smooth="yes"/>
      <point x="183" y="-96" type="line" smooth="yes"/>
      <point x="211" y="-99" type="line" smooth="yes"/>
      <point x="230" y="-110" type="line" smooth="yes"/>
      <point x="238" y="-130" type="line" smooth="yes"/>
      <point x="231" y="-152" type="line" smooth="yes"/>
      <point x="210" y="-165" type="line" smooth="yes"/>
      <point x="176" y="-169" type="line" smooth="yes"/>
      <point x="147" y="-166" type="line" smooth="yes"/>
      <point x="123" y="-158" type="line" smooth="yes"/>
      <point x="105" y="-148" type="line" smooth="yes"/>
    </contour>
  </outline>
</glyph>
<glyph name="ordmasculine" format="1">
  <advance width="414"/>
  <unicode hex="00BA"/>
  <outline>
    <contour>
      <point x="66" y="578" type="line" smooth="yes"/>
      <point x="69" y="474" type="line" smooth="yes"/>
      <point x="118" y="404" type="line" smooth="yes"/>
      <point x="218" y="379" type="line" smooth="yes"/>
      <point x="308" y="403" type="line" smooth="yes"/>
      <point x="370" y="472" type="line" smooth="yes"/>
      <point x="404" y="579" type="line" smooth="yes"/>
      <point x="406" y="592" type="line" smooth="yes"/>
      <point x="403" y="696" type="line" smooth="yes"/>
      <point x="354" y="766" type="line" smooth="yes"/>
      <point x="254" y="791" type="line" smooth="yes"/>
      <point x="164" y="767" type="line" smooth="yes"/>
      <point x="102" y="698" type="line" smooth="yes"/>
      <point x="68" y="591" type="line" smooth="yes"/>
    </contour>
    <contour>
      <point x="26" y="212" type="line" smooth="yes"/>
      <point x="349" y="212" type="line" smooth="yes"/>
      <point x="357" y="269" type="line" smooth="yes"/>
      <point x="34" y="269" type="line" smooth="yes"/>
    </contour>
    <contour>
      <point x="132" y="591" type="line" smooth="yes"/>
      <point x="154" y="671" type="line" smooth="yes"/>
      <point x="194" y="719" type="line" smooth="yes"/>
      <point x="252" y="735" type="line" smooth="yes"/>
      <point x="313" y="718" type="line" smooth="yes"/>
      <point x="342" y="669" type="line" smooth="yes"/>
      <point x="342" y="592" type="line" smooth="yes"/>
      <point x="340" y="579" type="line" smooth="yes"/>
      <point x="318" y="499" type="line" smooth="yes"/>
      <point x="278" y="451" type="line" smooth="yes"/>
      <point x="220" y="435" type="line" smooth="yes"/>
      <point x="159" y="452" type="line" smooth="yes"/>
      <point x="130" y="501" type="line" smooth="yes"/>
      <point x="130" y="578" type="line" smooth="yes"/>
    </contour>
  </outline>
</glyph>
<glyph name="onehalf" format="1">
  <advance width="800"/>
  <unicode hex="00BD"/>
  <outline>
    <contour>
      <point x="733" y="49" type="line" smooth="yes"/>
      <point x="560" y="49" type="line" smooth="yes"/>
      <point x="704" y="182" type="line" smooth="yes"/>
      <point x="732" y="210" type="line" smooth="yes"/>
      <point x="752" y="240" type="line" smooth="yes"/>
      <point x="762" y="278" type="line" smooth="yes"/>
      <point x="763" y="286" type="line" smooth="yes"/>
      <point x="756" y="340" type="line" smooth="yes"/>
      <point x="718" y="380" type="line" smooth="yes"/>
      <point x="646" y="396" type="line" smooth="yes"/>
      <point x="576" y="382" type="line" smooth="yes"/>
      <point x="533" y="343" type="line" smooth="yes"/>
      <point x="513" y="282" type="line" smooth="yes"/>
      <point x="510" y="260" type="line" smooth="yes"/>
      <point x="566" y="260" type="line" smooth="yes"/>
      <point x="580" y="310" type="line" smooth="yes"/>
      <point x="607" y="338" type="line" smooth="yes"/>
      <point x="643" y="346" type="line" smooth="yes"/>
      <point x="649" y="346" type="line" smooth="yes"/>
      <point x="682" y="339" type="line" smooth="yes"/>
      <point x="702" y="319" type="line" smooth="yes"/>
      <point x="706" y="282" type="line" smooth="yes"/>
      <point x="705" y="274" type="line" smooth="yes"/>
      <point x="699" y="252" type="line" smooth="yes"/>
      <point x="685" y="231" type="line" smooth="yes"/>
      <point x="663" y="208" type="line" smooth="yes"/>
      <point x="481" y="40" type="line" smooth="yes"/>
      <point x="476" y="0" type="line" smooth="yes"/>
      <point x="726" y="0" type="line" smooth="yes"/>
    </contour>
    <contour>
      <point x="99" y="0" type="line" smooth="yes"/>
      <point x="777" y="780" type="line" smooth="yes"/>
      <point x="707" y="780" type="line" smooth="yes"/>
      <point x="29" y="0" type="line" smooth="yes"/>
    </contour>
    <contour>
      <point x="279" y="390" type="line" smooth="yes"/>
      <point x="286" y="439" type="line" smooth="yes"/>
      <point x="191" y="439" type="line" smooth="yes"/>
      <point x="236" y="781" type="line" smooth="yes"/>
      <point x="196" y="781" type="line" smooth="yes"/>
      <point x="64" y="698" type="line" smooth="yes"/>
      <point x="86" y="656" type="line" smooth="yes"/>
      <point x="171" y="709" type="line" smooth="yes"/>
      <point x="135" y="439" type="line" smooth="yes"/>
      <point x="41" y="439" type="line" smooth="yes"/>
      <point x="34" y="390" type="line" smooth="yes"/>
    </contour>
  </outline>
</glyph>
<glyph name="threequarters" format="1">
  <advance width="800"/>
  <unicode hex="00BE"/>
  <outline>
    <contour>
      <point x="666" y="297" type="line" smooth="yes"/>
      <point x="660" y="255" type="line" smooth="yes"/>
      <point x="645" y="144" type="line" smooth="yes"/>
      <point x="584" y="144" type="line" smooth="yes"/>
      <point x="548" y="143" type="line" smooth="yes"/>
    </contour>
    <contour>
      <point x="682" y="0" type="line" smooth="yes"/>
      <point x="694" y="95" type="line" smooth="yes"/>
      <point x="748" y="95" type="line" smooth="yes"/>
      <point x="755" y="144" type="line" smooth="yes"/>
      <point x="701" y="144" type="line" smooth="yes"/>
      <point x="733" y="390" type="line" smooth="yes"/>
      <point x="677" y="390" type="line" smooth="yes"/>
      <point x="482" y="135" type="line" smooth="yes"/>
      <point x="477" y="95" type="line" smooth="yes"/>
      <point x="639" y="95" type="line" smooth="yes"/>
      <point x="626" y="0" type="line" smooth="yes"/>
    </contour>
    <contour>
      <point x="99" y="0" type="line" smooth="yes"/>
      <point x="777" y="780" type="line" smooth="yes"/>
      <point x="707" y="780" type="line" smooth="yes"/>
      <point x="29" y="0" type="line" smooth="yes"/>
    </contour>
    <contour>
      <point x="97" y="515" type="line" smooth="yes"/>
      <point x="40" y="515" type="line" smooth="yes"/>
      <point x="39" y="507" type="line" smooth="yes"/>
      <point x="44" y="440" type="line" smooth="yes"/>
      <point x="82" y="398" type="line" smooth="yes"/>
      <point x="157" y="383" type="line" smooth="yes"/>
      <point x="225" y="397" type="line" smooth="yes"/>
      <point x="270" y="436" type="line" smooth="yes"/>
      <point x="291" y="491" type="line" smooth="yes"/>
      <point x="292" y="499" type="line" smooth="yes"/>
      <point x="290" y="540" type="line" smooth="yes"/>
      <point x="274" y="571" type="line" smooth="yes"/>
      <point x="245" y="589" type="line" smooth="yes"/>
      <point x="277" y="603" type="line" smooth="yes"/>
      <point x="302" y="632" type="line" smooth="yes"/>
      <point x="314" y="672" type="line" smooth="yes"/>
      <point x="315" y="680" type="line" smooth="yes"/>
      <point x="307" y="733" type="line" smooth="yes"/>
      <point x="268" y="771" type="line" smooth="yes"/>
      <point x="197" y="786" type="line" smooth="yes"/>
      <point x="127" y="772" type="line" smooth="yes"/>
      <point x="84" y="733" type="line" smooth="yes"/>
      <point x="64" y="672" type="line" smooth="yes"/>
      <point x="61" y="650" type="line" smooth="yes"/>
      <point x="117" y="650" type="line" smooth="yes"/>
      <point x="131" y="700" type="line" smooth="yes"/>
      <point x="158" y="728" type="line" smooth="yes"/>
      <point x="194" y="736" type="line" smooth="yes"/>
      <point x="200" y="736" type="line" smooth="yes"/>
      <point x="233" y="730" type="line" smooth="yes"/>
      <point x="253" y="710" type="line" smooth="yes"/>
      <point x="258" y="676" type="line" smooth="yes"/>
      <point x="257" y="668" type="line" smooth="yes"/>
      <point x="245" y="637" type="line" smooth="yes"/>
      <point x="221" y="620" type="line" smooth="yes"/>
      <point x="185" y="614" type="line" smooth="yes"/>
      <point x="131" y="614" type="line" smooth="yes"/>
      <point x="125" y="564" type="line" smooth="yes"/>
      <point x="180" y="564" type="line" smooth="yes"/>
      <point x="213" y="557" type="line" smooth="yes"/>
      <point x="232" y="535" type="line" smooth="yes"/>
      <point x="236" y="500" type="line" smooth="yes"/>
      <point x="235" y="492" type="line" smooth="yes"/>
      <point x="221" y="457" type="line" smooth="yes"/>
      <point x="194" y="438" type="line" smooth="yes"/>
      <point x="161" y="433" type="line" smooth="yes"/>
      <point x="154" y="433" type="line" smooth="yes"/>
      <point x="118" y="441" type="line" smooth="yes"/>
      <point x="98" y="467" type="line" smooth="yes"/>
    </contour>
  </outline>
</glyph>
<glyph name="questiondown" format="1">
  <advance width="455"/>
  <unicode hex="00BF"/>
  <outline>
    <contour>
      <point x="193" y="440" type="line" smooth="yes"/>
      <point x="283" y="440" type="line" smooth="yes"/>
      <point x="295" y="530" type="line" smooth="yes"/>
      <point x="205" y="530" type="line" smooth="yes"/>
    </contour>
    <contour>
      <point x="155" y="-146" type="line" smooth="yes"/>
      <point x="93" y="-134" type="line" smooth="yes"/>
      <point x="57" y="-100" type="line" smooth="yes"/>
      <point x="46" y="-45" type="line" smooth="yes"/>
      <point x="95" y="82" type="line" smooth="yes"/>
      <point x="188" y="186" type="line" smooth="yes"/>
      <point x="247" y="341" type="line" smooth="yes"/>
      <point x="201" y="341" type="line" smooth="yes"/>
      <point x="126" y="198" type="line" smooth="yes"/>
      <point x="24" y="103" type="line" smooth="yes"/>
      <point x="-27" y="-50" type="line" smooth="yes"/>
      <point x="-9" y="-134" type="line" smooth="yes"/>
      <point x="49" y="-191" type="line" smooth="yes"/>
      <point x="154" y="-211" type="line" smooth="yes"/>
      <point x="274" y="-182" type="line" smooth="yes"/>
      <point x="347" y="-96" type="line" smooth="yes"/>
      <point x="385" y="46" type="line" smooth="yes"/>
      <point x="387" y="60" type="line" smooth="yes"/>
      <point x="315" y="60" type="line" smooth="yes"/>
      <point x="288" y="-54" type="line" smooth="yes"/>
      <point x="236" y="-123" type="line" smooth="yes"/>
    </contour>
  </outline>
</glyph>
<glyph name="Atilde" format="1">
  <advance width="611"/>
  <unicode hex="00C3"/>
  <outline>
    <contour>
      <point x="351" y="709" type="line" smooth="yes"/>
      <point x="417" y="265" type="line" smooth="yes"/>
      <point x="168" y="265" type="line" smooth="yes"/>
    </contour>
    <contour>
      <point x="309" y="788" type="line" smooth="yes"/>
      <point x="-20" y="0" type="line" smooth="yes"/>
      <point x="59" y="0" type="line" smooth="yes"/>
      <point x="141" y="200" type="line" smooth="yes"/>
      <point x="427" y="200" type="line" smooth="yes"/>
      <point x="457" y="0" type="line" smooth="yes"/>
      <point x="533" y="0" type="line" smooth="yes"/>
      <point x="411" y="788" type="line" smooth="yes"/>
    </contour>
    <contour>
      <point x="482" y="936" type="line" smooth="yes"/>
      <point x="474" y="909" type="line" smooth="yes"/>
      <point x="458" y="894" type="line" smooth="yes"/>
      <point x="437" y="889" type="line" smooth="yes"/>
      <point x="399" y="904" type="line" smooth="yes"/>
      <point x="360" y="932" type="line" smooth="yes"/>
      <point x="309" y="947" type="line" smooth="yes"/>
      <point x="266" y="937" type="line" smooth="yes"/>
      <point x="233" y="907" type="line" smooth="yes"/>
      <point x="216" y="854" type="line" smooth="yes"/>
      <point x="264" y="854" type="line" smooth="yes"/>
      <point x="272" y="881" type="line" smooth="yes"/>
      <point x="288" y="896" type="line" smooth="yes"/>
      <point x="309" y="901" type="line" smooth="yes"/>
      <point x="347" y="886" type="line" smooth="yes"/>
      <point x="386" y="858" type="line" smooth="yes"/>
      <point x="437" y="843" type="line" smooth="yes"/>
      <point x="480" y="853" type="line" smooth="yes"/>
      <point x="513" y="883" type="line" smooth="yes"/>
      <point x="530" y="936" type="line" smooth="yes"/>
    </contour>
  </outline>
</glyph>
<glyph name="Aring" format="1">
  <advance width="611"/>
  <unicode hex="00C5"/>
  <outline>
    <contour>
      <point x="361" y="811" type="line" smooth="yes"/>
      <point x="335" y="817" type="line" smooth="yes"/>
      <point x="319" y="835" type="line" smooth="yes"/>
      <point x="313" y="860" type="line" smooth="yes"/>
      <point x="322" y="895" type="line" smooth="yes"/>
      <point x="346" y="916" type="line" smooth="yes"/>
      <point x="378" y="923" type="line" smooth="yes"/>
      <point x="404" y="917" type="line" smooth="yes"/>
      <point x="420" y="899" type="line" smooth="yes"/>
      <point x="426" y="874" type="line" smooth="yes"/>
      <point x="417" y="839" type="line" smooth="yes"/>
      <point x="393" y="818" type="line" smooth="yes"/>
    </contour>
    <contour>
      <point x="351" y="709" type="line" smooth="yes"/>
      <point x="417" y="265" type="line" smooth="yes"/>
      <point x="168" y="265" type="line" smooth="yes"/>
    </contour>
    <contour>
      <point x="465" y="874" type="line" smooth="yes"/>
      <point x="455" y="919" type="line" smooth="yes"/>
      <point x="425" y="950" type="line" smooth="yes"/>
      <point x="378" y="961" type="line" smooth="yes"/>
      <point x="326" y="948" type="line" smooth="yes"/>
      <point x="288" y="912" type="line" smooth="yes"/>
      <point x="274" y="860" type="line" smooth="yes"/>
      <point x="278" y="831" type="line" smooth="yes"/>
      <point x="290" y="806" type="line" smooth="yes"/>
      <point x="309" y="787" type="line" smooth="yes"/>
      <point x="-20" y="0" type="line" smooth="yes"/>
      <point x="59" y="0" type="line" smooth="yes"/>
      <point x="141" y="200" type="line" smooth="yes"/>
      <point x="427" y="200" type="line" smooth="yes"/>
      <point x="457" y="0" type="line" smooth="yes"/>
      <point x="533" y="0" type="line" smooth="yes"/>
      <point x="411" y="785" type="line" smooth="yes"/>
      <point x="439" y="807" type="line" smooth="yes"/>
      <point x="458" y="837" type="line" smooth="yes"/>
    </contour>
  </outline>
</glyph>
<glyph name="Ccedilla" format="1">
  <advance width="613"/>
  <unicode hex="00C7"/>
  <outline>
    <contour>
      <point x="135" y="410" type="line" smooth="yes"/>
      <point x="179" y="591" type="line" smooth="yes"/>
      <point x="255" y="693" type="line" smooth="yes"/>
      <point x="367" y="726" type="line" smooth="yes"/>
      <point x="374" y="726" type="line" smooth="yes"/>
      <point x="466" y="702" type="line" smooth="yes"/>
      <point x="510" y="627" type="line" smooth="yes"/>
      <point x="510" y="496" type="line" smooth="yes"/>
      <point x="584" y="496" type="line" smooth="yes"/>
      <point x="588" y="525" type="line" smooth="yes"/>
      <point x="580" y="672" type="line" smooth="yes"/>
      <point x="508" y="761" type="line" smooth="yes"/>
      <point x="373" y="791" type="line" smooth="yes"/>
      <point x="220" y="752" type="line" smooth="yes"/>
      <point x="117" y="629" type="line" smooth="yes"/>
      <point x="61" y="410" type="line" smooth="yes"/>
      <point x="56" y="370" type="line" smooth="yes"/>
      <point x="57" y="158" type="line" smooth="yes"/>
      <point x="124" y="35" type="line" smooth="yes"/>
      <point x="256" y="-10" type="line" smooth="yes"/>
      <point x="221" y="-80" type="line" smooth="yes"/>
      <point x="234" y="-99" type="line" smooth="yes"/>
      <point x="238" y="-98" type="line" smooth="yes"/>
      <point x="250" y="-97" type="line" smooth="yes"/>
      <point x="265" y="-96" type="line" smooth="yes"/>
      <point x="293" y="-99" type="line" smooth="yes"/>
      <point x="312" y="-110" type="line" smooth="yes"/>
      <point x="320" y="-130" type="line" smooth="yes"/>
      <point x="313" y="-152" type="line" smooth="yes"/>
      <point x="292" y="-165" type="line" smooth="yes"/>
      <point x="258" y="-169" type="line" smooth="yes"/>
      <point x="229" y="-166" type="line" smooth="yes"/>
      <point x="205" y="-158" type="line" smooth="yes"/>
      <point x="187" y="-148" type="line" smooth="yes"/>
      <point x="167" y="-184" type="line" smooth="yes"/>
      <point x="190" y="-197" type="line" smooth="yes"/>
      <point x="222" y="-207" type="line" smooth="yes"/>
      <point x="259" y="-211" type="line" smooth="yes"/>
      <point x="315" y="-202" type="line" smooth="yes"/>
      <point x="353" y="-175" type="line" smooth="yes"/>
      <point x="367" y="-127" type="line" smooth="yes"/>
      <point x="354" y="-86" type="line" smooth="yes"/>
      <point x="322" y="-65" type="line" smooth="yes"/>
      <point x="281" y="-58" type="line" smooth="yes"/>
      <point x="277" y="-58" type="line" smooth="yes"/>
      <point x="302" y="-10" type="line" smooth="yes"/>
      <point x="429" y="24" type="line" smooth="yes"/>
      <point x="509" y="108" type="line" smooth="yes"/>
      <point x="550" y="240" type="line" smooth="yes"/>
      <point x="552" y="254" type="line" smooth="yes"/>
      <point x="478" y="254" type="line" smooth="yes"/>
      <point x="447" y="145" type="line" smooth="yes"/>
      <point x="384" y="77" type="line" smooth="yes"/>
      <point x="286" y="54" type="line" smooth="yes"/>
      <point x="279" y="54" type="line" smooth="yes"/>
      <point x="176" y="87" type="line" smooth="yes"/>
      <point x="127" y="189" type="line" smooth="yes"/>
      <point x="130" y="370" type="line" smooth="yes"/>
    </contour>
  </outline>
</glyph>
<glyph name="Igrave" format="1">
  <advance width="229"/>
  <unicode hex="00CC"/>
  <outline>
    <contour>
      <point x="204" y="780" type="line" smooth="yes"/>
      <point x="132" y="780" type="line" smooth="yes"/>
      <point x="30" y="0" type="line" smooth="yes"/>
      <point x="102" y="0" type="line" smooth="yes"/>
    </contour>
    <contour>
      <point x="93" y="950" type="line" smooth="yes"/>
      <point x="140" y="840" type="line" smooth="yes"/>
      <point x="212" y="840" type="line" smooth="yes"/>
      <point x="167" y="950" type="line" smooth="yes"/>
    </contour>
  </outline>
</glyph>
<glyph name="Icircumflex" format="1">
  <advance width="229"/>
  <unicode hex="00CE"/>
  <outline>
    <contour>
      <point x="204" y="780" type="line" smooth="yes"/>
      <point x="132" y="780" type="line" smooth="yes"/>
      <point x="30" y="0" type="line" smooth="yes"/>
      <point x="102" y="0" type="line" smooth="yes"/>
    </contour>
    <contour>
      <point x="314" y="840" type="line" smooth="yes"/>
      <point x="223" y="950" type="line" smooth="yes"/>
      <point x="159" y="950" type="line" smooth="yes"/>
      <point x="38" y="840" type="line" smooth="yes"/>
      <point x="112" y="840" type="line" smooth="yes"/>
      <point x="190" y="909" type="line" smooth="yes"/>
      <point x="247" y="840" type="line" smooth="yes"/>
    </contour>
  </outline>
</glyph>
<glyph name="Ntilde" format="1">
  <advance width="659"/>
  <unicode hex="00D1"/>
  <outline>
    <contour>
      <point x="638" y="780" type="line" smooth="yes"/>
      <point x="568" y="780" type="line" smooth="yes"/>
      <point x="506" y="305" type="line" smooth="yes"/>
      <point x="485" y="122" type="line" smooth="yes"/>
      <point x="203" y="780" type="line" smooth="yes"/>
      <point x="127" y="780" type="line" smooth="yes"/>
      <point x="25" y="0" type="line" smooth="yes"/>
      <point x="95" y="0" type="line" smooth="yes"/>
      <point x="157" y="475" type="line" smooth="yes"/>
      <point x="178" y="658" type="line" smooth="yes"/>
      <point x="460" y="0" type="line" smooth="yes"/>
      <point x="536" y="0" type="line" smooth="yes"/>
    </contour>
    <contour>
      <point x="506" y="936" type="line" smooth="yes"/>
      <point x="498" y="909" type="line" smooth="yes"/>
      <point x="482" y="894" type="line" smooth="yes"/>
      <point x="461" y="889" type="line" smooth="yes"/>
      <point x="423" y="904" type="line" smooth="yes"/>
      <point x="384" y="932" type="line" smooth="yes"/>
      <point x="333" y="947" type="line" smooth="yes"/>
      <point x="290" y="937" type="line" smooth="yes"/>
      <point x="257" y="907" type="line" smooth="yes"/>
      <point x="240" y="854" type="line" smooth="yes"/>
      <point x="288" y="854" type="line" smooth="yes"/>
      <point x="296" y="881" type="line" smooth="yes"/>
      <point x="312" y="896" type="line" smooth="yes"/>
      <point x="333" y="901" type="line" smooth="yes"/>
      <point x="371" y="886" type="line" smooth="yes"/>
      <point x="410" y="858" type="line" smooth="yes"/>
      <point x="461" y="843" type="line" smooth="yes"/>
      <point x="504" y="853" type="line" smooth="yes"/>
      <point x="537" y="883" type="line" smooth="yes"/>
      <point x="554" y="936" type="line" smooth="yes"/>
    </contour>
  </outline>
</glyph>
<glyph name="Ograve" format="1">
  <advance width="641"/>
  <unicode hex="00D2"/>
  <outline>
    <contour>
      <point x="278" y="54" type="line" smooth="yes"/>
      <point x="175" y="87" type="line" smooth="yes"/>
      <point x="127" y="189" type="line" smooth="yes"/>
      <point x="130" y="370" type="line" smooth="yes"/>
      <point x="135" y="410" type="line" smooth="yes"/>
      <point x="178" y="591" type="line" smooth="yes"/>
      <point x="255" y="693" type="line" smooth="yes"/>
      <point x="367" y="726" type="line" smooth="yes"/>
      <point x="374" y="726" type="line" smooth="yes"/>
      <point x="477" y="693" type="line" smooth="yes"/>
      <point x="525" y="591" type="line" smooth="yes"/>
      <point x="522" y="410" type="line" smooth="yes"/>
      <point x="517" y="370" type="line" smooth="yes"/>
      <point x="474" y="189" type="line" smooth="yes"/>
      <point x="397" y="87" type="line" smooth="yes"/>
      <point x="285" y="54" type="line" smooth="yes"/>
    </contour>
    <contour>
      <point x="372" y="791" type="line" smooth="yes"/>
      <point x="220" y="752" type="line" smooth="yes"/>
      <point x="117" y="629" type="line" smooth="yes"/>
      <point x="61" y="410" type="line" smooth="yes"/>
      <point x="56" y="370" type="line" smooth="yes"/>
      <point x="59" y="151" type="line" smooth="yes"/>
      <point x="135" y="28" type="line" smooth="yes"/>
      <point x="280" y="-11" type="line" smooth="yes"/>
      <point x="432" y="28" type="line" smooth="yes"/>
      <point x="535" y="151" type="line" smooth="yes"/>
      <point x="591" y="370" type="line" smooth="yes"/>
      <point x="596" y="410" type="line" smooth="yes"/>
      <point x="593" y="629" type="line" smooth="yes"/>
      <point x="517" y="752" type="line" smooth="yes"/>
    </contour>
    <contour>
      <point x="302" y="950" type="line" smooth="yes"/>
      <point x="349" y="840" type="line" smooth="yes"/>
      <point x="421" y="840" type="line" smooth="yes"/>
      <point x="376" y="950" type="line" smooth="yes"/>
    </contour>
  </outline>
</glyph>
<glyph name="Otilde" format="1">
  <advance width="641"/>
  <unicode hex="00D5"/>
  <outline>
    <contour>
      <point x="278" y="54" type="line" smooth="yes"/>
      <point x="175" y="87" type="line" smooth="yes"/>
      <point x="127" y="189" type="line" smooth="yes"/>
      <point x="130" y="370" type="line" smooth="yes"/>
      <point x="135" y="410" type="line" smooth="yes"/>
      <point x="178" y="591" type="line" smooth="yes"/>
      <point x="255" y="693" type="line" smooth="yes"/>
      <point x="367" y="726" type="line" smooth="yes"/>
      <point x="374" y="726" type="line" smooth="yes"/>
      <point x="477" y="693" type="line" smooth="yes"/>
      <point x="525" y="591" type="line" smooth="yes"/>
      <point x="522" y="410" type="line" smooth="yes"/>
      <point x="517" y="370" type="line" smooth="yes"/>
      <point x="474" y="189" type="line" smooth="yes"/>
      <point x="397" y="87" type="line" smooth="yes"/>
      <point x="285" y="54" type="line" smooth="yes"/>
    </contour>
    <contour>
      <point x="372" y="791" type="line" smooth="yes"/>
      <point x="220" y="752" type="line" smooth="yes"/>
      <point x="117" y="629" type="line" smooth="yes"/>
      <point x="61" y="410" type="line" smooth="yes"/>
      <point x="56" y="370" type="line" smooth="yes"/>
      <point x="59" y="151" type="line" smooth="yes"/>
      <point x="135" y="28" type="line" smooth="yes"/>
      <point x="280" y="-11" type="line" smooth="yes"/>
      <point x="432" y="28" type="line" smooth="yes"/>
      <point x="535" y="151" type="line" smooth="yes"/>
      <point x="591" y="370" type="line" smooth="yes"/>
      <point x="596" y="410" type="line" smooth="yes"/>
      <point x="593" y="629" type="line" smooth="yes"/>
      <point x="517" y="752" type="line" smooth="yes"/>
    </contour>
    <contour>
      <point x="501" y="936" type="line" smooth="yes"/>
      <point x="493" y="909" type="line" smooth="yes"/>
      <point x="477" y="894" type="line" smooth="yes"/>
      <point x="456" y="889" type="line" smooth="yes"/>
      <point x="418" y="904" type="line" smooth="yes"/>
      <point x="379" y="932" type="line" smooth="yes"/>
      <point x="328" y="947" type="line" smooth="yes"/>
      <point x="285" y="937" type="line" smooth="yes"/>
      <point x="252" y="907" type="line" smooth="yes"/>
      <point x="235" y="854" type="line" smooth="yes"/>
      <point x="283" y="854" type="line" smooth="yes"/>
      <point x="291" y="881" type="line" smooth="yes"/>
      <point x="307" y="896" type="line" smooth="yes"/>
      <point x="328" y="901" type="line" smooth="yes"/>
      <point x="366" y="886" type="line" smooth="yes"/>
      <point x="405" y="858" type="line" smooth="yes"/>
      <point x="456" y="843" type="line" smooth="yes"/>
      <point x="499" y="853" type="line" smooth="yes"/>
      <point x="532" y="883" type="line" smooth="yes"/>
      <point x="549" y="936" type="line" smooth="yes"/>
    </contour>
  </outline>
</glyph>
<glyph name="Oslash" format="1">
  <advance width="638"/>
  <unicode hex="00D8"/>
  <outline>
    <contour>
      <point x="521" y="611" type="line" smooth="yes"/>
      <point x="529" y="556" type="line" smooth="yes"/>
      <point x="529" y="489" type="line" smooth="yes"/>
      <point x="522" y="410" type="line" smooth="yes"/>
      <point x="517" y="370" type="line" smooth="yes"/>
      <point x="474" y="189" type="line" smooth="yes"/>
      <point x="397" y="87" type="line" smooth="yes"/>
      <point x="285" y="54" type="line" smooth="yes"/>
      <point x="278" y="54" type="line" smooth="yes"/>
      <point x="226" y="60" type="line" smooth="yes"/>
      <point x="185" y="78" type="line" smooth="yes"/>
      <point x="155" y="109" type="line" smooth="yes"/>
    </contour>
    <contour>
      <point x="131" y="169" type="line" smooth="yes"/>
      <point x="123" y="224" type="line" smooth="yes"/>
      <point x="123" y="291" type="line" smooth="yes"/>
      <point x="130" y="370" type="line" smooth="yes"/>
      <point x="135" y="410" type="line" smooth="yes"/>
      <point x="178" y="591" type="line" smooth="yes"/>
      <point x="255" y="693" type="line" smooth="yes"/>
      <point x="367" y="726" type="line" smooth="yes"/>
      <point x="374" y="726" type="line" smooth="yes"/>
      <point x="426" y="720" type="line" smooth="yes"/>
      <point x="467" y="702" type="line" smooth="yes"/>
      <point x="497" y="671" type="line" smooth="yes"/>
    </contour>
    <contour>
      <point x="56" y="370" type="line" smooth="yes"/>
      <point x="48" y="259" type="line" smooth="yes"/>
      <point x="55" y="168" type="line" smooth="yes"/>
      <point x="78" y="97" type="line" smooth="yes"/>
      <point x="7" y="0" type="line" smooth="yes"/>
      <point x="75" y="0" type="line" smooth="yes"/>
      <point x="111" y="49" type="line" smooth="yes"/>
      <point x="156" y="15" type="line" smooth="yes"/>
      <point x="212" y="-5" type="line" smooth="yes"/>
      <point x="280" y="-11" type="line" smooth="yes"/>
      <point x="432" y="28" type="line" smooth="yes"/>
      <point x="535" y="151" type="line" smooth="yes"/>
      <point x="591" y="370" type="line" smooth="yes"/>
      <point x="596" y="410" type="line" smooth="yes"/>
      <point x="604" y="521" type="line" smooth="yes"/>
      <point x="597" y="612" type="line" smooth="yes"/>
      <point x="574" y="683" type="line" smooth="yes"/>
      <point x="645" y="780" type="line" smooth="yes"/>
      <point x="577" y="780" type="line" smooth="yes"/>
      <point x="541" y="731" type="line" smooth="yes"/>
      <point x="496" y="765" type="line" smooth="yes"/>
      <point x="440" y="785" type="line" smooth="yes"/>
      <point x="372" y="791" type="line" smooth="yes"/>
      <point x="220" y="752" type="line" smooth="yes"/>
      <point x="117" y="629" type="line" smooth="yes"/>
      <point x="61" y="410" type="line" smooth="yes"/>
    </contour>
  </outline>
</glyph>
<glyph name="Ugrave" format="1">
  <advance width="639"/>
  <unicode hex="00D9"/>
  <outline>
    <contour>
      <point x="272" y="-11" type="line" smooth="yes"/>
      <point x="413" y="13" type="line" smooth="yes"/>
      <point x="506" y="94" type="line" smooth="yes"/>
      <point x="552" y="242" type="line" smooth="yes"/>
      <point x="623" y="780" type="line" smooth="yes"/>
      <point x="551" y="780" type="line" smooth="yes"/>
      <point x="481" y="247" type="line" smooth="yes"/>
      <point x="446" y="133" type="line" smooth="yes"/>
      <point x="377" y="72" type="line" smooth="yes"/>
      <point x="274" y="54" type="line" smooth="yes"/>
      <point x="178" y="72" type="line" smooth="yes"/>
      <point x="128" y="132" type="line" smooth="yes"/>
      <point x="124" y="247" type="line" smooth="yes"/>
      <point x="194" y="780" type="line" smooth="yes"/>
      <point x="122" y="780" type="line" smooth="yes"/>
      <point x="51" y="242" type="line" smooth="yes"/>
      <point x="60" y="93" type="line" smooth="yes"/>
      <point x="135" y="13" type="line" smooth="yes"/>
    </contour>
    <contour>
      <point x="297" y="950" type="line" smooth="yes"/>
      <point x="344" y="840" type="line" smooth="yes"/>
      <point x="416" y="840" type="line" smooth="yes"/>
      <point x="371" y="950" type="line" smooth="yes"/>
    </contour>
  </outline>
</glyph>
<glyph name="Thorn" format="1">
  <advance width="569"/>
  <unicode hex="00DE"/>
  <outline>
    <contour>
      <point x="199" y="780" type="line" smooth="yes"/>
      <point x="127" y="780" type="line" smooth="yes"/>
      <point x="25" y="0" type="line" smooth="yes"/>
      <point x="97" y="0" type="line" smooth="yes"/>
      <point x="118" y="159" type="line" smooth="yes"/>
      <point x="265" y="159" type="line" smooth="yes"/>
      <point x="377" y="176" type="line" smooth="yes"/>
      <point x="474" y="241" type="line" smooth="yes"/>
      <point x="530" y="376" type="line" smooth="yes"/>
      <point x="533" y="396" type="line" smooth="yes"/>
      <point x="515" y="535" type="line" smooth="yes"/>
      <point x="431" y="603" type="line" smooth="yes"/>
      <point x="321" y="622" type="line" smooth="yes"/>
      <point x="178" y="622" type="line" smooth="yes"/>
    </contour>
    <contour>
      <point x="127" y="224" type="line" smooth="yes"/>
      <point x="170" y="557" type="line" smooth="yes"/>
      <point x="315" y="557" type="line" smooth="yes"/>
      <point x="386" y="545" type="line" smooth="yes"/>
      <point x="445" y="497" type="line" smooth="yes"/>
      <point x="459" y="395" type="line" smooth="yes"/>
      <point x="457" y="380" type="line" smooth="yes"/>
      <point x="417" y="280" type="line" smooth="yes"/>
      <point x="349" y="235" type="line" smooth="yes"/>
      <point x="276" y="224" type="line" smooth="yes"/>
    </contour>
  </outline>
</glyph>
<glyph name="germandbls" format="1">
  <advance width="569"/>
  <unicode hex="00DF"/>
  <outline>
    <contour>
      <point x="321" y="52" type="line" smooth="yes"/>
      <point x="256" y="67" type="line" smooth="yes"/>
      <point x="232" y="105" type="line" smooth="yes"/>
      <point x="234" y="162" type="line" smooth="yes"/>
      <point x="168" y="162" type="line" smooth="yes"/>
      <point x="166" y="149" type="line" smooth="yes"/>
      <point x="170" y="70" type="line" smooth="yes"/>
      <point x="217" y="12" type="line" smooth="yes"/>
      <point x="320" y="-11" type="line" smooth="yes"/>
      <point x="430" y="15" type="line" smooth="yes"/>
      <point x="490" y="78" type="line" smooth="yes"/>
      <point x="514" y="156" type="line" smooth="yes"/>
      <point x="515" y="164" type="line" smooth="yes"/>
      <point x="508" y="237" type="line" smooth="yes"/>
      <point x="466" y="300" type="line" smooth="yes"/>
      <point x="389" y="364" type="line" smooth="yes"/>
      <point x="348" y="394" type="line" smooth="yes"/>
      <point x="431" y="455" type="line" smooth="yes"/>
      <point x="482" y="522" type="line" smooth="yes"/>
      <point x="505" y="601" type="line" smooth="yes"/>
      <point x="506" y="609" type="line" smooth="yes"/>
      <point x="497" y="713" type="line" smooth="yes"/>
      <point x="437" y="785" type="line" smooth="yes"/>
      <point x="320" y="811" type="line" smooth="yes"/>
      <point x="205" y="786" type="line" smooth="yes"/>
      <point x="131" y="716" type="line" smooth="yes"/>
      <point x="96" y="609" type="line" smooth="yes"/>
      <point x="16" y="0" type="line" smooth="yes"/>
      <point x="86" y="0" type="line" smooth="yes"/>
      <point x="165" y="604" type="line" smooth="yes"/>
      <point x="189" y="681" type="line" smooth="yes"/>
      <point x="240" y="729" type="line" smooth="yes"/>
      <point x="320" y="746" type="line" smooth="yes"/>
      <point x="387" y="732" type="line" smooth="yes"/>
      <point x="425" y="693" type="line" smooth="yes"/>
      <point x="437" y="633" type="line" smooth="yes"/>
      <point x="420" y="546" type="line" smooth="yes"/>
      <point x="364" y="477" type="line" smooth="yes"/>
      <point x="267" y="415" type="line" smooth="yes"/>
      <point x="261" y="370" type="line" smooth="yes"/>
      <point x="331" y="319" type="line" smooth="yes"/>
      <point x="398" y="266" type="line" smooth="yes"/>
      <point x="435" y="223" type="line" smooth="yes"/>
      <point x="446" y="176" type="line" smooth="yes"/>
      <point x="434" y="116" type="line" smooth="yes"/>
      <point x="394" y="70" type="line" smooth="yes"/>
    </contour>
  </outline>
</glyph>
<glyph name="aacute" format="1">
  <advance width="508"/>
  <unicode hex="00E1"/>
  <outline>
    <contour>
      <point x="174" y="50" type="line" smooth="yes"/>
      <point x="119" y="63" type="line" smooth="yes"/>
      <point x="90" y="97" type="line" smooth="yes"/>
      <point x="85" y="141" type="line" smooth="yes"/>
      <point x="87" y="155" type="line" smooth="yes"/>
      <point x="106" y="202" type="line" smooth="yes"/>
      <point x="147" y="233" type="line" smooth="yes"/>
      <point x="209" y="251" type="line" smooth="yes"/>
      <point x="365" y="276" type="line" smooth="yes"/>
      <point x="347" y="136" type="line" smooth="yes"/>
      <point x="314" y="100" type="line" smooth="yes"/>
      <point x="258" y="66" type="line" smooth="yes"/>
    </contour>
    <contour>
      <point x="347" y="0" type="line" smooth="yes"/>
      <point x="405" y="0" type="line" smooth="yes"/>
      <point x="418" y="150" type="line" smooth="yes"/>
      <point x="444" y="344" type="line" smooth="yes"/>
      <point x="439" y="448" type="line" smooth="yes"/>
      <point x="385" y="516" type="line" smooth="yes"/>
      <point x="268" y="541" type="line" smooth="yes"/>
      <point x="152" y="514" type="line" smooth="yes"/>
      <point x="89" y="448" type="line" smooth="yes"/>
      <point x="64" y="368" type="line" smooth="yes"/>
      <point x="62" y="355" type="line" smooth="yes"/>
      <point x="129" y="355" type="line" smooth="yes"/>
      <point x="146" y="418" type="line" smooth="yes"/>
      <point x="188" y="464" type="line" smooth="yes"/>
      <point x="266" y="482" type="line" smooth="yes"/>
      <point x="340" y="467" type="line" smooth="yes"/>
      <point x="373" y="424" type="line" smooth="yes"/>
      <point x="375" y="353" type="line" smooth="yes"/>
      <point x="372" y="331" type="line" smooth="yes"/>
      <point x="208" y="305" type="line" smooth="yes"/>
      <point x="116" y="283" type="line" smooth="yes"/>
      <point x="49" y="237" type="line" smooth="yes"/>
      <point x="15" y="151" type="line" smooth="yes"/>
      <point x="13" y="135" type="line" smooth="yes"/>
      <point x="23" y="59" type="line" smooth="yes"/>
      <point x="73" y="8" type="line" smooth="yes"/>
      <point x="158" y="-11" type="line" smooth="yes"/>
      <point x="238" y="1" type="line" smooth="yes"/>
      <point x="301" y="32" type="line" smooth="yes"/>
      <point x="347" y="74" type="line" smooth="yes"/>
    </contour>
    <contour>
      <point x="363" y="780" type="line" smooth="yes"/>
      <point x="251" y="614" type="line" smooth="yes"/>
      <point x="323" y="614" type="line" smooth="yes"/>
      <point x="439" y="780" type="line" smooth="yes"/>
    </contour>
  </outline>
</glyph>
<glyph name="atilde" format="1">
  <advance width="512"/>
  <unicode hex="00E3"/>
  <outline>
    <contour>
      <point x="174" y="50" type="line" smooth="yes"/>
      <point x="119" y="63" type="line" smooth="yes"/>
      <point x="90" y="97" type="line" smooth="yes"/>
      <point x="85" y="141" type="line" smooth="yes"/>
      <point x="87" y="155" type="line" smooth="yes"/>
      <point x="106" y="202" type="line" smooth="yes"/>
      <point x="147" y="233" type="line" smooth="yes"/>
      <point x="209" y="251" type="line" smooth="yes"/>
      <point x="365" y="276" type="line" smooth="yes"/>
      <point x="347" y="136" type="line" smooth="yes"/>
      <point x="314" y="100" type="line" smooth="yes"/>
      <point x="258" y="66" type="line" smooth="yes"/>
    </contour>
    <contour>
      <point x="347" y="0" type="line" smooth="yes"/>
      <point x="405" y="0" type="line" smooth="yes"/>
      <point x="418" y="150" type="line" smooth="yes"/>
      <point x="444" y="344" type="line" smooth="yes"/>
      <point x="439" y="448" type="line" smooth="yes"/>
      <point x="385" y="516" type="line" smooth="yes"/>
      <point x="268" y="541" type="line" smooth="yes"/>
      <point x="152" y="514" type="line" smooth="yes"/>
      <point x="89" y="448" type="line" smooth="yes"/>
      <point x="64" y="368" type="line" smooth="yes"/>
      <point x="62" y="355" type="line" smooth="yes"/>
      <point x="129" y="355" type="line" smooth="yes"/>
      <point x="146" y="418" type="line" smooth="yes"/>
      <point x="188" y="464" type="line" smooth="yes"/>
      <point x="266" y="482" type="line" smooth="yes"/>
      <point x="340" y="467" type="line" smooth="yes"/>
      <point x="373" y="424" type="line" smooth="yes"/>
      <point x="375" y="353" type="line" smooth="yes"/>
      <point x="372" y="331" type="line" smooth="yes"/>
      <point x="208" y="305" type="line" smooth="yes"/>
      <point x="116" y="283" type="line" smooth="yes"/>
      <point x="49" y="237" type="line" smooth="yes"/>
      <point x="15" y="151" type="line" smooth="yes"/>
      <point x="13" y="135" type="line" smooth="yes"/>
      <point x="23" y="59" type="line" smooth="yes"/>
      <point x="73" y="8" type="line" smooth="yes"/>
      <point x="158" y="-11" type="line" smooth="yes"/>
      <point x="238" y="1" type="line" smooth="yes"/>
      <point x="301" y="32" type="line" smooth="yes"/>
      <point x="347" y="74" type="line" smooth="yes"/>
    </contour>
    <contour>
      <point x="408" y="746" type="line" smooth="yes"/>
      <point x="399" y="719" type="line" smooth="yes"/>
      <point x="385" y="704" type="line" smooth="yes"/>
      <point x="366" y="699" type="line" smooth="yes"/>
      <point x="325" y="714" type="line" smooth="yes"/>
      <point x="283" y="742" type="line" smooth="yes"/>
      <point x="231" y="757" type="line" smooth="yes"/>
      <point x="187" y="746" type="line" smooth="yes"/>
      <point x="155" y="712" type="line" smooth="yes"/>
      <point x="137" y="654" type="line" smooth="yes"/>
      <point x="190" y="654" type="line" smooth="yes"/>
      <point x="198" y="681" type="line" smooth="yes"/>
      <point x="212" y="696" type="line" smooth="yes"/>
      <point x="231" y="701" type="line" smooth="yes"/>
      <point x="272" y="686" type="line" smooth="yes"/>
      <point x="314" y="658" type="line" smooth="yes"/>
      <point x="366" y="643" type="line" smooth="yes"/>
      <point x="410" y="654" type="line" smooth="yes"/>
      <point x="443" y="688" type="line" smooth="yes"/>
      <point x="461" y="746" type="line" smooth="yes"/>
    </contour>
  </outline>
</glyph>
<glyph name="ae" format="1">
  <advance width="866"/>
  <unicode hex="00E6"/>
  <outline>
    <contour>
      <point x="618" y="478" type="line" smooth="yes"/>
      <point x="699" y="456" type="line" smooth="yes"/>
      <point x="740" y="394" type="line" smooth="yes"/>
      <point x="743" y="294" type="line" smooth="yes"/>
      <point x="439" y="294" type="line" smooth="yes"/>
      <point x="471" y="390" type="line" smooth="yes"/>
      <point x="532" y="454" type="line" smooth="yes"/>
    </contour>
    <contour>
      <point x="174" y="50" type="line" smooth="yes"/>
      <point x="119" y="63" type="line" smooth="yes"/>
      <point x="90" y="97" type="line" smooth="yes"/>
      <point x="85" y="141" type="line" smooth="yes"/>
      <point x="87" y="155" type="line" smooth="yes"/>
      <point x="106" y="202" type="line" smooth="yes"/>
      <point x="147" y="233" type="line" smooth="yes"/>
      <point x="209" y="251" type="line" smooth="yes"/>
      <point x="366" y="276" type="line" smooth="yes"/>
      <point x="363" y="255" type="line" smooth="yes"/>
      <point x="359" y="220" type="line" smooth="yes"/>
      <point x="359" y="186" type="line" smooth="yes"/>
      <point x="362" y="154" type="line" smooth="yes"/>
      <point x="319" y="107" type="line" smooth="yes"/>
      <point x="257" y="67" type="line" smooth="yes"/>
    </contour>
    <contour>
      <point x="806" y="236" type="line" smooth="yes"/>
      <point x="811" y="275" type="line" smooth="yes"/>
      <point x="806" y="413" type="line" smooth="yes"/>
      <point x="744" y="506" type="line" smooth="yes"/>
      <point x="618" y="541" type="line" smooth="yes"/>
      <point x="540" y="529" type="line" smooth="yes"/>
      <point x="479" y="496" type="line" smooth="yes"/>
      <point x="432" y="444" type="line" smooth="yes"/>
      <point x="406" y="496" type="line" smooth="yes"/>
      <point x="353" y="529" type="line" smooth="yes"/>
      <point x="268" y="541" type="line" smooth="yes"/>
      <point x="152" y="514" type="line" smooth="yes"/>
      <point x="89" y="448" type="line" smooth="yes"/>
      <point x="64" y="368" type="line" smooth="yes"/>
      <point x="62" y="355" type="line" smooth="yes"/>
      <point x="129" y="355" type="line" smooth="yes"/>
      <point x="146" y="418" type="line" smooth="yes"/>
      <point x="188" y="464" type="line" smooth="yes"/>
      <point x="266" y="482" type="line" smooth="yes"/>
      <point x="340" y="467" type="line" smooth="yes"/>
      <point x="373" y="424" type="line" smooth="yes"/>
      <point x="375" y="353" type="line" smooth="yes"/>
      <point x="372" y="331" type="line" smooth="yes"/>
      <point x="208" y="305" type="line" smooth="yes"/>
      <point x="116" y="283" type="line" smooth="yes"/>
      <point x="49" y="237" type="line" smooth="yes"/>
      <point x="15" y="151" type="line" smooth="yes"/>
      <point x="13" y="135" type="line" smooth="yes"/>
      <point x="23" y="59" type="line" smooth="yes"/>
      <point x="73" y="8" type="line" smooth="yes"/>
      <point x="158" y="-11" type="line" smooth="yes"/>
      <point x="239" y="2" type="line" smooth="yes"/>
      <point x="316" y="37" type="line" smooth="yes"/>
      <point x="380" y="91" type="line" smooth="yes"/>
      <point x="420" y="37" type="line" smooth="yes"/>
      <point x="483" y="2" type="line" smooth="yes"/>
      <point x="572" y="-11" type="line" smooth="yes"/>
      <point x="689" y="15" type="line" smooth="yes"/>
      <point x="763" y="79" type="line" smooth="yes"/>
      <point x="795" y="157" type="line" smooth="yes"/>
      <point x="797" y="170" type="line" smooth="yes"/>
      <point x="730" y="170" type="line" smooth="yes"/>
      <point x="710" y="114" type="line" smooth="yes"/>
      <point x="660" y="70" type="line" smooth="yes"/>
      <point x="574" y="52" type="line" smooth="yes"/>
      <point x="483" y="74" type="line" smooth="yes"/>
      <point x="438" y="137" type="line" smooth="yes"/>
      <point x="432" y="236" type="line" smooth="yes"/>
    </contour>
  </outline>
</glyph>
<glyph name="ccedilla" format="1">
  <advance width="519"/>
  <unicode hex="00E7"/>
  <outline>
    <contour>
      <point x="108" y="279" type="line" smooth="yes"/>
      <point x="138" y="386" type="line" smooth="yes"/>
      <point x="196" y="454" type="line" smooth="yes"/>
      <point x="280" y="478" type="line" smooth="yes"/>
      <point x="358" y="459" type="line" smooth="yes"/>
      <point x="397" y="408" type="line" smooth="yes"/>
      <point x="401" y="336" type="line" smooth="yes"/>
      <point x="468" y="336" type="line" smooth="yes"/>
      <point x="470" y="349" type="line" smooth="yes"/>
      <point x="462" y="437" type="line" smooth="yes"/>
      <point x="403" y="510" type="line" smooth="yes"/>
      <point x="280" y="541" type="line" smooth="yes"/>
      <point x="155" y="507" type="line" smooth="yes"/>
      <point x="76" y="413" type="line" smooth="yes"/>
      <point x="37" y="277" type="line" smooth="yes"/>
      <point x="34" y="255" type="line" smooth="yes"/>
      <point x="40" y="127" type="line" smooth="yes"/>
      <point x="96" y="34" type="line" smooth="yes"/>
      <point x="205" y="-9" type="line" smooth="yes"/>
      <point x="169" y="-80" type="line" smooth="yes"/>
      <point x="182" y="-99" type="line" smooth="yes"/>
      <point x="186" y="-98" type="line" smooth="yes"/>
      <point x="198" y="-97" type="line" smooth="yes"/>
      <point x="213" y="-96" type="line" smooth="yes"/>
      <point x="241" y="-99" type="line" smooth="yes"/>
      <point x="260" y="-110" type="line" smooth="yes"/>
      <point x="268" y="-130" type="line" smooth="yes"/>
      <point x="261" y="-152" type="line" smooth="yes"/>
      <point x="240" y="-165" type="line" smooth="yes"/>
      <point x="206" y="-169" type="line" smooth="yes"/>
      <point x="177" y="-166" type="line" smooth="yes"/>
      <point x="153" y="-158" type="line" smooth="yes"/>
      <point x="135" y="-148" type="line" smooth="yes"/>
      <point x="115" y="-184" type="line" smooth="yes"/>
      <point x="138" y="-197" type="line" smooth="yes"/>
      <point x="170" y="-207" type="line" smooth="yes"/>
      <point x="207" y="-211" type="line" smooth="yes"/>
      <point x="263" y="-202" type="line" smooth="yes"/>
      <point x="301" y="-175" type="line" smooth="yes"/>
      <point x="315" y="-127" type="line" smooth="yes"/>
      <point x="302" y="-86" type="line" smooth="yes"/>
      <point x="270" y="-65" type="line" smooth="yes"/>
      <point x="229" y="-58" type="line" smooth="yes"/>
      <point x="225" y="-58" type="line" smooth="yes"/>
      <point x="250" y="-10" type="line" smooth="yes"/>
      <point x="357" y="20" type="line" smooth="yes"/>
      <point x="419" y="86" type="line" smooth="yes"/>
      <point x="446" y="171" type="line" smooth="yes"/>
      <point x="448" y="184" type="line" smooth="yes"/>
      <point x="380" y="184" type="line" smooth="yes"/>
      <point x="359" y="118" type="line" smooth="yes"/>
      <point x="313" y="70" type="line" smooth="yes"/>
      <point x="234" y="52" type="line" smooth="yes"/>
      <point x="151" y="77" type="line" smooth="yes"/>
      <point x="108" y="148" type="line" smooth="yes"/>
      <point x="105" y="257" type="line" smooth="yes"/>
    </contour>
  </outline>
</glyph>
<glyph name="eacute" format="1">
  <advance width="539"/>
  <unicode hex="00E9"/>
  <outline>
    <contour>
      <point x="289" y="478" type="line" smooth="yes"/>
      <point x="370" y="456" type="line" smooth="yes"/>
      <point x="411" y="394" type="line" smooth="yes"/>
      <point x="414" y="294" type="line" smooth="yes"/>
      <point x="110" y="294" type="line" smooth="yes"/>
      <point x="142" y="390" type="line" smooth="yes"/>
      <point x="203" y="454" type="line" smooth="yes"/>
    </contour>
    <contour>
      <point x="477" y="236" type="line" smooth="yes"/>
      <point x="482" y="275" type="line" smooth="yes"/>
      <point x="477" y="413" type="line" smooth="yes"/>
      <point x="415" y="506" type="line" smooth="yes"/>
      <point x="289" y="541" type="line" smooth="yes"/>
      <point x="162" y="506" type="line" smooth="yes"/>
      <point x="78" y="413" type="line" smooth="yes"/>
      <point x="37" y="277" type="line" smooth="yes"/>
      <point x="34" y="255" type="line" smooth="yes"/>
      <point x="40" y="121" type="line" smooth="yes"/>
      <point x="106" y="25" type="line" smooth="yes"/>
      <point x="243" y="-11" type="line" smooth="yes"/>
      <point x="360" y="15" type="line" smooth="yes"/>
      <point x="434" y="79" type="line" smooth="yes"/>
      <point x="466" y="157" type="line" smooth="yes"/>
      <point x="468" y="170" type="line" smooth="yes"/>
      <point x="401" y="170" type="line" smooth="yes"/>
      <point x="381" y="114" type="line" smooth="yes"/>
      <point x="331" y="70" type="line" smooth="yes"/>
      <point x="245" y="52" type="line" smooth="yes"/>
      <point x="154" y="74" type="line" smooth="yes"/>
      <point x="109" y="137" type="line" smooth="yes"/>
      <point x="103" y="236" type="line" smooth="yes"/>
    </contour>
    <contour>
      <point x="380" y="780" type="line" smooth="yes"/>
      <point x="268" y="614" type="line" smooth="yes"/>
      <point x="340" y="614" type="line" smooth="yes"/>
      <point x="456" y="780" type="line" smooth="yes"/>
    </contour>
  </outline>
</glyph>
<glyph name="idieresis" format="1">
  <advance width="216"/>
  <unicode hex="00EF"/>
  <outline>
    <contour>
      <point x="24" y="0" type="line" smooth="yes"/>
      <point x="94" y="0" type="line" smooth="yes"/>
      <point x="163" y="530" type="line" smooth="yes"/>
      <point x="93" y="530" type="line" smooth="yes"/>
    </contour>
    <contour>
      <point x="285" y="745" type="line" smooth="yes"/>
      <point x="195" y="745" type="line" smooth="yes"/>
      <point x="183" y="655" type="line" smooth="yes"/>
      <point x="273" y="655" type="line" smooth="yes"/>
    </contour>
    <contour>
      <point x="118" y="745" type="line" smooth="yes"/>
      <point x="28" y="745" type="line" smooth="yes"/>
      <point x="16" y="655" type="line" smooth="yes"/>
      <point x="106" y="655" type="line" smooth="yes"/>
    </contour>
  </outline>
</glyph>
<glyph name="eth" format="1">
  <advance width="543"/>
  <unicode hex="00F0"/>
  <outline>
    <contour>
      <point x="232" y="52" type="line" smooth="yes"/>
      <point x="149" y="77" type="line" smooth="yes"/>
      <point x="107" y="148" type="line" smooth="yes"/>
      <point x="105" y="257" type="line" smooth="yes"/>
      <point x="108" y="279" type="line" smooth="yes"/>
      <point x="139" y="386" type="line" smooth="yes"/>
      <point x="197" y="454" type="line" smooth="yes"/>
      <point x="283" y="478" type="line" smooth="yes"/>
      <point x="367" y="452" type="line" smooth="yes"/>
      <point x="409" y="380" type="line" smooth="yes"/>
      <point x="411" y="273" type="line" smooth="yes"/>
      <point x="408" y="251" type="line" smooth="yes"/>
      <point x="377" y="144" type="line" smooth="yes"/>
      <point x="318" y="76" type="line" smooth="yes"/>
    </contour>
    <contour>
      <point x="99" y="747" type="line" smooth="yes"/>
      <point x="154" y="738" type="line" smooth="yes"/>
      <point x="205" y="724" type="line" smooth="yes"/>
      <point x="254" y="703" type="line" smooth="yes"/>
      <point x="122" y="632" type="line" smooth="yes"/>
      <point x="114" y="577" type="line" smooth="yes"/>
      <point x="298" y="676" type="line" smooth="yes"/>
      <point x="318" y="660" type="line" smooth="yes"/>
      <point x="338" y="643" type="line" smooth="yes"/>
      <point x="358" y="620" type="line" smooth="yes"/>
      <point x="382" y="583" type="line" smooth="yes"/>
      <point x="400" y="541" type="line" smooth="yes"/>
      <point x="413" y="496" type="line" smooth="yes"/>
      <point x="379" y="521" type="line" smooth="yes"/>
      <point x="335" y="536" type="line" smooth="yes"/>
      <point x="283" y="541" type="line" smooth="yes"/>
      <point x="157" y="507" type="line" smooth="yes"/>
      <point x="77" y="413" type="line" smooth="yes"/>
      <point x="37" y="277" type="line" smooth="yes"/>
      <point x="34" y="255" type="line" smooth="yes"/>
      <point x="41" y="120" type="line" smooth="yes"/>
      <point x="106" y="25" type="line" smooth="yes"/>
      <point x="232" y="-11" type="line" smooth="yes"/>
      <point x="358" y="23" type="line" smooth="yes"/>
      <point x="439" y="117" type="line" smooth="yes"/>
      <point x="479" y="253" type="line" smooth="yes"/>
      <point x="482" y="275" type="line" smooth="yes"/>
      <point x="489" y="404" type="line" smooth="yes"/>
      <point x="472" y="541" type="line" smooth="yes"/>
      <point x="419" y="662" type="line" smooth="yes"/>
      <point x="403" y="681" type="line" smooth="yes"/>
      <point x="387" y="698" type="line" smooth="yes"/>
      <point x="369" y="714" type="line" smooth="yes"/>
      <point x="449" y="756" type="line" smooth="yes"/>
      <point x="456" y="811" type="line" smooth="yes"/>
      <point x="330" y="743" type="line" smooth="yes"/>
      <point x="262" y="778" type="line" smooth="yes"/>
      <point x="187" y="800" type="line" smooth="yes"/>
      <point x="107" y="811" type="line" smooth="yes"/>
    </contour>
  </outline>
</glyph>
<glyph name="ntilde" format="1">
  <advance width="528"/>
  <unicode hex="00F1"/>
  <outline>
    <contour>
      <point x="416" y="0" type="line" smooth="yes"/>
      <point x="465" y="371" type="line" smooth="yes"/>
      <point x="457" y="460" type="line" smooth="yes"/>
      <point x="407" y="519" type="line" smooth="yes"/>
      <point x="314" y="541" type="line" smooth="yes"/>
      <point x="243" y="530" type="line" smooth="yes"/>
      <point x="184" y="501" type="line" smooth="yes"/>
      <point x="140" y="456" type="line" smooth="yes"/>
      <point x="140" y="530" type="line" smooth="yes"/>
      <point x="80" y="530" type="line" smooth="yes"/>
      <point x="67" y="386" type="line" smooth="yes"/>
      <point x="16" y="0" type="line" smooth="yes"/>
      <point x="86" y="0" type="line" smooth="yes"/>
      <point x="138" y="395" type="line" smooth="yes"/>
      <point x="171" y="432" type="line" smooth="yes"/>
      <point x="221" y="464" type="line" smooth="yes"/>
      <point x="290" y="478" type="line" smooth="yes"/>
      <point x="353" y="465" type="line" smooth="yes"/>
      <point x="389" y="427" type="line" smooth="yes"/>
      <point x="394" y="361" type="line" smooth="yes"/>
      <point x="346" y="0" type="line" smooth="yes"/>
    </contour>
    <contour>
      <point x="419" y="746" type="line" smooth="yes"/>
      <point x="410" y="719" type="line" smooth="yes"/>
      <point x="396" y="704" type="line" smooth="yes"/>
      <point x="377" y="699" type="line" smooth="yes"/>
      <point x="336" y="714" type="line" smooth="yes"/>
      <point x="294" y="742" type="line" smooth="yes"/>
      <point x="242" y="757" type="line" smooth="yes"/>
      <point x="198" y="746" type="line" smooth="yes"/>
      <point x="166" y="712" type="line" smooth="yes"/>
      <point x="148" y="654" type="line" smooth="yes"/>
      <point x="201" y="654" type="line" smooth="yes"/>
      <point x="209" y="681" type="line" smooth="yes"/>
      <point x="223" y="696" type="line" smooth="yes"/>
      <point x="242" y="701" type="line" smooth="yes"/>
      <point x="283" y="686" type="line" smooth="yes"/>
      <point x="325" y="658" type="line" smooth="yes"/>
      <point x="377" y="643" type="line" smooth="yes"/>
      <point x="421" y="654" type="line" smooth="yes"/>
      <point x="454" y="688" type="line" smooth="yes"/>
      <point x="472" y="746" type="line" smooth="yes"/>
    </contour>
  </outline>
</glyph>
<glyph name="ocircumflex" format="1">
  <advance width="540"/>
  <unicode hex="00F4"/>
  <outline>
    <contour>
      <point x="232" y="-11" type="line" smooth="yes"/>
      <point x="358" y="23" type="line" smooth="yes"/>
      <point x="439" y="117" type="line" smooth="yes"/>
      <point x="479" y="253" type="line" smooth="yes"/>
      <point x="482" y="275" type="line" smooth="yes"/>
      <point x="475" y="410" type="line" smooth="yes"/>
      <point x="410" y="505" type="line" smooth="yes"/>
      <point x="283" y="541" type="line" smooth="yes"/>
      <point x="157" y="507" type="line" smooth="yes"/>
      <point x="77" y="413" type="line" smooth="yes"/>
      <point x="37" y="277" type="line" smooth="yes"/>
      <point x="34" y="255" type="line" smooth="yes"/>
      <point x="41" y="120" type="line" smooth="yes"/>
      <point x="106" y="25" type="line" smooth="yes"/>
    </contour>
    <contour>
      <point x="232" y="52" type="line" smooth="yes"/>
      <point x="149" y="77" type="line" smooth="yes"/>
      <point x="107" y="148" type="line" smooth="yes"/>
      <point x="105" y="257" type="line" smooth="yes"/>
      <point x="108" y="279" type="line" smooth="yes"/>
      <point x="139" y="386" type="line" smooth="yes"/>
      <point x="197" y="454" type="line" smooth="yes"/>
      <point x="283" y="478" type="line" smooth="yes"/>
      <point x="367" y="453" type="line" smooth="yes"/>
      <point x="409" y="382" type="line" smooth="yes"/>
      <point x="411" y="273" type="line" smooth="yes"/>
      <point x="408" y="251" type="line" smooth="yes"/>
      <point x="377" y="144" type="line" smooth="yes"/>
      <point x="318" y="76" type="line" smooth="yes"/>
    </contour>
    <contour>
      <point x="214" y="614" type="line" smooth="yes"/>
      <point x="321" y="727" type="line" smooth="yes"/>
      <point x="399" y="614" type="line" smooth="yes"/>
      <point x="465" y="614" type="line" smooth="yes"/>
      <point x="356" y="780" type="line" smooth="yes"/>
      <point x="294" y="780" type="line" smooth="yes"/>
      <point x="141" y="614" type="line" smooth="yes"/>
    </contour>
  </outline>
</glyph>
<glyph name="otilde" format="1">
  <advance width="540"/>
  <unicode hex="00F5"/>
  <outline>
    <contour>
      <point x="232" y="-11" type="line" smooth="yes"/>
      <point x="358" y="23" type="line" smooth="yes"/>
      <point x="439" y="117" type="line" smooth="yes"/>
      <point x="479" y="253" type="line" smooth="yes"/>
      <point x="482" y="275" type="line" smooth="yes"/>
      <point x="475" y="410" type="line" smooth="yes"/>
      <point x="410" y="505" type="line" smooth="yes"/>
      <point x="283" y="541" type="line" smooth="yes"/>
      <point x="157" y="507" type="line" smooth="yes"/>
      <point x="77" y="413" type="line" smooth="yes"/>
      <point x="37" y="277" type="line" smooth="yes"/>
      <point x="34" y="255" type="line" smooth="yes"/>
      <point x="41" y="120" type="line" smooth="yes"/>
      <point x="106" y="25" type="line" smooth="yes"/>
    </contour>
    <contour>
      <point x="232" y="52" type="line" smooth="yes"/>
      <point x="149" y="77" type="line" smooth="yes"/>
      <point x="107" y="148" type="line" smooth="yes"/>
      <point x="105" y="257" type="line" smooth="yes"/>
      <point x="108" y="279" type="line" smooth="yes"/>
      <point x="139" y="386" type="line" smooth="yes"/>
      <point x="197" y="454" type="line" smooth="yes"/>
      <point x="283" y="478" type="line" smooth="yes"/>
      <point x="367" y="453" type="line" smooth="yes"/>
      <point x="409" y="382" type="line" smooth="yes"/>
      <point x="411" y="273" type="line" smooth="yes"/>
      <point x="408" y="251" type="line" smooth="yes"/>
      <point x="377" y="144" type="line" smooth="yes"/>
      <point x="318" y="76" type="line" smooth="yes"/>
    </contour>
    <contour>
      <point x="424" y="746" type="line" smooth="yes"/>
      <point x="415" y="719" type="line" smooth="yes"/>
      <point x="401" y="704" type="line" smooth="yes"/>
      <point x="382" y="699" type="line" smooth="yes"/>
      <point x="341" y="714" type="line" smooth="yes"/>
      <point x="299" y="742" type="line" smooth="yes"/>
      <point x="247" y="757" type="line" smooth="yes"/>
      <point x="203" y="746" type="line" smooth="yes"/>
      <point x="171" y="712" type="line" smooth="yes"/>
      <point x="153" y="654" type="line" smooth="yes"/>
      <point x="206" y="654" type="line" smooth="yes"/>
      <point x="214" y="681" type="line" smooth="yes"/>
      <point x="228" y="696" type="line" smooth="yes"/>
      <point x="247" y="701" type="line" smooth="yes"/>
      <point x="288" y="686" type="line" smooth="yes"/>
      <point x="330" y="658" type="line" smooth="yes"/>
      <point x="382" y="643" type="line" smooth="yes"/>
      <point x="426" y="654" type="line" smooth="yes"/>
      <point x="459" y="688" type="line" smooth="yes"/>
      <point x="477" y="746" type="line" smooth="yes"/>
    </contour>
  </outline>
</glyph>
<glyph name="oslash" format="1">
  <advance width="544"/>
  <unicode hex="00F8"/>
  <outline>
    <contour>
      <point x="112" y="132" type="line" smooth="yes"/>
      <point x="104" y="168" type="line" smooth="yes"/>
      <point x="102" y="210" type="line" smooth="yes"/>
      <point x="105" y="257" type="line" smooth="yes"/>
      <point x="108" y="279" type="line" smooth="yes"/>
      <point x="139" y="386" type="line" smooth="yes"/>
      <point x="197" y="454" type="line" smooth="yes"/>
      <point x="283" y="478" type="line" smooth="yes"/>
      <point x="321" y="474" type="line" smooth="yes"/>
      <point x="352" y="462" type="line" smooth="yes"/>
      <point x="377" y="443" type="line" smooth="yes"/>
    </contour>
    <contour>
      <point x="34" y="255" type="line" smooth="yes"/>
      <point x="31" y="187" type="line" smooth="yes"/>
      <point x="40" y="126" type="line" smooth="yes"/>
      <point x="62" y="73" type="line" smooth="yes"/>
      <point x="0" y="0" type="line" smooth="yes"/>
      <point x="65" y="0" type="line" smooth="yes"/>
      <point x="95" y="35" type="line" smooth="yes"/>
      <point x="132" y="10" type="line" smooth="yes"/>
      <point x="178" y="-6" type="line" smooth="yes"/>
      <point x="233" y="-11" type="line" smooth="yes"/>
      <point x="359" y="23" type="line" smooth="yes"/>
      <point x="439" y="117" type="line" smooth="yes"/>
      <point x="479" y="253" type="line" smooth="yes"/>
      <point x="482" y="275" type="line" smooth="yes"/>
      <point x="485" y="343" type="line" smooth="yes"/>
      <point x="476" y="404" type="line" smooth="yes"/>
      <point x="454" y="457" type="line" smooth="yes"/>
      <point x="516" y="530" type="line" smooth="yes"/>
      <point x="451" y="530" type="line" smooth="yes"/>
      <point x="421" y="495" type="line" smooth="yes"/>
      <point x="384" y="520" type="line" smooth="yes"/>
      <point x="338" y="536" type="line" smooth="yes"/>
      <point x="283" y="541" type="line" smooth="yes"/>
      <point x="157" y="507" type="line" smooth="yes"/>
      <point x="77" y="413" type="line" smooth="yes"/>
      <point x="37" y="277" type="line" smooth="yes"/>
    </contour>
    <contour>
      <point x="404" y="398" type="line" smooth="yes"/>
      <point x="412" y="362" type="line" smooth="yes"/>
      <point x="414" y="320" type="line" smooth="yes"/>
      <point x="411" y="273" type="line" smooth="yes"/>
      <point x="408" y="251" type="line" smooth="yes"/>
      <point x="377" y="144" type="line" smooth="yes"/>
      <point x="319" y="76" type="line" smooth="yes"/>
      <point x="233" y="52" type="line" smooth="yes"/>
      <point x="195" y="56" type="line" smooth="yes"/>
      <point x="164" y="68" type="line" smooth="yes"/>
      <point x="139" y="87" type="line" smooth="yes"/>
    </contour>
  </outline>
</glyph>
<glyph name="ucircumflex" format="1">
  <advance width="528"/>
  <unicode hex="00FB"/>
  <outline>
    <contour>
      <point x="82" y="530" type="line" smooth="yes"/>
      <point x="33" y="159" type="line" smooth="yes"/>
      <point x="41" y="70" type="line" smooth="yes"/>
      <point x="91" y="11" type="line" smooth="yes"/>
      <point x="184" y="-11" type="line" smooth="yes"/>
      <point x="255" y="-0" type="line" smooth="yes"/>
      <point x="314" y="29" type="line" smooth="yes"/>
      <point x="358" y="74" type="line" smooth="yes"/>
      <point x="358" y="0" type="line" smooth="yes"/>
      <point x="418" y="0" type="line" smooth="yes"/>
      <point x="431" y="144" type="line" smooth="yes"/>
      <point x="482" y="530" type="line" smooth="yes"/>
      <point x="412" y="530" type="line" smooth="yes"/>
      <point x="360" y="135" type="line" smooth="yes"/>
      <point x="327" y="98" type="line" smooth="yes"/>
      <point x="277" y="66" type="line" smooth="yes"/>
      <point x="208" y="52" type="line" smooth="yes"/>
      <point x="145" y="65" type="line" smooth="yes"/>
      <point x="109" y="103" type="line" smooth="yes"/>
      <point x="104" y="169" type="line" smooth="yes"/>
      <point x="152" y="530" type="line" smooth="yes"/>
    </contour>
    <contour>
      <point x="203" y="614" type="line" smooth="yes"/>
      <point x="310" y="727" type="line" smooth="yes"/>
      <point x="388" y="614" type="line" smooth="yes"/>
      <point x="454" y="614" type="line" smooth="yes"/>
      <point x="345" y="780" type="line" smooth="yes"/>
      <point x="283" y="780" type="line" smooth="yes"/>
      <point x="130" y="614" type="line" smooth="yes"/>
    </contour>
  </outline>
</glyph>
<glyph name="Abreve" format="1">
  <advance width="611"/>
  <unicode hex="0102"/>
  <outline>
    <contour>
      <point x="351" y="709" type="line" smooth="yes"/>
      <point x="417" y="265" type="line" smooth="yes"/>
      <point x="168" y="265" type="line" smooth="yes"/>
    </contour>
    <contour>
      <point x="309" y="788" type="line" smooth="yes"/>
      <point x="-20" y="0" type="line" smooth="yes"/>
      <point x="59" y="0" type="line" smooth="yes"/>
      <point x="141" y="200" type="line" smooth="yes"/>
      <point x="427" y="200" type="line" smooth="yes"/>
      <point x="457" y="0" type="line" smooth="yes"/>
      <point x="533" y="0" type="line" smooth="yes"/>
      <point x="411" y="788" type="line" smooth="yes"/>
    </contour>
    <contour>
      <point x="366" y="829" type="line" smooth="yes"/>
      <point x="450" y="845" type="line" smooth="yes"/>
      <point x="503" y="888" type="line" smooth="yes"/>
      <point x="526" y="950" type="line" smooth="yes"/>
      <point x="469" y="950" type="line" smooth="yes"/>
      <point x="454" y="911" type="line" smooth="yes"/>
      <point x="421" y="885" type="line" smooth="yes"/>
      <point x="369" y="875" type="line" smooth="yes"/>
      <point x="319" y="885" type="line" smooth="yes"/>
      <point x="293" y="911" type="line" smooth="yes"/>
      <point x="289" y="950" type="line" smooth="yes"/>
      <point x="236" y="950" type="line" smooth="yes"/>
      <point x="243" y="888" type="line" smooth="yes"/>
      <point x="286" y="845" type="line" smooth="yes"/>
    </contour>
  </outline>
</glyph>
<glyph name="Aogonek" format="1">
  <advance width="611"/>
  <unicode hex="0104"/>
  <outline>
    <contour>
      <point x="351" y="709" type="line" smooth="yes"/>
      <point x="417" y="265" type="line" smooth="yes"/>
      <point x="168" y="265" type="line" smooth="yes"/>
    </contour>
    <contour>
      <point x="309" y="788" type="line" smooth="yes"/>
      <point x="-20" y="0" type="line" smooth="yes"/>
      <point x="59" y="0" type="line" smooth="yes"/>
      <point x="141" y="200" type="line" smooth="yes"/>
      <point x="427" y="200" type="line" smooth="yes"/>
      <point x="456" y="4" type="line" smooth="yes"/>
      <point x="416" y="-30" type="line" smooth="yes"/>
      <point x="387" y="-74" type="line" smooth="yes"/>
      <point x="376" y="-129" type="line" smooth="yes"/>
      <point x="388" y="-175" type="line" smooth="yes"/>
      <point x="423" y="-202" type="line" smooth="yes"/>
      <point x="477" y="-211" type="line" smooth="yes"/>
      <point x="507" y="-209" type="line" smooth="yes"/>
      <point x="536" y="-202" type="line" smooth="yes"/>
      <point x="562" y="-191" type="line" smooth="yes"/>
      <point x="550" y="-145" type="line" smooth="yes"/>
      <point x="533" y="-152" type="line" smooth="yes"/>
      <point x="513" y="-156" type="line" smooth="yes"/>
      <point x="492" y="-158" type="line" smooth="yes"/>
      <point x="461" y="-153" type="line" smooth="yes"/>
      <point x="440" y="-138" type="line" smooth="yes"/>
      <point x="433" y="-113" type="line" smooth="yes"/>
      <point x="449" y="-63" type="line" smooth="yes"/>
      <point x="488" y="-25" type="line" smooth="yes"/>
      <point x="533" y="0" type="line" smooth="yes"/>
      <point x="411" y="788" type="line" smooth="yes"/>
    </contour>
  </outline>
</glyph>
<glyph name="Cacute" format="1">
  <advance width="613"/>
  <unicode hex="0106"/>
  <outline>
    <contour>
      <point x="135" y="410" type="line" smooth="yes"/>
      <point x="179" y="591" type="line" smooth="yes"/>
      <point x="255" y="693" type="line" smooth="yes"/>
      <point x="367" y="726" type="line" smooth="yes"/>
      <point x="374" y="726" type="line" smooth="yes"/>
      <point x="466" y="702" type="line" smooth="yes"/>
      <point x="510" y="627" type="line" smooth="yes"/>
      <point x="510" y="496" type="line" smooth="yes"/>
      <point x="584" y="496" type="line" smooth="yes"/>
      <point x="588" y="525" type="line" smooth="yes"/>
      <point x="580" y="672" type="line" smooth="yes"/>
      <point x="508" y="761" type="line" smooth="yes"/>
      <point x="373" y="791" type="line" smooth="yes"/>
      <point x="220" y="752" type="line" smooth="yes"/>
      <point x="117" y="629" type="line" smooth="yes"/>
      <point x="61" y="410" type="line" smooth="yes"/>
      <point x="56" y="370" type="line" smooth="yes"/>
      <point x="59" y="151" type="line" smooth="yes"/>
      <point x="134" y="28" type="line" smooth="yes"/>
      <point x="279" y="-11" type="line" smooth="yes"/>
      <point x="418" y="18" type="line" smooth="yes"/>
      <point x="506" y="102" type="line" smooth="yes"/>
      <point x="550" y="240" type="line" smooth="yes"/>
      <point x="552" y="254" type="line" smooth="yes"/>
      <point x="478" y="254" type="line" smooth="yes"/>
      <point x="447" y="145" type="line" smooth="yes"/>
      <point x="384" y="77" type="line" smooth="yes"/>
      <point x="286" y="54" type="line" smooth="yes"/>
      <point x="279" y="54" type="line" smooth="yes"/>
      <point x="176" y="87" type="line" smooth="yes"/>
      <point x="127" y="189" type="line" smooth="yes"/>
      <point x="130" y="370" type="line" smooth="yes"/>
    </contour>
    <contour>
      <point x="422" y="950" type="line" smooth="yes"/>
      <point x="347" y="840" type="line" smooth="yes"/>
      <point x="419" y="840" type="line" smooth="yes"/>
      <point x="496" y="950" type="line" smooth="yes"/>
    </contour>
  </outline>
</glyph>
<glyph name="cacute" format="1">
  <advance width="519"/>
  <unicode hex="0107"/>
  <outline>
    <contour>
      <point x="108" y="279" type="line" smooth="yes"/>
      <point x="138" y="386" type="line" smooth="yes"/>
      <point x="196" y="454" type="line" smooth="yes"/>
      <point x="280" y="478" type="line" smooth="yes"/>
      <point x="358" y="459" type="line" smooth="yes"/>
      <point x="397" y="408" type="line" smooth="yes"/>
      <point x="401" y="336" type="line" smooth="yes"/>
      <point x="468" y="336" type="line" smooth="yes"/>
      <point x="470" y="349" type="line" smooth="yes"/>
      <point x="462" y="437" type="line" smooth="yes"/>
      <point x="403" y="510" type="line" smooth="yes"/>
      <point x="280" y="541" type="line" smooth="yes"/>
      <point x="155" y="507" type="line" smooth="yes"/>
      <point x="76" y="413" type="line" smooth="yes"/>
      <point x="37" y="277" type="line" smooth="yes"/>
      <point x="34" y="255" type="line" smooth="yes"/>
      <point x="42" y="120" type="line" smooth="yes"/>
      <point x="108" y="25" type="line" smooth="yes"/>
      <point x="234" y="-11" type="line" smooth="yes"/>
      <point x="351" y="16" type="line" smooth="yes"/>
      <point x="417" y="83" type="line" smooth="yes"/>
      <point x="446" y="171" type="line" smooth="yes"/>
      <point x="448" y="184" type="line" smooth="yes"/>
      <point x="380" y="184" type="line" smooth="yes"/>
      <point x="359" y="118" type="line" smooth="yes"/>
      <point x="313" y="70" type="line" smooth="yes"/>
      <point x="234" y="52" type="line" smooth="yes"/>
      <point x="151" y="77" type="line" smooth="yes"/>
      <point x="108" y="148" type="line" smooth="yes"/>
      <point x="105" y="257" type="line" smooth="yes"/>
    </contour>
    <contour>
      <point x="377" y="780" type="line" smooth="yes"/>
      <point x="265" y="614" type="line" smooth="yes"/>
      <point x="337" y="614" type="line" smooth="yes"/>
      <point x="453" y="780" type="line" smooth="yes"/>
    </contour>
  </outline>
</glyph>
<glyph name="Dcroat" format="1">
  <advance width="692"/>
  <unicode hex="0110"/>
  <outline>
    <contour>
      <point x="165" y="65" type="line" smooth="yes"/>
      <point x="205" y="366" type="line" smooth="yes"/>
      <point x="418" y="366" type="line" smooth="yes"/>
      <point x="427" y="430" type="line" smooth="yes"/>
      <point x="213" y="430" type="line" smooth="yes"/>
      <point x="251" y="715" type="line" smooth="yes"/>
      <point x="377" y="715" type="line" smooth="yes"/>
      <point x="499" y="685" type="line" smooth="yes"/>
      <point x="566" y="588" type="line" smooth="yes"/>
      <point x="572" y="410" type="line" smooth="yes"/>
      <point x="567" y="370" type="line" smooth="yes"/>
      <point x="517" y="196" type="line" smooth="yes"/>
      <point x="423" y="97" type="line" smooth="yes"/>
      <point x="291" y="65" type="line" smooth="yes"/>
    </contour>
    <contour>
      <point x="646" y="410" type="line" smooth="yes"/>
      <point x="635" y="626" type="line" smooth="yes"/>
      <point x="544" y="744" type="line" smooth="yes"/>
      <point x="384" y="780" type="line" smooth="yes"/>
      <point x="187" y="780" type="line" smooth="yes"/>
      <point x="141" y="430" type="line" smooth="yes"/>
      <point x="26" y="430" type="line" smooth="yes"/>
      <point x="17" y="366" type="line" smooth="yes"/>
      <point x="133" y="366" type="line" smooth="yes"/>
      <point x="85" y="0" type="line" smooth="yes"/>
      <point x="289" y="0" type="line" smooth="yes"/>
      <point x="457" y="37" type="line" smooth="yes"/>
      <point x="577" y="157" type="line" smooth="yes"/>
      <point x="641" y="370" type="line" smooth="yes"/>
    </contour>
  </outline>
</glyph>
<glyph name="dcroat" format="1">
  <advance width="540"/>
  <unicode hex="0111"/>
  <outline>
    <contour>
      <point x="280" y="478" type="line" smooth="yes"/>
      <point x="340" y="464" type="line" smooth="yes"/>
      <point x="381" y="430" type="line" smooth="yes"/>
      <point x="406" y="391" type="line" smooth="yes"/>
      <point x="372" y="128" type="line" smooth="yes"/>
      <point x="336" y="90" type="line" smooth="yes"/>
      <point x="289" y="63" type="line" smooth="yes"/>
      <point x="229" y="52" type="line" smooth="yes"/>
      <point x="149" y="77" type="line" smooth="yes"/>
      <point x="108" y="147" type="line" smooth="yes"/>
      <point x="105" y="257" type="line" smooth="yes"/>
      <point x="108" y="279" type="line" smooth="yes"/>
      <point x="138" y="385" type="line" smooth="yes"/>
      <point x="195" y="454" type="line" smooth="yes"/>
    </contour>
    <contour>
      <point x="599" y="633" type="line" smooth="yes"/>
      <point x="608" y="697" type="line" smooth="yes"/>
      <point x="516" y="697" type="line" smooth="yes"/>
      <point x="530" y="800" type="line" smooth="yes"/>
      <point x="460" y="800" type="line" smooth="yes"/>
      <point x="446" y="697" type="line" smooth="yes"/>
      <point x="312" y="697" type="line" smooth="yes"/>
      <point x="303" y="633" type="line" smooth="yes"/>
      <point x="438" y="633" type="line" smooth="yes"/>
      <point x="416" y="465" type="line" smooth="yes"/>
      <point x="389" y="497" type="line" smooth="yes"/>
      <point x="341" y="528" type="line" smooth="yes"/>
      <point x="271" y="541" type="line" smooth="yes"/>
      <point x="151" y="507" type="line" smooth="yes"/>
      <point x="75" y="414" type="line" smooth="yes"/>
      <point x="37" y="277" type="line" smooth="yes"/>
      <point x="34" y="255" type="line" smooth="yes"/>
      <point x="39" y="119" type="line" smooth="yes"/>
      <point x="97" y="24" type="line" smooth="yes"/>
      <point x="212" y="-11" type="line" smooth="yes"/>
      <point x="275" y="-1" type="line" smooth="yes"/>
      <point x="330" y="26" type="line" smooth="yes"/>
      <point x="371" y="67" type="line" smooth="yes"/>
      <point x="371" y="0" type="line" smooth="yes"/>
      <point x="431" y="0" type="line" smooth="yes"/>
      <point x="444" y="144" type="line" smooth="yes"/>
      <point x="508" y="633" type="line" smooth="yes"/>
    </contour>
  </outline>
</glyph>
<glyph name="Ebreve" format="1">
  <advance width="549"/>
  <unicode hex="0114"/>
  <outline>
    <contour>
      <point x="127" y="780" type="line" smooth="yes"/>
      <point x="25" y="0" type="line" smooth="yes"/>
      <point x="460" y="0" type="line" smooth="yes"/>
      <point x="468" y="65" type="line" smooth="yes"/>
      <point x="105" y="65" type="line" smooth="yes"/>
      <point x="144" y="366" type="line" smooth="yes"/>
      <point x="457" y="366" type="line" smooth="yes"/>
      <point x="466" y="430" type="line" smooth="yes"/>
      <point x="153" y="430" type="line" smooth="yes"/>
      <point x="190" y="715" type="line" smooth="yes"/>
      <point x="554" y="715" type="line" smooth="yes"/>
      <point x="562" y="780" type="line" smooth="yes"/>
    </contour>
    <contour>
      <point x="360" y="829" type="line" smooth="yes"/>
      <point x="444" y="845" type="line" smooth="yes"/>
      <point x="497" y="888" type="line" smooth="yes"/>
      <point x="520" y="950" type="line" smooth="yes"/>
      <point x="463" y="950" type="line" smooth="yes"/>
      <point x="448" y="911" type="line" smooth="yes"/>
      <point x="415" y="885" type="line" smooth="yes"/>
      <point x="363" y="875" type="line" smooth="yes"/>
      <point x="313" y="885" type="line" smooth="yes"/>
      <point x="287" y="911" type="line" smooth="yes"/>
      <point x="283" y="950" type="line" smooth="yes"/>
      <point x="230" y="950" type="line" smooth="yes"/>
      <point x="237" y="888" type="line" smooth="yes"/>
      <point x="280" y="845" type="line" smooth="yes"/>
    </contour>
  </outline>
</glyph>
<glyph name="ebreve" format="1">
  <advance width="544"/>
  <unicode hex="0115"/>
  <outline>
    <contour>
      <point x="289" y="478" type="line" smooth="yes"/>
      <point x="370" y="456" type="line" smooth="yes"/>
      <point x="411" y="394" type="line" smooth="yes"/>
      <point x="414" y="294" type="line" smooth="yes"/>
      <point x="110" y="294" type="line" smooth="yes"/>
      <point x="142" y="390" type="line" smooth="yes"/>
      <point x="203" y="454" type="line" smooth="yes"/>
    </contour>
    <contour>
      <point x="477" y="236" type="line" smooth="yes"/>
      <point x="482" y="275" type="line" smooth="yes"/>
      <point x="477" y="413" type="line" smooth="yes"/>
      <point x="415" y="506" type="line" smooth="yes"/>
      <point x="289" y="541" type="line" smooth="yes"/>
      <point x="162" y="506" type="line" smooth="yes"/>
      <point x="78" y="413" type="line" smooth="yes"/>
      <point x="37" y="277" type="line" smooth="yes"/>
      <point x="34" y="255" type="line" smooth="yes"/>
      <point x="40" y="121" type="line" smooth="yes"/>
      <point x="106" y="25" type="line" smooth="yes"/>
      <point x="243" y="-11" type="line" smooth="yes"/>
      <point x="360" y="15" type="line" smooth="yes"/>
      <point x="434" y="79" type="line" smooth="yes"/>
      <point x="466" y="157" type="line" smooth="yes"/>
      <point x="468" y="170" type="line" smooth="yes"/>
      <point x="401" y="170" type="line" smooth="yes"/>
      <point x="381" y="114" type="line" smooth="yes"/>
      <point x="331" y="70" type="line" smooth="yes"/>
      <point x="245" y="52" type="line" smooth="yes"/>
      <point x="154" y="74" type="line" smooth="yes"/>
      <point x="109" y="137" type="line" smooth="yes"/>
      <point x="103" y="236" type="line" smooth="yes"/>
    </contour>
    <contour>
      <point x="307" y="603" type="line" smooth="yes"/>
      <point x="401" y="626" type="line" smooth="yes"/>
      <point x="460" y="688" type="line" smooth="yes"/>
      <point x="487" y="780" type="line" smooth="yes"/>
      <point x="429" y="780" type="line" smooth="yes"/>
      <point x="410" y="716" type="line" smooth="yes"/>
      <point x="370" y="673" type="line" smooth="yes"/>
      <point x="307" y="658" type="line" smooth="yes"/>
      <point x="249" y="673" type="line" smooth="yes"/>
      <point x="221" y="716" type="line" smooth="yes"/>
      <point x="219" y="780" type="line" smooth="yes"/>
      <point x="165" y="780" type="line" smooth="yes"/>
      <point x="170" y="688" type="line" smooth="yes"/>
      <point x="216" y="626" type="line" smooth="yes"/>
    </contour>
  </outline>
</glyph>
<glyph name="edotaccent" format="1">
  <advance width="539"/>
  <unicode hex="0117"/>
  <outline>
    <contour>
      <point x="289" y="478" type="line" smooth="yes"/>
      <point x="370" y="456" type="line" smooth="yes"/>
      <point x="411" y="394" type="line" smooth="yes"/>
      <point x="414" y="294" type="line" smooth="yes"/>
      <point x="110" y="294" type="line" smooth="yes"/>
      <point x="142" y="390" type="line" smooth="yes"/>
      <point x="203" y="454" type="line" smooth="yes"/>
    </contour>
    <contour>
      <point x="477" y="236" type="line" smooth="yes"/>
      <point x="482" y="275" type="line" smooth="yes"/>
      <point x="477" y="413" type="line" smooth="yes"/>
      <point x="415" y="506" type="line" smooth="yes"/>
      <point x="289" y="541" type="line" smooth="yes"/>
      <point x="162" y="506" type="line" smooth="yes"/>
      <point x="78" y="413" type="line" smooth="yes"/>
      <point x="37" y="277" type="line" smooth="yes"/>
      <point x="34" y="255" type="line" smooth="yes"/>
      <point x="40" y="121" type="line" smooth="yes"/>
      <point x="106" y="25" type="line" smooth="yes"/>
      <point x="243" y="-11" type="line" smooth="yes"/>
      <point x="360" y="15" type="line" smooth="yes"/>
      <point x="434" y="79" type="line" smooth="yes"/>
      <point x="466" y="157" type="line" smooth="yes"/>
      <point x="468" y="170" type="line" smooth="yes"/>
      <point x="401" y="170" type="line" smooth="yes"/>
      <point x="381" y="114" type="line" smooth="yes"/>
      <point x="331" y="70" type="line" smooth="yes"/>
      <point x="245" y="52" type="line" smooth="yes"/>
      <point x="154" y="74" type="line" smooth="yes"/>
      <point x="109" y="137" type="line" smooth="yes"/>
      <point x="103" y="236" type="line" smooth="yes"/>
    </contour>
    <contour>
      <point x="366" y="745" type="line" smooth="yes"/>
      <point x="276" y="745" type="line" smooth="yes"/>
      <point x="264" y="655" type="line" smooth="yes"/>
      <point x="354" y="655" type="line" smooth="yes"/>
    </contour>
  </outline>
</glyph>
<glyph name="Eogonek" format="1">
  <advance width="549"/>
  <unicode hex="0118"/>
  <outline>
    <contour>
      <point x="127" y="780" type="line" smooth="yes"/>
      <point x="25" y="0" type="line" smooth="yes"/>
      <point x="377" y="0" type="line" smooth="yes"/>
      <point x="339" y="-33" type="line" smooth="yes"/>
      <point x="313" y="-76" type="line" smooth="yes"/>
      <point x="303" y="-129" type="line" smooth="yes"/>
      <point x="315" y="-175" type="line" smooth="yes"/>
      <point x="350" y="-202" type="line" smooth="yes"/>
      <point x="404" y="-211" type="line" smooth="yes"/>
      <point x="434" y="-209" type="line" smooth="yes"/>
      <point x="463" y="-202" type="line" smooth="yes"/>
      <point x="489" y="-191" type="line" smooth="yes"/>
      <point x="477" y="-145" type="line" smooth="yes"/>
      <point x="460" y="-152" type="line" smooth="yes"/>
      <point x="440" y="-156" type="line" smooth="yes"/>
      <point x="419" y="-158" type="line" smooth="yes"/>
      <point x="388" y="-153" type="line" smooth="yes"/>
      <point x="367" y="-138" type="line" smooth="yes"/>
      <point x="360" y="-113" type="line" smooth="yes"/>
      <point x="376" y="-63" type="line" smooth="yes"/>
      <point x="415" y="-25" type="line" smooth="yes"/>
      <point x="460" y="0" type="line" smooth="yes"/>
      <point x="468" y="65" type="line" smooth="yes"/>
      <point x="105" y="65" type="line" smooth="yes"/>
      <point x="144" y="366" type="line" smooth="yes"/>
      <point x="457" y="366" type="line" smooth="yes"/>
      <point x="466" y="430" type="line" smooth="yes"/>
      <point x="153" y="430" type="line" smooth="yes"/>
      <point x="190" y="715" type="line" smooth="yes"/>
      <point x="554" y="715" type="line" smooth="yes"/>
      <point x="562" y="780" type="line" smooth="yes"/>
    </contour>
  </outline>
</glyph>
<glyph name="eogonek" format="1">
  <advance width="539"/>
  <unicode hex="0119"/>
  <outline>
    <contour>
      <point x="289" y="478" type="line" smooth="yes"/>
      <point x="370" y="456" type="line" smooth="yes"/>
      <point x="411" y="394" type="line" smooth="yes"/>
      <point x="414" y="294" type="line" smooth="yes"/>
      <point x="110" y="294" type="line" smooth="yes"/>
      <point x="142" y="390" type="line" smooth="yes"/>
      <point x="203" y="454" type="line" smooth="yes"/>
    </contour>
    <contour>
      <point x="477" y="236" type="line" smooth="yes"/>
      <point x="482" y="275" type="line" smooth="yes"/>
      <point x="477" y="413" type="line" smooth="yes"/>
      <point x="415" y="506" type="line" smooth="yes"/>
      <point x="289" y="541" type="line" smooth="yes"/>
      <point x="162" y="506" type="line" smooth="yes"/>
      <point x="78" y="413" type="line" smooth="yes"/>
      <point x="37" y="277" type="line" smooth="yes"/>
      <point x="34" y="255" type="line" smooth="yes"/>
      <point x="38" y="125" type="line" smooth="yes"/>
      <point x="99" y="31" type="line" smooth="yes"/>
      <point x="225" y="-10" type="line" smooth="yes"/>
      <point x="194" y="-42" type="line" smooth="yes"/>
      <point x="173" y="-82" type="line" smooth="yes"/>
      <point x="165" y="-129" type="line" smooth="yes"/>
      <point x="177" y="-175" type="line" smooth="yes"/>
      <point x="212" y="-202" type="line" smooth="yes"/>
      <point x="266" y="-211" type="line" smooth="yes"/>
      <point x="296" y="-209" type="line" smooth="yes"/>
      <point x="325" y="-202" type="line" smooth="yes"/>
      <point x="351" y="-191" type="line" smooth="yes"/>
      <point x="339" y="-145" type="line" smooth="yes"/>
      <point x="322" y="-152" type="line" smooth="yes"/>
      <point x="302" y="-156" type="line" smooth="yes"/>
      <point x="281" y="-158" type="line" smooth="yes"/>
      <point x="250" y="-153" type="line" smooth="yes"/>
      <point x="229" y="-138" type="line" smooth="yes"/>
      <point x="222" y="-113" type="line" smooth="yes"/>
      <point x="238" y="-63" type="line" smooth="yes"/>
      <point x="277" y="-25" type="line" smooth="yes"/>
      <point x="322" y="0" type="line" smooth="yes"/>
      <point x="396" y="39" type="line" smooth="yes"/>
      <point x="444" y="95" type="line" smooth="yes"/>
      <point x="466" y="157" type="line" smooth="yes"/>
      <point x="468" y="170" type="line" smooth="yes"/>
      <point x="401" y="170" type="line" smooth="yes"/>
      <point x="381" y="114" type="line" smooth="yes"/>
      <point x="331" y="70" type="line" smooth="yes"/>
      <point x="245" y="52" type="line" smooth="yes"/>
      <point x="154" y="74" type="line" smooth="yes"/>
      <point x="109" y="137" type="line" smooth="yes"/>
      <point x="103" y="236" type="line" smooth="yes"/>
    </contour>
  </outline>
</glyph>
<glyph name="ecaron" format="1">
  <advance width="544"/>
  <unicode hex="011B"/>
  <outline>
    <contour>
      <point x="289" y="478" type="line" smooth="yes"/>
      <point x="370" y="456" type="line" smooth="yes"/>
      <point x="411" y="394" type="line" smooth="yes"/>
      <point x="414" y="294" type="line" smooth="yes"/>
      <point x="110" y="294" type="line" smooth="yes"/>
      <point x="142" y="390" type="line" smooth="yes"/>
      <point x="203" y="454" type="line" smooth="yes"/>
    </contour>
    <contour>
      <point x="477" y="236" type="line" smooth="yes"/>
      <point x="482" y="275" type="line" smooth="yes"/>
      <point x="477" y="413" type="line" smooth="yes"/>
      <point x="415" y="506" type="line" smooth="yes"/>
      <point x="289" y="541" type="line" smooth="yes"/>
      <point x="162" y="506" type="line" smooth="yes"/>
      <point x="78" y="413" type="line" smooth="yes"/>
      <point x="37" y="277" type="line" smooth="yes"/>
      <point x="34" y="255" type="line" smooth="yes"/>
      <point x="40" y="121" type="line" smooth="yes"/>
      <point x="106" y="25" type="line" smooth="yes"/>
      <point x="243" y="-11" type="line" smooth="yes"/>
      <point x="360" y="15" type="line" smooth="yes"/>
      <point x="434" y="79" type="line" smooth="yes"/>
      <point x="466" y="157" type="line" smooth="yes"/>
      <point x="468" y="170" type="line" smooth="yes"/>
      <point x="401" y="170" type="line" smooth="yes"/>
      <point x="381" y="114" type="line" smooth="yes"/>
      <point x="331" y="70" type="line" smooth="yes"/>
      <point x="245" y="52" type="line" smooth="yes"/>
      <point x="154" y="74" type="line" smooth="yes"/>
      <point x="109" y="137" type="line" smooth="yes"/>
      <point x="103" y="236" type="line" smooth="yes"/>
    </contour>
    <contour>
      <point x="164" y="780" type="line" smooth="yes"/>
      <point x="273" y="614" type="line" smooth="yes"/>
      <point x="335" y="614" type="line" smooth="yes"/>
      <point x="488" y="780" type="line" smooth="yes"/>
      <point x="415" y="780" type="line" smooth="yes"/>
      <point x="308" y="667" type="line" smooth="yes"/>
      <point x="230" y="780" type="line" smooth="yes"/>
    </contour>
  </outline>
</glyph>
<glyph name="Gcircumflex" format="1">
  <advance width="643"/>
  <unicode hex="011C"/>
  <outline>
    <contour>
      <point x="293" y="-11" type="line" smooth="yes"/>
      <point x="401" y="3" type="line" smooth="yes"/>
      <point x="481" y="36" type="line" smooth="yes"/>
      <point x="539" y="79" type="line" smooth="yes"/>
      <point x="579" y="384" type="line" smooth="yes"/>
      <point x="373" y="384" type="line" smooth="yes"/>
      <point x="365" y="320" type="line" smooth="yes"/>
      <point x="499" y="320" type="line" smooth="yes"/>
      <point x="472" y="114" type="line" smooth="yes"/>
      <point x="431" y="85" type="line" smooth="yes"/>
      <point x="374" y="63" type="line" smooth="yes"/>
      <point x="302" y="54" type="line" smooth="yes"/>
      <point x="295" y="54" type="line" smooth="yes"/>
      <point x="188" y="87" type="line" smooth="yes"/>
      <point x="131" y="189" type="line" smooth="yes"/>
      <point x="130" y="370" type="line" smooth="yes"/>
      <point x="135" y="410" type="line" smooth="yes"/>
      <point x="180" y="591" type="line" smooth="yes"/>
      <point x="259" y="693" type="line" smooth="yes"/>
      <point x="372" y="726" type="line" smooth="yes"/>
      <point x="379" y="726" type="line" smooth="yes"/>
      <point x="472" y="702" type="line" smooth="yes"/>
      <point x="519" y="627" type="line" smooth="yes"/>
      <point x="520" y="496" type="line" smooth="yes"/>
      <point x="594" y="496" type="line" smooth="yes"/>
      <point x="598" y="525" type="line" smooth="yes"/>
      <point x="589" y="672" type="line" smooth="yes"/>
      <point x="514" y="761" type="line" smooth="yes"/>
      <point x="378" y="791" type="line" smooth="yes"/>
      <point x="224" y="752" type="line" smooth="yes"/>
      <point x="119" y="629" type="line" smooth="yes"/>
      <point x="61" y="410" type="line" smooth="yes"/>
      <point x="56" y="370" type="line" smooth="yes"/>
      <point x="63" y="151" type="line" smooth="yes"/>
      <point x="144" y="28" type="line" smooth="yes"/>
    </contour>
    <contour>
      <point x="529" y="840" type="line" smooth="yes"/>
      <point x="438" y="950" type="line" smooth="yes"/>
      <point x="374" y="950" type="line" smooth="yes"/>
      <point x="253" y="840" type="line" smooth="yes"/>
      <point x="327" y="840" type="line" smooth="yes"/>
      <point x="405" y="909" type="line" smooth="yes"/>
      <point x="462" y="840" type="line" smooth="yes"/>
    </contour>
  </outline>
</glyph>
<glyph name="gdotaccent" format="1">
  <advance width="537"/>
  <unicode hex="0121"/>
  <outline>
    <contour>
      <point x="375" y="167" type="line" smooth="yes"/>
      <point x="339" y="129" type="line" smooth="yes"/>
      <point x="292" y="101" type="line" smooth="yes"/>
      <point x="232" y="90" type="line" smooth="yes"/>
      <point x="150" y="113" type="line" smooth="yes"/>
      <point x="109" y="177" type="line" smooth="yes"/>
      <point x="106" y="277" type="line" smooth="yes"/>
      <point x="109" y="299" type="line" smooth="yes"/>
      <point x="138" y="397" type="line" smooth="yes"/>
      <point x="194" y="457" type="line" smooth="yes"/>
      <point x="279" y="478" type="line" smooth="yes"/>
      <point x="339" y="464" type="line" smooth="yes"/>
      <point x="381" y="431" type="line" smooth="yes"/>
      <point x="405" y="392" type="line" smooth="yes"/>
    </contour>
    <contour>
      <point x="353" y="-3" type="line" smooth="yes"/>
      <point x="331" y="-83" type="line" smooth="yes"/>
      <point x="281" y="-132" type="line" smooth="yes"/>
      <point x="195" y="-148" type="line" smooth="yes"/>
      <point x="117" y="-132" type="line" smooth="yes"/>
      <point x="77" y="-83" type="line" smooth="yes"/>
      <point x="75" y="0" type="line" smooth="yes"/>
      <point x="10" y="0" type="line" smooth="yes"/>
      <point x="8" y="-13" type="line" smooth="yes"/>
      <point x="14" y="-113" type="line" smooth="yes"/>
      <point x="74" y="-184" type="line" smooth="yes"/>
      <point x="195" y="-211" type="line" smooth="yes"/>
      <point x="316" y="-185" type="line" smooth="yes"/>
      <point x="389" y="-114" type="line" smooth="yes"/>
      <point x="422" y="-8" type="line" smooth="yes"/>
      <point x="473" y="380" type="line" smooth="yes"/>
      <point x="498" y="530" type="line" smooth="yes"/>
      <point x="440" y="530" type="line" smooth="yes"/>
      <point x="421" y="453" type="line" smooth="yes"/>
      <point x="392" y="493" type="line" smooth="yes"/>
      <point x="340" y="527" type="line" smooth="yes"/>
      <point x="269" y="541" type="line" smooth="yes"/>
      <point x="150" y="510" type="line" smooth="yes"/>
      <point x="75" y="424" type="line" smooth="yes"/>
      <point x="38" y="297" type="line" smooth="yes"/>
      <point x="35" y="275" type="line" smooth="yes"/>
      <point x="40" y="150" type="line" smooth="yes"/>
      <point x="98" y="61" type="line" smooth="yes"/>
      <point x="214" y="27" type="line" smooth="yes"/>
      <point x="276" y="36" type="line" smooth="yes"/>
      <point x="327" y="60" type="line" smooth="yes"/>
      <point x="365" y="94" type="line" smooth="yes"/>
    </contour>
    <contour>
      <point x="348" y="745" type="line" smooth="yes"/>
      <point x="258" y="745" type="line" smooth="yes"/>
      <point x="246" y="655" type="line" smooth="yes"/>
      <point x="336" y="655" type="line" smooth="yes"/>
    </contour>
  </outline>
</glyph>
<glyph name="Gcommaaccent" format="1">
  <advance width="643"/>
  <unicode hex="0122"/>
  <outline>
    <contour>
      <point x="293" y="-11" type="line" smooth="yes"/>
      <point x="401" y="3" type="line" smooth="yes"/>
      <point x="481" y="36" type="line" smooth="yes"/>
      <point x="539" y="79" type="line" smooth="yes"/>
      <point x="579" y="384" type="line" smooth="yes"/>
      <point x="373" y="384" type="line" smooth="yes"/>
      <point x="365" y="320" type="line" smooth="yes"/>
      <point x="499" y="320" type="line" smooth="yes"/>
      <point x="472" y="114" type="line" smooth="yes"/>
      <point x="431" y="85" type="line" smooth="yes"/>
      <point x="374" y="63" type="line" smooth="yes"/>
      <point x="302" y="54" type="line" smooth="yes"/>
      <point x="295" y="54" type="line" smooth="yes"/>
      <point x="188" y="87" type="line" smooth="yes"/>
      <point x="131" y="189" type="line" smooth="yes"/>
      <point x="130" y="370" type="line" smooth="yes"/>
      <point x="135" y="410" type="line" smooth="yes"/>
      <point x="180" y="591" type="line" smooth="yes"/>
      <point x="259" y="693" type="line" smooth="yes"/>
      <point x="372" y="726" type="line" smooth="yes"/>
      <point x="379" y="726" type="line" smooth="yes"/>
      <point x="472" y="702" type="line" smooth="yes"/>
      <point x="519" y="627" type="line" smooth="yes"/>
      <point x="520" y="496" type="line" smooth="yes"/>
      <point x="594" y="496" type="line" smooth="yes"/>
      <point x="598" y="525" type="line" smooth="yes"/>
      <point x="589" y="672" type="line" smooth="yes"/>
      <point x="514" y="761" type="line" smooth="yes"/>
      <point x="378" y="791" type="line" smooth="yes"/>
      <point x="224" y="752" type="line" smooth="yes"/>
      <point x="119" y="629" type="line" smooth="yes"/>
      <point x="61" y="410" type="line" smooth="yes"/>
      <point x="56" y="370" type="line" smooth="yes"/>
      <point x="63" y="151" type="line" smooth="yes"/>
      <point x="144" y="28" type="line" smooth="yes"/>
    </contour>
    <contour>
      <point x="324" y="-56" type="line" smooth="yes"/>
      <point x="243" y="-56" type="line" smooth="yes"/>
      <point x="234" y="-124" type="line" smooth="yes"/>
      <point x="276" y="-124" type="line" smooth="yes"/>
      <point x="260" y="-155" type="line" smooth="yes"/>
      <point x="235" y="-172" type="line" smooth="yes"/>
      <point x="203" y="-178" type="line" smooth="yes"/>
      <point x="198" y="-214" type="line" smooth="yes"/>
      <point x="257" y="-202" type="line" smooth="yes"/>
      <point x="297" y="-165" type="line" smooth="yes"/>
      <point x="317" y="-107" type="line" smooth="yes"/>
    </contour>
  </outline>
</glyph>
<glyph name="Hcircumflex" format="1">
  <advance width="639"/>
  <unicode hex="0124"/>
  <outline>
    <contour>
      <point x="518" y="840" type="line" smooth="yes"/>
      <point x="427" y="950" type="line" smooth="yes"/>
      <point x="363" y="950" type="line" smooth="yes"/>
      <point x="242" y="840" type="line" smooth="yes"/>
      <point x="316" y="840" type="line" smooth="yes"/>
      <point x="394" y="909" type="line" smooth="yes"/>
      <point x="451" y="840" type="line" smooth="yes"/>
    </contour>
    <contour>
      <point x="546" y="780" type="line" smooth="yes"/>
      <point x="500" y="430" type="line" smooth="yes"/>
      <point x="153" y="430" type="line" smooth="yes"/>
      <point x="199" y="780" type="line" smooth="yes"/>
      <point x="127" y="780" type="line" smooth="yes"/>
      <point x="25" y="0" type="line" smooth="yes"/>
      <point x="97" y="0" type="line" smooth="yes"/>
      <point x="145" y="366" type="line" smooth="yes"/>
      <point x="492" y="366" type="line" smooth="yes"/>
      <point x="444" y="0" type="line" smooth="yes"/>
      <point x="516" y="0" type="line" smooth="yes"/>
      <point x="618" y="780" type="line" smooth="yes"/>
    </contour>
  </outline>
</glyph>
<glyph name="hcircumflex" format="1">
  <advance width="525"/>
  <unicode hex="0125"/>
  <outline>
    <contour>
      <point x="300" y="840" type="line" smooth="yes"/>
      <point x="209" y="950" type="line" smooth="yes"/>
      <point x="145" y="950" type="line" smooth="yes"/>
      <point x="24" y="840" type="line" smooth="yes"/>
      <point x="98" y="840" type="line" smooth="yes"/>
      <point x="176" y="909" type="line" smooth="yes"/>
      <point x="233" y="840" type="line" smooth="yes"/>
    </contour>
    <contour>
      <point x="191" y="800" type="line" smooth="yes"/>
      <point x="121" y="800" type="line" smooth="yes"/>
      <point x="16" y="0" type="line" smooth="yes"/>
      <point x="86" y="0" type="line" smooth="yes"/>
      <point x="138" y="395" type="line" smooth="yes"/>
      <point x="171" y="432" type="line" smooth="yes"/>
      <point x="221" y="464" type="line" smooth="yes"/>
      <point x="290" y="478" type="line" smooth="yes"/>
      <point x="353" y="465" type="line" smooth="yes"/>
      <point x="389" y="427" type="line" smooth="yes"/>
      <point x="394" y="361" type="line" smooth="yes"/>
      <point x="346" y="0" type="line" smooth="yes"/>
      <point x="416" y="0" type="line" smooth="yes"/>
      <point x="465" y="371" type="line" smooth="yes"/>
      <point x="457" y="460" type="line" smooth="yes"/>
      <point x="407" y="519" type="line" smooth="yes"/>
      <point x="314" y="541" type="line" smooth="yes"/>
      <point x="245" y="531" type="line" smooth="yes"/>
      <point x="188" y="503" type="line" smooth="yes"/>
      <point x="147" y="465" type="line" smooth="yes"/>
    </contour>
  </outline>
</glyph>
<glyph name="Hbar" format="1">
  <advance width="639"/>
  <unicode hex="0126"/>
  <outline>
    <contour>
      <point x="153" y="430" type="line" smooth="yes"/>
      <point x="172" y="575" type="line" smooth="yes"/>
      <point x="519" y="575" type="line" smooth="yes"/>
      <point x="500" y="430" type="line" smooth="yes"/>
    </contour>
    <contour>
      <point x="546" y="780" type="line" smooth="yes"/>
      <point x="527" y="639" type="line" smooth="yes"/>
      <point x="180" y="639" type="line" smooth="yes"/>
      <point x="199" y="780" type="line" smooth="yes"/>
      <point x="127" y="780" type="line" smooth="yes"/>
      <point x="25" y="0" type="line" smooth="yes"/>
      <point x="97" y="0" type="line" smooth="yes"/>
      <point x="145" y="366" type="line" smooth="yes"/>
      <point x="492" y="366" type="line" smooth="yes"/>
      <point x="444" y="0" type="line" smooth="yes"/>
      <point x="516" y="0" type="line" smooth="yes"/>
      <point x="618" y="780" type="line" smooth="yes"/>
    </contour>
  </outline>
</glyph>
<glyph name="hbar" format="1">
  <advance width="525"/>
  <unicode hex="0127"/>
  <outline>
    <contour>
      <point x="303" y="633" type="line" smooth="yes"/>
      <point x="312" y="697" type="line" smooth="yes"/>
      <point x="177" y="697" type="line" smooth="yes"/>
      <point x="191" y="800" type="line" smooth="yes"/>
      <point x="121" y="800" type="line" smooth="yes"/>
      <point x="107" y="697" type="line" smooth="yes"/>
      <point x="16" y="697" type="line" smooth="yes"/>
      <point x="7" y="633" type="line" smooth="yes"/>
      <point x="99" y="633" type="line" smooth="yes"/>
      <point x="16" y="0" type="line" smooth="yes"/>
      <point x="86" y="0" type="line" smooth="yes"/>
      <point x="138" y="395" type="line" smooth="yes"/>
      <point x="171" y="432" type="line" smooth="yes"/>
      <point x="221" y="464" type="line" smooth="yes"/>
      <point x="290" y="478" type="line" smooth="yes"/>
      <point x="353" y="465" type="line" smooth="yes"/>
      <point x="389" y="427" type="line" smooth="yes"/>
      <point x="394" y="361" type="line" smooth="yes"/>
      <point x="346" y="0" type="line" smooth="yes"/>
      <point x="416" y="0" type="line" smooth="yes"/>
      <point x="465" y="371" type="line" smooth="yes"/>
      <point x="457" y="460" type="line" smooth="yes"/>
      <point x="407" y="519" type="line" smooth="yes"/>
      <point x="314" y="541" type="line" smooth="yes"/>
      <point x="245" y="531" type="line" smooth="yes"/>
      <point x="188" y="503" type="line" smooth="yes"/>
      <point x="147" y="465" type="line" smooth="yes"/>
      <point x="169" y="633" type="line" smooth="yes"/>
    </contour>
  </outline>
</glyph>
<glyph name="Itilde" format="1">
  <advance width="229"/>
  <unicode hex="0128"/>
  <outline>
    <contour>
      <point x="204" y="780" type="line" smooth="yes"/>
      <point x="132" y="780" type="line" smooth="yes"/>
      <point x="30" y="0" type="line" smooth="yes"/>
      <point x="102" y="0" type="line" smooth="yes"/>
    </contour>
    <contour>
      <point x="292" y="936" type="line" smooth="yes"/>
      <point x="284" y="909" type="line" smooth="yes"/>
      <point x="268" y="894" type="line" smooth="yes"/>
      <point x="247" y="889" type="line" smooth="yes"/>
      <point x="209" y="904" type="line" smooth="yes"/>
      <point x="170" y="932" type="line" smooth="yes"/>
      <point x="119" y="947" type="line" smooth="yes"/>
      <point x="76" y="937" type="line" smooth="yes"/>
      <point x="43" y="907" type="line" smooth="yes"/>
      <point x="26" y="854" type="line" smooth="yes"/>
      <point x="74" y="854" type="line" smooth="yes"/>
      <point x="82" y="881" type="line" smooth="yes"/>
      <point x="98" y="896" type="line" smooth="yes"/>
      <point x="119" y="901" type="line" smooth="yes"/>
      <point x="157" y="886" type="line" smooth="yes"/>
      <point x="196" y="858" type="line" smooth="yes"/>
      <point x="247" y="843" type="line" smooth="yes"/>
      <point x="290" y="853" type="line" smooth="yes"/>
      <point x="323" y="883" type="line" smooth="yes"/>
      <point x="340" y="936" type="line" smooth="yes"/>
    </contour>
  </outline>
</glyph>
<glyph name="itilde" format="1">
  <advance width="216"/>
  <unicode hex="0129"/>
  <outline>
    <contour>
      <point x="24" y="0" type="line" smooth="yes"/>
      <point x="94" y="0" type="line" smooth="yes"/>
      <point x="163" y="530" type="line" smooth="yes"/>
      <point x="93" y="530" type="line" smooth="yes"/>
    </contour>
    <contour>
      <point x="260" y="746" type="line" smooth="yes"/>
      <point x="251" y="719" type="line" smooth="yes"/>
      <point x="237" y="704" type="line" smooth="yes"/>
      <point x="218" y="699" type="line" smooth="yes"/>
      <point x="177" y="714" type="line" smooth="yes"/>
      <point x="135" y="742" type="line" smooth="yes"/>
      <point x="83" y="757" type="line" smooth="yes"/>
      <point x="39" y="746" type="line" smooth="yes"/>
      <point x="7" y="712" type="line" smooth="yes"/>
      <point x="-11" y="654" type="line" smooth="yes"/>
      <point x="42" y="654" type="line" smooth="yes"/>
      <point x="50" y="681" type="line" smooth="yes"/>
      <point x="64" y="696" type="line" smooth="yes"/>
      <point x="83" y="701" type="line" smooth="yes"/>
      <point x="124" y="686" type="line" smooth="yes"/>
      <point x="166" y="658" type="line" smooth="yes"/>
      <point x="218" y="643" type="line" smooth="yes"/>
      <point x="262" y="654" type="line" smooth="yes"/>
      <point x="295" y="688" type="line" smooth="yes"/>
      <point x="313" y="746" type="line" smooth="yes"/>
    </contour>
  </outline>
</glyph>
<glyph name="imacron" format="1">
  <advance width="216"/>
  <unicode hex="012B"/>
  <outline>
    <contour>
      <point x="24" y="0" type="line" smooth="yes"/>
      <point x="94" y="0" type="line" smooth="yes"/>
      <point x="163" y="530" type="line" smooth="yes"/>
      <point x="93" y="530" type="line" smooth="yes"/>
    </contour>
    <contour>
      <point x="29" y="664" type="line" smooth="yes"/>
      <point x="263" y="664" type="line" smooth="yes"/>
      <point x="271" y="730" type="line" smooth="yes"/>
      <point x="38" y="730" type="line" smooth="yes"/>
    </contour>
  </outline>
</glyph>
<glyph name="Ibreve" format="1">
  <advance width="229"/>
  <unicode hex="012C"/>
  <outline>
    <contour>
      <point x="204" y="780" type="line" smooth="yes"/>
      <point x="132" y="780" type="line" smooth="yes"/>
      <point x="30" y="0" type="line" smooth="yes"/>
      <point x="102" y="0" type="line" smooth="yes"/>
    </contour>
    <contour>
      <point x="176" y="829" type="line" smooth="yes"/>
      <point x="260" y="845" type="line" smooth="yes"/>
      <point x="313" y="888" type="line" smooth="yes"/>
      <point x="336" y="950" type="line" smooth="yes"/>
      <point x="279" y="950" type="line" smooth="yes"/>
      <point x="264" y="911" type="line" smooth="yes"/>
      <point x="231" y="885" type="line" smooth="yes"/>
      <point x="179" y="875" type="line" smooth="yes"/>
      <point x="129" y="885" type="line" smooth="yes"/>
      <point x="103" y="911" type="line" smooth="yes"/>
      <point x="99" y="950" type="line" smooth="yes"/>
      <point x="46" y="950" type="line" smooth="yes"/>
      <point x="53" y="888" type="line" smooth="yes"/>
      <point x="96" y="845" type="line" smooth="yes"/>
    </contour>
  </outline>
</glyph>
<glyph name="ibreve" format="1">
  <advance width="216"/>
  <unicode hex="012D"/>
  <outline>
    <contour>
      <point x="24" y="0" type="line" smooth="yes"/>
      <point x="94" y="0" type="line" smooth="yes"/>
      <point x="163" y="530" type="line" smooth="yes"/>
      <point x="93" y="530" type="line" smooth="yes"/>
    </contour>
    <contour>
      <point x="142" y="603" type="line" smooth="yes"/>
      <point x="236" y="626" type="line" smooth="yes"/>
      <point x="295" y="688" type="line" smooth="yes"/>
      <point x="322" y="780" type="line" smooth="yes"/>
      <point x="264" y="780" type="line" smooth="yes"/>
      <point x="245" y="716" type="line" smooth="yes"/>
      <point x="205" y="673" type="line" smooth="yes"/>
      <point x="142" y="658" type="line" smooth="yes"/>
      <point x="84" y="673" type="line" smooth="yes"/>
      <point x="56" y="716" type="line" smooth="yes"/>
      <point x="54" y="780" type="line" smooth="yes"/>
      <point x="0" y="780" type="line" smooth="yes"/>
      <point x="5" y="688" type="line" smooth="yes"/>
      <point x="51" y="626" type="line" smooth="yes"/>
    </contour>
  </outline>
</glyph>
<glyph name="Iogonek" format="1">
  <advance width="229"/>
  <unicode hex="012E"/>
  <outline>
    <contour>
      <point x="204" y="780" type="line" smooth="yes"/>
      <point x="132" y="780" type="line" smooth="yes"/>
      <point x="31" y="8" type="line" smooth="yes"/>
      <point x="-12" y="-27" type="line" smooth="yes"/>
      <point x="-43" y="-72" type="line" smooth="yes"/>
      <point x="-55" y="-129" type="line" smooth="yes"/>
      <point x="-43" y="-175" type="line" smooth="yes"/>
      <point x="-8" y="-202" type="line" smooth="yes"/>
      <point x="46" y="-211" type="line" smooth="yes"/>
      <point x="76" y="-209" type="line" smooth="yes"/>
      <point x="105" y="-202" type="line" smooth="yes"/>
      <point x="131" y="-191" type="line" smooth="yes"/>
      <point x="119" y="-145" type="line" smooth="yes"/>
      <point x="102" y="-152" type="line" smooth="yes"/>
      <point x="82" y="-156" type="line" smooth="yes"/>
      <point x="61" y="-158" type="line" smooth="yes"/>
      <point x="30" y="-153" type="line" smooth="yes"/>
      <point x="9" y="-138" type="line" smooth="yes"/>
      <point x="2" y="-113" type="line" smooth="yes"/>
      <point x="18" y="-63" type="line" smooth="yes"/>
      <point x="57" y="-25" type="line" smooth="yes"/>
      <point x="102" y="0" type="line" smooth="yes"/>
    </contour>
  </outline>
</glyph>
<glyph name="iogonek" format="1">
  <advance width="216"/>
  <unicode hex="012F"/>
  <outline>
    <contour>
      <point x="202" y="745" type="line" smooth="yes"/>
      <point x="112" y="745" type="line" smooth="yes"/>
      <point x="100" y="655" type="line" smooth="yes"/>
      <point x="190" y="655" type="line" smooth="yes"/>
    </contour>
    <contour>
      <point x="94" y="0" type="line" smooth="yes"/>
      <point x="163" y="530" type="line" smooth="yes"/>
      <point x="93" y="530" type="line" smooth="yes"/>
      <point x="25" y="9" type="line" smooth="yes"/>
      <point x="-19" y="-25" type="line" smooth="yes"/>
      <point x="-51" y="-71" type="line" smooth="yes"/>
      <point x="-63" y="-129" type="line" smooth="yes"/>
      <point x="-51" y="-175" type="line" smooth="yes"/>
      <point x="-16" y="-202" type="line" smooth="yes"/>
      <point x="38" y="-211" type="line" smooth="yes"/>
      <point x="68" y="-209" type="line" smooth="yes"/>
      <point x="97" y="-202" type="line" smooth="yes"/>
      <point x="123" y="-191" type="line" smooth="yes"/>
      <point x="111" y="-145" type="line" smooth="yes"/>
      <point x="94" y="-152" type="line" smooth="yes"/>
      <point x="74" y="-156" type="line" smooth="yes"/>
      <point x="53" y="-158" type="line" smooth="yes"/>
      <point x="22" y="-153" type="line" smooth="yes"/>
      <point x="1" y="-138" type="line" smooth="yes"/>
      <point x="-6" y="-113" type="line" smooth="yes"/>
      <point x="10" y="-63" type="line" smooth="yes"/>
      <point x="49" y="-25" type="line" smooth="yes"/>
    </contour>
  </outline>
</glyph>
